solid CATIA STL
  facet normal -6.785985e-001 -6.785979e-001  2.810853e-001
    outer loop
      vertex -8.500000e+000 -6.000000e-001 -2.846975e+001
      vertex -8.300000e+000 -8.000000e-001 -2.846975e+001
      vertex -8.500000e+000 -4.242640e-001 -2.804549e+001
    endloop
  endfacet
  facet normal -6.785995e-001 -6.785973e-001  2.810843e-001
    outer loop
      vertex -8.500000e+000 -4.242640e-001 -2.804549e+001
      vertex -8.300000e+000 -8.000000e-001 -2.846975e+001
      vertex -8.300000e+000 -5.656855e-001 -2.790407e+001
    endloop
  endfacet
  facet normal -6.786003e-001 -2.810833e-001  6.785969e-001
    outer loop
      vertex -8.500000e+000 -4.242640e-001 -2.804549e+001
      vertex -8.300000e+000 -5.656855e-001 -2.790407e+001
      vertex -8.500000e+000  3.818422e-008 -2.786975e+001
    endloop
  endfacet
  facet normal -6.786003e-001 -2.810833e-001  6.785970e-001
    outer loop
      vertex -8.500000e+000  3.818422e-008 -2.786975e+001
      vertex -8.300000e+000 -5.656855e-001 -2.790407e+001
      vertex -8.300000e+000  7.595270e-016 -2.766975e+001
    endloop
  endfacet
  facet normal -6.786002e-001  2.810834e-001  6.785970e-001
    outer loop
      vertex -8.500000e+000  3.818422e-008 -2.786975e+001
      vertex -8.300000e+000  7.595270e-016 -2.766975e+001
      vertex -8.500000e+000  4.242641e-001 -2.804549e+001
    endloop
  endfacet
  facet normal -6.786003e-001  2.810833e-001  6.785970e-001
    outer loop
      vertex -8.500000e+000  4.242641e-001 -2.804549e+001
      vertex -8.300000e+000  7.595270e-016 -2.766975e+001
      vertex -8.300000e+000  5.656855e-001 -2.790407e+001
    endloop
  endfacet
  facet normal -6.785996e-001  6.785970e-001  2.810848e-001
    outer loop
      vertex -8.500000e+000  4.242641e-001 -2.804549e+001
      vertex -8.300000e+000  5.656855e-001 -2.790407e+001
      vertex -8.500000e+000  6.000000e-001 -2.846975e+001
    endloop
  endfacet
  facet normal -6.785986e-001  6.785980e-001  2.810846e-001
    outer loop
      vertex -8.500000e+000  6.000000e-001 -2.846975e+001
      vertex -8.300000e+000  5.656855e-001 -2.790407e+001
      vertex -8.300000e+000  8.000000e-001 -2.846975e+001
    endloop
  endfacet
  facet normal -6.891512e-001  6.891522e-001 -2.239192e-001
    outer loop
      vertex -8.300000e+000  6.472136e-001 -2.893998e+001
      vertex -8.500000e+000  4.854102e-001 -2.882243e+001
      vertex -8.300000e+000  8.000000e-001 -2.846975e+001
    endloop
  endfacet
  facet normal -6.891522e-001  6.891516e-001 -2.239181e-001
    outer loop
      vertex -8.300000e+000  8.000000e-001 -2.846975e+001
      vertex -8.500000e+000  4.854102e-001 -2.882243e+001
      vertex -8.500000e+000  6.000000e-001 -2.846975e+001
    endloop
  endfacet
  facet normal -6.891521e-001 -6.891515e-001 -2.239189e-001
    outer loop
      vertex -8.300000e+000 -8.000000e-001 -2.846975e+001
      vertex -8.500000e+000 -6.000000e-001 -2.846975e+001
      vertex -8.300000e+000 -6.472136e-001 -2.893998e+001
    endloop
  endfacet
  facet normal -6.891510e-001 -6.891527e-001 -2.239183e-001
    outer loop
      vertex -8.300000e+000 -6.472136e-001 -2.893998e+001
      vertex -8.500000e+000 -6.000000e-001 -2.846975e+001
      vertex -8.500000e+000 -4.854102e-001 -2.882243e+001
    endloop
  endfacet
  facet normal -6.891498e-001 -4.259203e-001 -5.862290e-001
    outer loop
      vertex -8.300000e+000 -6.472136e-001 -2.893998e+001
      vertex -8.500000e+000 -4.854102e-001 -2.882243e+001
      vertex -8.300000e+000 -2.472136e-001 -2.923060e+001
    endloop
  endfacet
  facet normal -6.891507e-001 -4.259191e-001 -5.862287e-001
    outer loop
      vertex -8.300000e+000 -2.472136e-001 -2.923060e+001
      vertex -8.500000e+000 -4.854102e-001 -2.882243e+001
      vertex -8.500000e+000 -1.854102e-001 -2.904039e+001
    endloop
  endfacet
  facet normal -6.891503e-001  0.000000e+000 -7.246184e-001
    outer loop
      vertex -8.300000e+000 -2.472136e-001 -2.923060e+001
      vertex -8.500000e+000 -1.854102e-001 -2.904039e+001
      vertex -8.300000e+000  2.472136e-001 -2.923060e+001
    endloop
  endfacet
  facet normal -6.891503e-001  0.000000e+000 -7.246185e-001
    outer loop
      vertex -8.300000e+000  2.472136e-001 -2.923060e+001
      vertex -8.500000e+000 -1.854102e-001 -2.904039e+001
      vertex -8.500000e+000  1.854102e-001 -2.904039e+001
    endloop
  endfacet
  facet normal -6.891506e-001  4.259198e-001 -5.862283e-001
    outer loop
      vertex -8.300000e+000  2.472136e-001 -2.923060e+001
      vertex -8.500000e+000  1.854102e-001 -2.904039e+001
      vertex -8.300000e+000  6.472136e-001 -2.893998e+001
    endloop
  endfacet
  facet normal -6.891497e-001  4.259197e-001 -5.862295e-001
    outer loop
      vertex -8.300000e+000  6.472136e-001 -2.893998e+001
      vertex -8.500000e+000  1.854102e-001 -2.904039e+001
      vertex -8.500000e+000  4.854102e-001 -2.882243e+001
    endloop
  endfacet
  facet normal  2.355289e-003 -2.422743e-001 -9.702049e-001
    outer loop
      vertex  1.000000e+000  0.000000e+000 -2.926975e+001
      vertex  9.763747e-001 -3.757577e-001 -2.917598e+001
      vertex -8.300000e+000 -2.472136e-001 -2.923060e+001
    endloop
  endfacet
  facet normal -4.210280e-003  0.000000e+000 -9.999911e-001
    outer loop
      vertex  1.000000e+000  0.000000e+000 -2.926975e+001
      vertex -8.300000e+000 -2.472136e-001 -2.923060e+001
      vertex -8.300000e+000  2.472136e-001 -2.923060e+001
    endloop
  endfacet
  facet normal  2.355289e-003  2.422743e-001 -9.702049e-001
    outer loop
      vertex  1.000000e+000  0.000000e+000 -2.926975e+001
      vertex -8.300000e+000  2.472136e-001 -2.923060e+001
      vertex  9.763747e-001  3.757577e-001 -2.917598e+001
    endloop
  endfacet
  facet normal  0.000000e+000  9.510565e-001 -3.090171e-001
    outer loop
      vertex -8.300000e+000  8.000000e-001 -2.846975e+001
      vertex  8.913665e-001  8.000000e-001 -2.846975e+001
      vertex -8.300000e+000  6.472136e-001 -2.893998e+001
    endloop
  endfacet
  facet normal -2.435159e-003  9.640677e-001 -2.656456e-001
    outer loop
      vertex -8.300000e+000  6.472136e-001 -2.893998e+001
      vertex  8.913665e-001  8.000000e-001 -2.846975e+001
      vertex  9.202256e-001  6.872281e-001 -2.887928e+001
    endloop
  endfacet
  facet normal  2.774909e-003  5.877830e-001 -8.090138e-001
    outer loop
      vertex -8.300000e+000  6.472136e-001 -2.893998e+001
      vertex  9.202256e-001  6.872281e-001 -2.887928e+001
      vertex -8.300000e+000  2.472136e-001 -2.923060e+001
    endloop
  endfacet
  facet normal -5.284521e-003  6.892156e-001 -7.245371e-001
    outer loop
      vertex -8.300000e+000  2.472136e-001 -2.923060e+001
      vertex  9.202256e-001  6.872281e-001 -2.887928e+001
      vertex  9.763747e-001  3.757577e-001 -2.917598e+001
    endloop
  endfacet
  facet normal -3.381554e-003 -5.877819e-001 -8.090124e-001
    outer loop
      vertex -8.300000e+000 -2.472136e-001 -2.923060e+001
      vertex  9.763747e-001 -3.757577e-001 -2.917598e+001
      vertex -8.300000e+000 -6.472136e-001 -2.893998e+001
    endloop
  endfacet
  facet normal  1.771532e-003 -6.898911e-001 -7.239109e-001
    outer loop
      vertex -8.300000e+000 -6.472136e-001 -2.893998e+001
      vertex  9.763747e-001 -3.757577e-001 -2.917598e+001
      vertex  9.202256e-001 -6.872281e-001 -2.887928e+001
    endloop
  endfacet
  facet normal -2.093169e-003 -9.510544e-001 -3.090164e-001
    outer loop
      vertex -8.300000e+000 -6.472136e-001 -2.893998e+001
      vertex  9.202256e-001 -6.872281e-001 -2.887928e+001
      vertex -8.300000e+000 -8.000000e-001 -2.846975e+001
    endloop
  endfacet
  facet normal  0.000000e+000 -9.641145e-001 -2.654868e-001
    outer loop
      vertex -8.300000e+000 -8.000000e-001 -2.846975e+001
      vertex  9.202256e-001 -6.872281e-001 -2.887928e+001
      vertex  8.913665e-001 -8.000000e-001 -2.846975e+001
    endloop
  endfacet
  facet normal  0.000000e+000 -9.238795e-001  3.826835e-001
    outer loop
      vertex -8.300000e+000 -8.000000e-001 -2.846975e+001
      vertex  8.913665e-001 -8.000000e-001 -2.846975e+001
      vertex -8.300000e+000 -5.656855e-001 -2.790407e+001
    endloop
  endfacet
  facet normal -8.201418e-003 -9.639336e-001  2.660162e-001
    outer loop
      vertex -8.300000e+000 -5.656855e-001 -2.790407e+001
      vertex  8.913665e-001 -8.000000e-001 -2.846975e+001
      vertex  9.202256e-001 -6.872281e-001 -2.806022e+001
    endloop
  endfacet
  facet normal  3.162240e-003 -6.900202e-001  7.237833e-001
    outer loop
      vertex -8.300000e+000 -5.656855e-001 -2.790407e+001
      vertex  9.202256e-001 -6.872281e-001 -2.806022e+001
      vertex  9.763747e-001 -3.757577e-001 -2.776353e+001
    endloop
  endfacet
  facet normal -6.161693e-003 -3.826753e-001  9.238624e-001
    outer loop
      vertex -8.300000e+000 -5.656855e-001 -2.790407e+001
      vertex  9.763747e-001 -3.757577e-001 -2.776353e+001
      vertex -8.300000e+000  7.595270e-016 -2.766975e+001
    endloop
  endfacet
  facet normal -3.890548e-017 -2.421355e-001  9.702425e-001
    outer loop
      vertex -8.300000e+000  7.595270e-016 -2.766975e+001
      vertex  9.763747e-001 -3.757577e-001 -2.776353e+001
      vertex  1.000000e+000 -7.347638e-016 -2.766975e+001
    endloop
  endfacet
  facet normal  6.148807e-017  3.826826e-001  9.238800e-001
    outer loop
      vertex -8.300000e+000  7.595270e-016 -2.766975e+001
      vertex  1.000000e+000 -7.347638e-016 -2.766975e+001
      vertex -8.300000e+000  5.656855e-001 -2.790407e+001
    endloop
  endfacet
  facet normal -9.755363e-003  2.415466e-001  9.703403e-001
    outer loop
      vertex -8.300000e+000  5.656855e-001 -2.790407e+001
      vertex  1.000000e+000 -7.347638e-016 -2.766975e+001
      vertex  9.763747e-001  3.757577e-001 -2.776353e+001
    endloop
  endfacet
  facet normal  3.162240e-003  6.900202e-001  7.237831e-001
    outer loop
      vertex -8.300000e+000  5.656855e-001 -2.790407e+001
      vertex  9.763747e-001  3.757577e-001 -2.776353e+001
      vertex  9.202256e-001  6.872281e-001 -2.806022e+001
    endloop
  endfacet
  facet normal -8.201418e-003  9.639336e-001  2.660162e-001
    outer loop
      vertex  9.202256e-001  6.872281e-001 -2.806022e+001
      vertex  8.913665e-001  8.000000e-001 -2.846975e+001
      vertex -8.300000e+000  5.656855e-001 -2.790407e+001
    endloop
  endfacet
  facet normal  0.000000e+000  9.238795e-001  3.826835e-001
    outer loop
      vertex -8.300000e+000  5.656855e-001 -2.790407e+001
      vertex  8.913665e-001  8.000000e-001 -2.846975e+001
      vertex -8.300000e+000  8.000000e-001 -2.846975e+001
    endloop
  endfacet
  facet normal -1.000000e+000  0.000000e+000  0.000000e+000
    outer loop
      vertex -8.500000e+000  3.818422e-008 -2.786975e+001
      vertex -8.500000e+000  4.242641e-001 -2.804549e+001
      vertex -8.500000e+000 -4.242640e-001 -2.804549e+001
    endloop
  endfacet
  facet normal -1.000000e+000  0.000000e+000  0.000000e+000
    outer loop
      vertex -8.500000e+000 -4.242640e-001 -2.804549e+001
      vertex -8.500000e+000  4.242641e-001 -2.804549e+001
      vertex -8.500000e+000  6.000000e-001 -2.846975e+001
    endloop
  endfacet
  facet normal -1.000000e+000  0.000000e+000  0.000000e+000
    outer loop
      vertex -8.500000e+000 -4.242640e-001 -2.804549e+001
      vertex -8.500000e+000  6.000000e-001 -2.846975e+001
      vertex -8.500000e+000 -6.000000e-001 -2.846975e+001
    endloop
  endfacet
  facet normal -1.000000e+000  0.000000e+000  0.000000e+000
    outer loop
      vertex -8.500000e+000 -6.000000e-001 -2.846975e+001
      vertex -8.500000e+000  6.000000e-001 -2.846975e+001
      vertex -8.500000e+000  4.854102e-001 -2.882243e+001
    endloop
  endfacet
  facet normal -1.000000e+000  0.000000e+000  0.000000e+000
    outer loop
      vertex -8.500000e+000 -6.000000e-001 -2.846975e+001
      vertex -8.500000e+000  4.854102e-001 -2.882243e+001
      vertex -8.500000e+000 -4.854102e-001 -2.882243e+001
    endloop
  endfacet
  facet normal -1.000000e+000  0.000000e+000  0.000000e+000
    outer loop
      vertex -8.500000e+000 -4.854102e-001 -2.882243e+001
      vertex -8.500000e+000  4.854102e-001 -2.882243e+001
      vertex -8.500000e+000  1.854102e-001 -2.904039e+001
    endloop
  endfacet
  facet normal -9.999999e-001  0.000000e+000  0.000000e+000
    outer loop
      vertex -8.500000e+000 -4.854102e-001 -2.882243e+001
      vertex -8.500000e+000  1.854102e-001 -2.904039e+001
      vertex -8.500000e+000 -1.854102e-001 -2.904039e+001
    endloop
  endfacet
  facet normal  9.168194e-001  3.797589e-001 -1.233909e-001
    outer loop
      vertex  2.000000e+000  1.445316e+000 -2.846975e+001
      vertex  2.000000e+000  1.169285e+000 -2.931929e+001
      vertex  1.941421e+000  1.586737e+000 -2.846975e+001
    endloop
  endfacet
  facet normal  9.168190e-001  3.797597e-001 -1.233913e-001
    outer loop
      vertex  1.941421e+000  1.586737e+000 -2.846975e+001
      vertex  2.000000e+000  1.169285e+000 -2.931929e+001
      vertex  1.941421e+000  1.283697e+000 -2.940241e+001
    endloop
  endfacet
  facet normal  3.665257e-001  8.848706e-001 -2.875117e-001
    outer loop
      vertex  1.941421e+000  1.586737e+000 -2.846975e+001
      vertex  1.941421e+000  1.283697e+000 -2.940241e+001
      vertex  1.800000e+000  1.645316e+000 -2.846975e+001
    endloop
  endfacet
  facet normal  3.665252e-001  8.848708e-001 -2.875119e-001
    outer loop
      vertex  1.800000e+000  1.645316e+000 -2.846975e+001
      vertex  1.941421e+000  1.283697e+000 -2.940241e+001
      vertex  1.800000e+000  1.331088e+000 -2.943685e+001
    endloop
  endfacet
  facet normal  6.691751e-001  0.000000e+000 -7.431048e-001
    outer loop
      vertex  1.800000e+000 -1.707794e-001 -3.010618e+001
      vertex  1.941421e+000  4.903287e-001 -2.997883e+001
      vertex  1.941421e+000 -4.903287e-001 -2.997883e+001
    endloop
  endfacet
  facet normal  5.789263e-001  4.792683e-001 -6.596560e-001
    outer loop
      vertex  1.800000e+000  6.697626e-001 -2.997258e+001
      vertex  1.941421e+000  1.283697e+000 -2.940241e+001
      vertex  1.941421e+000  4.903287e-001 -2.997883e+001
    endloop
  endfacet
  facet normal  1.536642e-001  1.551148e-001 -9.758722e-001
    outer loop
      vertex  1.800000e+000  6.697626e-001 -2.997258e+001
      vertex  1.941421e+000  4.903287e-001 -2.997883e+001
      vertex  1.800000e+000 -1.707794e-001 -3.010618e+001
    endloop
  endfacet
  facet normal  3.714853e-001  5.844181e-001 -7.214252e-001
    outer loop
      vertex  1.800000e+000  1.331088e+000 -2.943685e+001
      vertex  1.941421e+000  1.283697e+000 -2.940241e+001
      vertex  1.800000e+000  6.697626e-001 -2.997258e+001
    endloop
  endfacet
  facet normal  3.316845e-002 -3.573122e-001 -9.333959e-001
    outer loop
      vertex  1.800000e+000 -9.656240e-001 -2.980191e+001
      vertex  1.800000e+000 -1.707794e-001 -3.010618e+001
      vertex  1.941421e+000 -4.903287e-001 -2.997883e+001
    endloop
  endfacet
  facet normal  6.937875e-001 -4.233111e-001 -5.826376e-001
    outer loop
      vertex  1.800000e+000 -9.656240e-001 -2.980191e+001
      vertex  1.941421e+000 -4.903287e-001 -2.997883e+001
      vertex  1.941421e+000 -1.283697e+000 -2.940241e+001
    endloop
  endfacet
  facet normal  1.263136e-001 -7.537827e-001 -6.448693e-001
    outer loop
      vertex  1.800000e+000 -9.656240e-001 -2.980191e+001
      vertex  1.941421e+000 -1.283697e+000 -2.940241e+001
      vertex  1.800000e+000 -1.465575e+000 -2.921752e+001
    endloop
  endfacet
  facet normal  9.168194e-001 -3.797589e-001 -1.233909e-001
    outer loop
      vertex  2.000000e+000 -1.445316e+000 -2.846975e+001
      vertex  1.941421e+000 -1.586737e+000 -2.846975e+001
      vertex  2.000000e+000 -1.169285e+000 -2.931929e+001
    endloop
  endfacet
  facet normal  9.168190e-001 -3.797597e-001 -1.233913e-001
    outer loop
      vertex  2.000000e+000 -1.169285e+000 -2.931929e+001
      vertex  1.941421e+000 -1.586737e+000 -2.846975e+001
      vertex  1.941421e+000 -1.283697e+000 -2.940241e+001
    endloop
  endfacet
  facet normal  9.168184e-001 -2.347053e-001 -3.230441e-001
    outer loop
      vertex  2.000000e+000 -1.169285e+000 -2.931929e+001
      vertex  1.941421e+000 -1.283697e+000 -2.940241e+001
      vertex  2.000000e+000 -4.466271e-001 -2.984433e+001
    endloop
  endfacet
  facet normal  9.168184e-001 -2.347052e-001 -3.230439e-001
    outer loop
      vertex  2.000000e+000 -4.466271e-001 -2.984433e+001
      vertex  1.941421e+000 -1.283697e+000 -2.940241e+001
      vertex  1.941421e+000 -4.903287e-001 -2.997883e+001
    endloop
  endfacet
  facet normal  9.168183e-001  0.000000e+000 -3.993048e-001
    outer loop
      vertex  2.000000e+000 -4.466271e-001 -2.984433e+001
      vertex  1.941421e+000 -4.903287e-001 -2.997883e+001
      vertex  2.000000e+000  4.466271e-001 -2.984433e+001
    endloop
  endfacet
  facet normal  9.168182e-001  0.000000e+000 -3.993048e-001
    outer loop
      vertex  2.000000e+000  4.466271e-001 -2.984433e+001
      vertex  1.941421e+000 -4.903287e-001 -2.997883e+001
      vertex  1.941421e+000  4.903287e-001 -2.997883e+001
    endloop
  endfacet
  facet normal  9.168184e-001  2.347051e-001 -3.230439e-001
    outer loop
      vertex  2.000000e+000  4.466271e-001 -2.984433e+001
      vertex  1.941421e+000  4.903287e-001 -2.997883e+001
      vertex  2.000000e+000  1.169285e+000 -2.931929e+001
    endloop
  endfacet
  facet normal  9.168184e-001  2.347053e-001 -3.230441e-001
    outer loop
      vertex  2.000000e+000  1.169285e+000 -2.931929e+001
      vertex  1.941421e+000  4.903287e-001 -2.997883e+001
      vertex  1.941421e+000  1.283697e+000 -2.940241e+001
    endloop
  endfacet
  facet normal  3.735827e-001 -9.019077e-001 -2.167917e-001
    outer loop
      vertex  1.800000e+000 -1.645316e+000 -2.846975e+001
      vertex  1.800000e+000 -1.465575e+000 -2.921752e+001
      vertex  1.941421e+000 -1.586737e+000 -2.846975e+001
    endloop
  endfacet
  facet normal  6.336703e-001 -7.357404e-001 -2.390564e-001
    outer loop
      vertex  1.941421e+000 -1.586737e+000 -2.846975e+001
      vertex  1.800000e+000 -1.465575e+000 -2.921752e+001
      vertex  1.941421e+000 -1.283697e+000 -2.940241e+001
    endloop
  endfacet
  facet normal  9.168194e-001 -3.797589e-001  1.233912e-001
    outer loop
      vertex  2.000000e+000 -1.445316e+000 -2.846975e+001
      vertex  2.000000e+000 -1.169285e+000 -2.762022e+001
      vertex  1.941421e+000 -1.586737e+000 -2.846975e+001
    endloop
  endfacet
  facet normal  9.168190e-001 -3.797596e-001  1.233915e-001
    outer loop
      vertex  1.941421e+000 -1.586737e+000 -2.846975e+001
      vertex  2.000000e+000 -1.169285e+000 -2.762022e+001
      vertex  1.941421e+000 -1.283697e+000 -2.753709e+001
    endloop
  endfacet
  facet normal  3.665257e-001 -8.848704e-001  2.875122e-001
    outer loop
      vertex  1.941421e+000 -1.586737e+000 -2.846975e+001
      vertex  1.941421e+000 -1.283697e+000 -2.753709e+001
      vertex  1.800000e+000 -1.645316e+000 -2.846975e+001
    endloop
  endfacet
  facet normal  3.665252e-001 -8.848705e-001  2.875124e-001
    outer loop
      vertex  1.800000e+000 -1.645316e+000 -2.846975e+001
      vertex  1.941421e+000 -1.283697e+000 -2.753709e+001
      vertex  1.800000e+000 -1.331088e+000 -2.750266e+001
    endloop
  endfacet
  facet normal  9.168190e-001  3.797596e-001  1.233914e-001
    outer loop
      vertex  2.000000e+000  1.169285e+000 -2.762022e+001
      vertex  2.000000e+000  1.445316e+000 -2.846975e+001
      vertex  1.941421e+000  1.283697e+000 -2.753709e+001
    endloop
  endfacet
  facet normal  9.168194e-001  3.797589e-001  1.233913e-001
    outer loop
      vertex  1.941421e+000  1.283697e+000 -2.753709e+001
      vertex  2.000000e+000  1.445316e+000 -2.846975e+001
      vertex  1.941421e+000  1.586737e+000 -2.846975e+001
    endloop
  endfacet
  facet normal  3.665252e-001  8.848705e-001  2.875123e-001
    outer loop
      vertex  1.941421e+000  1.283697e+000 -2.753709e+001
      vertex  1.941421e+000  1.586737e+000 -2.846975e+001
      vertex  1.800000e+000  1.331088e+000 -2.750266e+001
    endloop
  endfacet
  facet normal  3.665256e-001  8.848704e-001  2.875123e-001
    outer loop
      vertex  1.800000e+000  1.331088e+000 -2.750266e+001
      vertex  1.941421e+000  1.586737e+000 -2.846975e+001
      vertex  1.800000e+000  1.645316e+000 -2.846975e+001
    endloop
  endfacet
  facet normal  9.168185e-001  2.347052e-001  3.230440e-001
    outer loop
      vertex  2.000000e+000  4.466271e-001 -2.709518e+001
      vertex  2.000000e+000  1.169285e+000 -2.762022e+001
      vertex  1.941421e+000  4.903287e-001 -2.696068e+001
    endloop
  endfacet
  facet normal  9.168184e-001  2.347053e-001  3.230441e-001
    outer loop
      vertex  1.941421e+000  4.903287e-001 -2.696068e+001
      vertex  2.000000e+000  1.169285e+000 -2.762022e+001
      vertex  1.941421e+000  1.283697e+000 -2.753709e+001
    endloop
  endfacet
  facet normal  3.665259e-001  5.468800e-001  7.527157e-001
    outer loop
      vertex  1.941421e+000  4.903287e-001 -2.696068e+001
      vertex  1.941421e+000  1.283697e+000 -2.753709e+001
      vertex  1.800000e+000  5.084305e-001 -2.690497e+001
    endloop
  endfacet
  facet normal  3.665245e-001  5.468805e-001  7.527160e-001
    outer loop
      vertex  1.800000e+000  5.084305e-001 -2.690497e+001
      vertex  1.941421e+000  1.283697e+000 -2.753709e+001
      vertex  1.800000e+000  1.331088e+000 -2.750266e+001
    endloop
  endfacet
  facet normal  9.168183e-001  0.000000e+000  3.993049e-001
    outer loop
      vertex  2.000000e+000 -4.466271e-001 -2.709518e+001
      vertex  2.000000e+000  4.466271e-001 -2.709518e+001
      vertex  1.941421e+000 -4.903287e-001 -2.696068e+001
    endloop
  endfacet
  facet normal  9.168182e-001  -0.000000e+000  3.993048e-001
    outer loop
      vertex  1.941421e+000 -4.903287e-001 -2.696068e+001
      vertex  2.000000e+000  4.466271e-001 -2.709518e+001
      vertex  1.941421e+000  4.903287e-001 -2.696068e+001
    endloop
  endfacet
  facet normal  3.665261e-001  0.000000e+000  9.304078e-001
    outer loop
      vertex  1.941421e+000 -4.903287e-001 -2.696068e+001
      vertex  1.941421e+000  4.903287e-001 -2.696068e+001
      vertex  1.800000e+000 -5.084305e-001 -2.690497e+001
    endloop
  endfacet
  facet normal  3.665261e-001  -0.000000e+000  9.304078e-001
    outer loop
      vertex  1.800000e+000 -5.084305e-001 -2.690497e+001
      vertex  1.941421e+000  4.903287e-001 -2.696068e+001
      vertex  1.800000e+000  5.084305e-001 -2.690497e+001
    endloop
  endfacet
  facet normal  9.168184e-001 -2.347053e-001  3.230441e-001
    outer loop
      vertex  2.000000e+000 -1.169285e+000 -2.762022e+001
      vertex  2.000000e+000 -4.466271e-001 -2.709518e+001
      vertex  1.941421e+000 -1.283697e+000 -2.753709e+001
    endloop
  endfacet
  facet normal  9.168184e-001 -2.347052e-001  3.230440e-001
    outer loop
      vertex  1.941421e+000 -1.283697e+000 -2.753709e+001
      vertex  2.000000e+000 -4.466271e-001 -2.709518e+001
      vertex  1.941421e+000 -4.903287e-001 -2.696068e+001
    endloop
  endfacet
  facet normal  3.665245e-001 -5.468804e-001  7.527162e-001
    outer loop
      vertex  1.941421e+000 -1.283697e+000 -2.753709e+001
      vertex  1.941421e+000 -4.903287e-001 -2.696068e+001
      vertex  1.800000e+000 -1.331088e+000 -2.750266e+001
    endloop
  endfacet
  facet normal  3.665259e-001 -5.468802e-001  7.527155e-001
    outer loop
      vertex  1.800000e+000 -1.331088e+000 -2.750266e+001
      vertex  1.941421e+000 -4.903287e-001 -2.696068e+001
      vertex  1.800000e+000 -5.084305e-001 -2.690497e+001
    endloop
  endfacet
  facet normal  1.000000e+000  -0.000000e+000  0.000000e+000
    outer loop
      vertex  2.000000e+000  4.466271e-001 -2.709518e+001
      vertex  2.000000e+000 -4.466271e-001 -2.709518e+001
      vertex  2.000000e+000  1.169285e+000 -2.762022e+001
    endloop
  endfacet
  facet normal  1.000000e+000  0.000000e+000  0.000000e+000
    outer loop
      vertex  2.000000e+000  1.169285e+000 -2.762022e+001
      vertex  2.000000e+000 -4.466271e-001 -2.709518e+001
      vertex  2.000000e+000 -1.169285e+000 -2.762022e+001
    endloop
  endfacet
  facet normal  1.000000e+000  -0.000000e+000  0.000000e+000
    outer loop
      vertex  2.000000e+000  1.169285e+000 -2.762022e+001
      vertex  2.000000e+000 -1.169285e+000 -2.762022e+001
      vertex  2.000000e+000  1.445316e+000 -2.846975e+001
    endloop
  endfacet
  facet normal  1.000000e+000  0.000000e+000  0.000000e+000
    outer loop
      vertex  2.000000e+000  1.445316e+000 -2.846975e+001
      vertex  2.000000e+000 -1.169285e+000 -2.762022e+001
      vertex  2.000000e+000 -1.445316e+000 -2.846975e+001
    endloop
  endfacet
  facet normal  1.000000e+000  -0.000000e+000  0.000000e+000
    outer loop
      vertex  2.000000e+000  1.445316e+000 -2.846975e+001
      vertex  2.000000e+000 -1.445316e+000 -2.846975e+001
      vertex  2.000000e+000  1.169285e+000 -2.931929e+001
    endloop
  endfacet
  facet normal  1.000000e+000  0.000000e+000  0.000000e+000
    outer loop
      vertex  2.000000e+000  1.169285e+000 -2.931929e+001
      vertex  2.000000e+000 -1.445316e+000 -2.846975e+001
      vertex  2.000000e+000 -1.169285e+000 -2.931929e+001
    endloop
  endfacet
  facet normal  1.000000e+000  -0.000000e+000  0.000000e+000
    outer loop
      vertex  2.000000e+000  1.169285e+000 -2.931929e+001
      vertex  2.000000e+000 -1.169285e+000 -2.931929e+001
      vertex  2.000000e+000  4.466271e-001 -2.984433e+001
    endloop
  endfacet
  facet normal  1.000000e+000  0.000000e+000  0.000000e+000
    outer loop
      vertex  2.000000e+000  4.466271e-001 -2.984433e+001
      vertex  2.000000e+000 -1.169285e+000 -2.931929e+001
      vertex  2.000000e+000 -4.466271e-001 -2.984433e+001
    endloop
  endfacet
  facet normal  6.949814e-002 -5.863643e-001  8.070607e-001
    outer loop
      vertex  1.800000e+000 -1.331088e+000 -2.750266e+001
      vertex  1.800000e+000 -5.084305e-001 -2.690497e+001
      vertex  9.022150e-001 -7.597027e-001 -2.701022e+001
    endloop
  endfacet
  facet normal  6.949814e-002  5.863643e-001  8.070607e-001
    outer loop
      vertex  9.022150e-001  7.597027e-001 -2.701022e+001
      vertex  1.800000e+000  5.084305e-001 -2.690497e+001
      vertex  1.800000e+000  1.331088e+000 -2.750266e+001
    endloop
  endfacet
  facet normal -4.917860e-002 -2.312759e-001  9.716444e-001
    outer loop
      vertex  1.000000e+000  0.000000e+000 -2.682444e+001
      vertex  9.022150e-001 -7.597027e-001 -2.701022e+001
      vertex  1.800000e+000 -5.084305e-001 -2.690497e+001
    endloop
  endfacet
  facet normal  1.001542e-001  -0.000000e+000  9.949719e-001
    outer loop
      vertex  1.000000e+000  0.000000e+000 -2.682444e+001
      vertex  1.800000e+000 -5.084305e-001 -2.690497e+001
      vertex  1.800000e+000  5.084305e-001 -2.690497e+001
    endloop
  endfacet
  facet normal -4.917860e-002  2.312759e-001  9.716444e-001
    outer loop
      vertex  1.000000e+000  0.000000e+000 -2.682444e+001
      vertex  1.800000e+000  5.084305e-001 -2.690497e+001
      vertex  9.022150e-001  7.597027e-001 -2.701022e+001
    endloop
  endfacet
  facet normal  0.000000e+000 -9.650116e-001  2.622070e-001
    outer loop
      vertex  5.085725e-001 -1.645316e+000 -2.846975e+001
      vertex  1.800000e+000 -1.645316e+000 -2.846975e+001
      vertex  6.431481e-001 -1.419073e+000 -2.763710e+001
    endloop
  endfacet
  facet normal  3.639724e-002 -9.504262e-001  3.088127e-001
    outer loop
      vertex  6.431481e-001 -1.419073e+000 -2.763710e+001
      vertex  1.800000e+000 -1.645316e+000 -2.846975e+001
      vertex  1.800000e+000 -1.331088e+000 -2.750266e+001
    endloop
  endfacet
  facet normal -3.307243e-002 -6.817968e-001  7.307935e-001
    outer loop
      vertex  6.431481e-001 -1.419073e+000 -2.763710e+001
      vertex  1.800000e+000 -1.331088e+000 -2.750266e+001
      vertex  9.022150e-001 -7.597027e-001 -2.701022e+001
    endloop
  endfacet
  facet normal  -0.000000e+000  9.510564e-001  3.090175e-001
    outer loop
      vertex  1.800000e+000  1.645316e+000 -2.846975e+001
      vertex  5.085725e-001  1.645316e+000 -2.846975e+001
      vertex  1.800000e+000  1.331088e+000 -2.750266e+001
    endloop
  endfacet
  facet normal  4.378249e-002  9.658543e-001  2.553597e-001
    outer loop
      vertex  1.800000e+000  1.331088e+000 -2.750266e+001
      vertex  5.085725e-001  1.645316e+000 -2.846975e+001
      vertex  6.431481e-001  1.419073e+000 -2.763710e+001
    endloop
  endfacet
  facet normal -3.307243e-002  6.817968e-001  7.307935e-001
    outer loop
      vertex  1.800000e+000  1.331088e+000 -2.750266e+001
      vertex  6.431481e-001  1.419073e+000 -2.763710e+001
      vertex  9.022150e-001  7.597027e-001 -2.701022e+001
    endloop
  endfacet
  facet normal  0.000000e+000  9.650118e-001 -2.622064e-001
    outer loop
      vertex  5.085725e-001  1.645316e+000 -2.846975e+001
      vertex  1.800000e+000  1.645316e+000 -2.846975e+001
      vertex  6.431481e-001  1.419073e+000 -2.930241e+001
    endloop
  endfacet
  facet normal  3.639732e-002  9.504264e-001 -3.088122e-001
    outer loop
      vertex  6.431481e-001  1.419073e+000 -2.930241e+001
      vertex  1.800000e+000  1.645316e+000 -2.846975e+001
      vertex  1.800000e+000  1.331088e+000 -2.943685e+001
    endloop
  endfacet
  facet normal -3.307243e-002  6.817968e-001 -7.307935e-001
    outer loop
      vertex  6.431481e-001  1.419073e+000 -2.930241e+001
      vertex  1.800000e+000  1.331088e+000 -2.943685e+001
      vertex  9.022150e-001  7.597027e-001 -2.992929e+001
    endloop
  endfacet
  facet normal  2.558790e-002  6.292571e-001 -7.767760e-001
    outer loop
      vertex  9.022150e-001  7.597027e-001 -2.992929e+001
      vertex  1.800000e+000  1.331088e+000 -2.943685e+001
      vertex  1.800000e+000  6.697626e-001 -2.997258e+001
    endloop
  endfacet
  facet normal -2.334783e-002  2.346392e-001 -9.718021e-001
    outer loop
      vertex  9.022150e-001  7.597027e-001 -2.992929e+001
      vertex  1.800000e+000  6.697626e-001 -2.997258e+001
      vertex  1.000000e+000 -3.399299e-015 -3.011507e+001
    endloop
  endfacet
  facet normal  4.443964e-002  1.568241e-001 -9.866262e-001
    outer loop
      vertex  1.000000e+000 -3.399299e-015 -3.011507e+001
      vertex  1.800000e+000  6.697626e-001 -2.997258e+001
      vertex  1.800000e+000 -1.707794e-001 -3.010618e+001
    endloop
  endfacet
  facet normal -3.886540e-002 -2.326381e-001 -9.717865e-001
    outer loop
      vertex  1.000000e+000 -3.399299e-015 -3.011507e+001
      vertex  1.800000e+000 -1.707794e-001 -3.010618e+001
      vertex  9.022150e-001 -7.597027e-001 -2.992929e+001
    endloop
  endfacet
  facet normal  5.044514e-002 -3.570538e-001 -9.327208e-001
    outer loop
      vertex  9.022150e-001 -7.597027e-001 -2.992929e+001
      vertex  1.800000e+000 -1.707794e-001 -3.010618e+001
      vertex  1.800000e+000 -9.656240e-001 -2.980191e+001
    endloop
  endfacet
  facet normal -5.127643e-002 -6.774677e-001 -7.337630e-001
    outer loop
      vertex  9.022150e-001 -7.597027e-001 -2.992929e+001
      vertex  1.800000e+000 -9.656240e-001 -2.980191e+001
      vertex  6.431481e-001 -1.419073e+000 -2.930241e+001
    endloop
  endfacet
  facet normal  1.715378e-002 -7.597572e-001 -6.499805e-001
    outer loop
      vertex  6.431481e-001 -1.419073e+000 -2.930241e+001
      vertex  1.800000e+000 -9.656240e-001 -2.980191e+001
      vertex  1.800000e+000 -1.465575e+000 -2.921752e+001
    endloop
  endfacet
  facet normal -1.930199e-002 -9.640384e-001 -2.650615e-001
    outer loop
      vertex  6.431481e-001 -1.419073e+000 -2.930241e+001
      vertex  1.800000e+000 -1.465575e+000 -2.921752e+001
      vertex  5.085725e-001 -1.645316e+000 -2.846975e+001
    endloop
  endfacet
  facet normal  0.000000e+000 -9.723056e-001 -2.337133e-001
    outer loop
      vertex  5.085725e-001 -1.645316e+000 -2.846975e+001
      vertex  1.800000e+000 -1.465575e+000 -2.921752e+001
      vertex  1.800000e+000 -1.645316e+000 -2.846975e+001
    endloop
  endfacet
  facet normal -8.594477e-001 -5.112238e-001  -0.000000e+000
    outer loop
      vertex  6.431481e-001  1.419073e+000 -2.930241e+001
      vertex  6.431481e-001  1.419073e+000 -2.763710e+001
      vertex  5.085725e-001  1.645316e+000 -2.846975e+001
    endloop
  endfacet
  facet normal -9.691253e-001 -2.465687e-001  3.956946e-004
    outer loop
      vertex  8.913665e-001  8.000000e-001 -2.846975e+001
      vertex  9.202256e-001  6.872281e-001 -2.806022e+001
      vertex  9.022150e-001  7.597027e-001 -2.701022e+001
    endloop
  endfacet
  facet normal -9.296740e-001 -3.683691e-001 -3.260404e-003
    outer loop
      vertex  8.913665e-001  8.000000e-001 -2.846975e+001
      vertex  9.022150e-001  7.597027e-001 -2.701022e+001
      vertex  6.431481e-001  1.419073e+000 -2.763710e+001
    endloop
  endfacet
  facet normal -9.281718e-001 -3.721520e-001  -0.000000e+000
    outer loop
      vertex  8.913665e-001  8.000000e-001 -2.846975e+001
      vertex  6.431481e-001  1.419073e+000 -2.763710e+001
      vertex  6.431481e-001  1.419073e+000 -2.930241e+001
    endloop
  endfacet
  facet normal -9.296739e-001 -3.683691e-001  3.260399e-003
    outer loop
      vertex  8.913665e-001  8.000000e-001 -2.846975e+001
      vertex  6.431481e-001  1.419073e+000 -2.930241e+001
      vertex  9.022150e-001  7.597027e-001 -2.992929e+001
    endloop
  endfacet
  facet normal -9.691252e-001 -2.465687e-001 -3.956942e-004
    outer loop
      vertex  8.913665e-001  8.000000e-001 -2.846975e+001
      vertex  9.022150e-001  7.597027e-001 -2.992929e+001
      vertex  9.202256e-001  6.872281e-001 -2.887928e+001
    endloop
  endfacet
  facet normal -9.980294e-001 -6.274991e-002  5.454334e-017
    outer loop
      vertex  1.000000e+000 -7.347638e-016 -2.766975e+001
      vertex  1.000000e+000  0.000000e+000 -2.682444e+001
      vertex  9.763747e-001  3.757577e-001 -2.776353e+001
    endloop
  endfacet
  facet normal -9.904828e-001 -1.345630e-001 -2.892436e-002
    outer loop
      vertex  9.763747e-001  3.757577e-001 -2.776353e+001
      vertex  1.000000e+000  0.000000e+000 -2.682444e+001
      vertex  9.022150e-001  7.597027e-001 -2.701022e+001
    endloop
  endfacet
  facet normal -9.833965e-001 -1.814178e-001 -4.345998e-003
    outer loop
      vertex  9.763747e-001  3.757577e-001 -2.776353e+001
      vertex  9.022150e-001  7.597027e-001 -2.701022e+001
      vertex  9.202256e-001  6.872281e-001 -2.806022e+001
    endloop
  endfacet
  facet normal -9.980294e-001 -6.274991e-002  0.000000e+000
    outer loop
      vertex  1.000000e+000  0.000000e+000 -2.926975e+001
      vertex  9.763747e-001  3.757577e-001 -2.917598e+001
      vertex  1.000000e+000 -3.399299e-015 -3.011507e+001
    endloop
  endfacet
  facet normal -9.669371e-001 -2.442249e-001  7.339567e-002
    outer loop
      vertex  1.000000e+000 -3.399299e-015 -3.011507e+001
      vertex  9.763747e-001  3.757577e-001 -2.917598e+001
      vertex  9.202256e-001  6.872281e-001 -2.887928e+001
    endloop
  endfacet
  facet normal -9.915341e-001 -1.295967e-001  8.062419e-003
    outer loop
      vertex  1.000000e+000 -3.399299e-015 -3.011507e+001
      vertex  9.202256e-001  6.872281e-001 -2.887928e+001
      vertex  9.022150e-001  7.597027e-001 -2.992929e+001
    endloop
  endfacet
  facet normal -8.594477e-001  5.112238e-001  0.000000e+000
    outer loop
      vertex  6.431481e-001 -1.419073e+000 -2.763710e+001
      vertex  6.431481e-001 -1.419073e+000 -2.930241e+001
      vertex  5.085725e-001 -1.645316e+000 -2.846975e+001
    endloop
  endfacet
  facet normal -9.691252e-001  2.465687e-001 -3.956942e-004
    outer loop
      vertex  8.913665e-001 -8.000000e-001 -2.846975e+001
      vertex  9.202256e-001 -6.872281e-001 -2.887928e+001
      vertex  9.022150e-001 -7.597027e-001 -2.992929e+001
    endloop
  endfacet
  facet normal -9.296739e-001  3.683691e-001  3.260399e-003
    outer loop
      vertex  8.913665e-001 -8.000000e-001 -2.846975e+001
      vertex  9.022150e-001 -7.597027e-001 -2.992929e+001
      vertex  6.431481e-001 -1.419073e+000 -2.930241e+001
    endloop
  endfacet
  facet normal -9.281718e-001  3.721520e-001  0.000000e+000
    outer loop
      vertex  8.913665e-001 -8.000000e-001 -2.846975e+001
      vertex  6.431481e-001 -1.419073e+000 -2.930241e+001
      vertex  6.431481e-001 -1.419073e+000 -2.763710e+001
    endloop
  endfacet
  facet normal -9.296740e-001  3.683691e-001 -3.260404e-003
    outer loop
      vertex  8.913665e-001 -8.000000e-001 -2.846975e+001
      vertex  6.431481e-001 -1.419073e+000 -2.763710e+001
      vertex  9.022150e-001 -7.597027e-001 -2.701022e+001
    endloop
  endfacet
  facet normal -9.691253e-001  2.465687e-001  3.956946e-004
    outer loop
      vertex  8.913665e-001 -8.000000e-001 -2.846975e+001
      vertex  9.022150e-001 -7.597027e-001 -2.701022e+001
      vertex  9.202256e-001 -6.872281e-001 -2.806022e+001
    endloop
  endfacet
  facet normal -9.918177e-001  1.276616e-001 -1.109658e-016
    outer loop
      vertex  9.022150e-001 -7.597027e-001 -2.701022e+001
      vertex  1.000000e+000  0.000000e+000 -2.682444e+001
      vertex  1.000000e+000 -7.347638e-016 -2.766975e+001
    endloop
  endfacet
  facet normal -9.952896e-001  7.720928e-002 -5.862932e-002
    outer loop
      vertex  9.022150e-001 -7.597027e-001 -2.701022e+001
      vertex  1.000000e+000 -7.347638e-016 -2.766975e+001
      vertex  9.763747e-001 -3.757577e-001 -2.776353e+001
    endloop
  endfacet
  facet normal -9.833965e-001  1.814178e-001 -4.345998e-003
    outer loop
      vertex  9.022150e-001 -7.597027e-001 -2.701022e+001
      vertex  9.763747e-001 -3.757577e-001 -2.776353e+001
      vertex  9.202256e-001 -6.872281e-001 -2.806022e+001
    endloop
  endfacet
  facet normal -9.833965e-001  1.814178e-001  4.345998e-003
    outer loop
      vertex  9.202256e-001 -6.872281e-001 -2.887928e+001
      vertex  9.763747e-001 -3.757577e-001 -2.917598e+001
      vertex  9.022150e-001 -7.597027e-001 -2.992929e+001
    endloop
  endfacet
  facet normal -9.952896e-001  7.720928e-002  5.862932e-002
    outer loop
      vertex  9.022150e-001 -7.597027e-001 -2.992929e+001
      vertex  9.763747e-001 -3.757577e-001 -2.917598e+001
      vertex  1.000000e+000  0.000000e+000 -2.926975e+001
    endloop
  endfacet
  facet normal -9.918177e-001  1.276616e-001 -5.133703e-016
    outer loop
      vertex  9.022150e-001 -7.597027e-001 -2.992929e+001
      vertex  1.000000e+000  0.000000e+000 -2.926975e+001
      vertex  1.000000e+000 -3.399299e-015 -3.011507e+001
    endloop
  endfacet
endsolid CATIA STL
