solid CATIA STL
  facet normal  0.000000e+000  0.000000e+000  1.000000e+000
    outer loop
      vertex  6.180340e-001  1.902113e+000  3.180000e+001
      vertex  2.449213e-016  4.000000e+000  3.180000e+001
      vertex -6.180340e-001  1.902113e+000  3.180000e+001
    endloop
  endfacet
  facet normal  0.000000e+000  0.000000e+000  1.000000e+000
    outer loop
      vertex -1.622942e-015 -4.000000e+000  3.180000e+001
      vertex -2.828427e+000 -2.828427e+000  3.180000e+001
      vertex -1.530734e+000 -3.695518e+000  3.180000e+001
    endloop
  endfacet
  facet normal  0.000000e+000  -0.000000e+000  1.000000e+000
    outer loop
      vertex -1.622942e-015 -4.000000e+000  3.180000e+001
      vertex  1.530734e+000 -3.695518e+000  3.180000e+001
      vertex  2.828427e+000 -2.828427e+000  3.180000e+001
    endloop
  endfacet
  facet normal  0.000000e+000  0.000000e+000  1.000000e+000
    outer loop
      vertex  1.530734e+000  3.695518e+000  3.180000e+001
      vertex  2.449213e-016  4.000000e+000  3.180000e+001
      vertex  2.828427e+000  2.828427e+000  3.180000e+001
    endloop
  endfacet
  facet normal  0.000000e+000  0.000000e+000  1.000000e+000
    outer loop
      vertex  2.828427e+000  2.828427e+000  3.180000e+001
      vertex  2.449213e-016  4.000000e+000  3.180000e+001
      vertex  6.180340e-001  1.902113e+000  3.180000e+001
    endloop
  endfacet
  facet normal  -0.000000e+000  0.000000e+000  1.000000e+000
    outer loop
      vertex  2.828427e+000  2.828427e+000  3.180000e+001
      vertex  6.180340e-001  1.902113e+000  3.180000e+001
      vertex  3.695518e+000  1.530734e+000  3.180000e+001
    endloop
  endfacet
  facet normal  0.000000e+000  0.000000e+000  1.000000e+000
    outer loop
      vertex  3.695518e+000  1.530734e+000  3.180000e+001
      vertex  6.180340e-001  1.902113e+000  3.180000e+001
      vertex  1.618034e+000  1.175570e+000  3.180000e+001
    endloop
  endfacet
  facet normal  -0.000000e+000  0.000000e+000  1.000000e+000
    outer loop
      vertex  3.695518e+000  1.530734e+000  3.180000e+001
      vertex  1.618034e+000  1.175570e+000  3.180000e+001
      vertex  4.000000e+000  0.000000e+000  3.180000e+001
    endloop
  endfacet
  facet normal  0.000000e+000  0.000000e+000  1.000000e+000
    outer loop
      vertex  4.000000e+000  0.000000e+000  3.180000e+001
      vertex  1.618034e+000  1.175570e+000  3.180000e+001
      vertex  2.000000e+000  0.000000e+000  3.180000e+001
    endloop
  endfacet
  facet normal  -0.000000e+000  0.000000e+000  1.000000e+000
    outer loop
      vertex  4.000000e+000  0.000000e+000  3.180000e+001
      vertex  2.000000e+000  0.000000e+000  3.180000e+001
      vertex  3.695518e+000 -1.530734e+000  3.180000e+001
    endloop
  endfacet
  facet normal  0.000000e+000  0.000000e+000  1.000000e+000
    outer loop
      vertex  3.695518e+000 -1.530734e+000  3.180000e+001
      vertex  2.000000e+000  0.000000e+000  3.180000e+001
      vertex  1.618034e+000 -1.175570e+000  3.180000e+001
    endloop
  endfacet
  facet normal  0.000000e+000  0.000000e+000  1.000000e+000
    outer loop
      vertex  3.695518e+000 -1.530734e+000  3.180000e+001
      vertex  1.618034e+000 -1.175570e+000  3.180000e+001
      vertex  2.828427e+000 -2.828427e+000  3.180000e+001
    endloop
  endfacet
  facet normal  0.000000e+000  0.000000e+000  9.999999e-001
    outer loop
      vertex  2.828427e+000 -2.828427e+000  3.180000e+001
      vertex  1.618034e+000 -1.175570e+000  3.180000e+001
      vertex  6.180340e-001 -1.902113e+000  3.180000e+001
    endloop
  endfacet
  facet normal  0.000000e+000  0.000000e+000  1.000000e+000
    outer loop
      vertex  2.828427e+000 -2.828427e+000  3.180000e+001
      vertex  6.180340e-001 -1.902113e+000  3.180000e+001
      vertex -1.622942e-015 -4.000000e+000  3.180000e+001
    endloop
  endfacet
  facet normal  0.000000e+000  -0.000000e+000  1.000000e+000
    outer loop
      vertex -1.622942e-015 -4.000000e+000  3.180000e+001
      vertex  6.180340e-001 -1.902113e+000  3.180000e+001
      vertex -6.180340e-001 -1.902113e+000  3.180000e+001
    endloop
  endfacet
  facet normal  0.000000e+000  0.000000e+000  1.000000e+000
    outer loop
      vertex -1.622942e-015 -4.000000e+000  3.180000e+001
      vertex -6.180340e-001 -1.902113e+000  3.180000e+001
      vertex -2.828427e+000 -2.828427e+000  3.180000e+001
    endloop
  endfacet
  facet normal  -0.000000e+000  0.000000e+000  1.000000e+000
    outer loop
      vertex  2.449213e-016  4.000000e+000  3.180000e+001
      vertex -1.530734e+000  3.695518e+000  3.180000e+001
      vertex -6.180340e-001  1.902113e+000  3.180000e+001
    endloop
  endfacet
  facet normal  0.000000e+000  0.000000e+000  1.000000e+000
    outer loop
      vertex -6.180340e-001  1.902113e+000  3.180000e+001
      vertex -1.530734e+000  3.695518e+000  3.180000e+001
      vertex -2.828427e+000  2.828427e+000  3.180000e+001
    endloop
  endfacet
  facet normal  0.000000e+000  0.000000e+000  9.999999e-001
    outer loop
      vertex -6.180340e-001  1.902113e+000  3.180000e+001
      vertex -2.828427e+000  2.828427e+000  3.180000e+001
      vertex -1.618034e+000  1.175570e+000  3.180000e+001
    endloop
  endfacet
  facet normal  0.000000e+000  0.000000e+000  1.000000e+000
    outer loop
      vertex -1.618034e+000  1.175570e+000  3.180000e+001
      vertex -2.828427e+000  2.828427e+000  3.180000e+001
      vertex -3.695518e+000  1.530734e+000  3.180000e+001
    endloop
  endfacet
  facet normal  0.000000e+000  0.000000e+000  1.000000e+000
    outer loop
      vertex -1.618034e+000  1.175570e+000  3.180000e+001
      vertex -3.695518e+000  1.530734e+000  3.180000e+001
      vertex -2.000000e+000 -1.087346e-015  3.180000e+001
    endloop
  endfacet
  facet normal  0.000000e+000  0.000000e+000  1.000000e+000
    outer loop
      vertex -2.000000e+000 -1.087346e-015  3.180000e+001
      vertex -3.695518e+000  1.530734e+000  3.180000e+001
      vertex -4.000000e+000  4.898425e-016  3.180000e+001
    endloop
  endfacet
  facet normal  0.000000e+000  0.000000e+000  1.000000e+000
    outer loop
      vertex -2.000000e+000 -1.087346e-015  3.180000e+001
      vertex -4.000000e+000  4.898425e-016  3.180000e+001
      vertex -1.618034e+000 -1.175570e+000  3.180000e+001
    endloop
  endfacet
  facet normal  0.000000e+000  0.000000e+000  1.000000e+000
    outer loop
      vertex -1.618034e+000 -1.175570e+000  3.180000e+001
      vertex -4.000000e+000  4.898425e-016  3.180000e+001
      vertex -3.695518e+000 -1.530734e+000  3.180000e+001
    endloop
  endfacet
  facet normal  -0.000000e+000  0.000000e+000  1.000000e+000
    outer loop
      vertex -1.618034e+000 -1.175570e+000  3.180000e+001
      vertex -3.695518e+000 -1.530734e+000  3.180000e+001
      vertex -6.180340e-001 -1.902113e+000  3.180000e+001
    endloop
  endfacet
  facet normal  0.000000e+000  0.000000e+000  1.000000e+000
    outer loop
      vertex -6.180340e-001 -1.902113e+000  3.180000e+001
      vertex -3.695518e+000 -1.530734e+000  3.180000e+001
      vertex -2.828427e+000 -2.828427e+000  3.180000e+001
    endloop
  endfacet
  facet normal  0.000000e+000  -0.000000e+000 -1.000000e+000
    outer loop
      vertex -6.180340e-001  1.902113e+000  3.100000e+001
      vertex  2.449213e-016  4.000000e+000  3.100000e+001
      vertex  6.180340e-001  1.902113e+000  3.100000e+001
    endloop
  endfacet
  facet normal  0.000000e+000  0.000000e+000 -1.000000e+000
    outer loop
      vertex -1.530734e+000 -3.695518e+000  3.100000e+001
      vertex -2.828427e+000 -2.828427e+000  3.100000e+001
      vertex -1.622942e-015 -4.000000e+000  3.100000e+001
    endloop
  endfacet
  facet normal  -0.000000e+000  0.000000e+000 -1.000000e+000
    outer loop
      vertex  2.828427e+000 -2.828427e+000  3.100000e+001
      vertex  1.530734e+000 -3.695518e+000  3.100000e+001
      vertex -1.622942e-015 -4.000000e+000  3.100000e+001
    endloop
  endfacet
  facet normal  0.000000e+000  -0.000000e+000 -1.000000e+000
    outer loop
      vertex -2.828427e+000 -2.828427e+000  3.100000e+001
      vertex -6.180340e-001 -1.902113e+000  3.100000e+001
      vertex -1.622942e-015 -4.000000e+000  3.100000e+001
    endloop
  endfacet
  facet normal  0.000000e+000  0.000000e+000 -1.000000e+000
    outer loop
      vertex -1.622942e-015 -4.000000e+000  3.100000e+001
      vertex -6.180340e-001 -1.902113e+000  3.100000e+001
      vertex  6.180340e-001 -1.902113e+000  3.100000e+001
    endloop
  endfacet
  facet normal  0.000000e+000  -0.000000e+000 -1.000000e+000
    outer loop
      vertex -1.622942e-015 -4.000000e+000  3.100000e+001
      vertex  6.180340e-001 -1.902113e+000  3.100000e+001
      vertex  2.828427e+000 -2.828427e+000  3.100000e+001
    endloop
  endfacet
  facet normal  0.000000e+000  0.000000e+000 -9.999999e-001
    outer loop
      vertex  2.828427e+000 -2.828427e+000  3.100000e+001
      vertex  6.180340e-001 -1.902113e+000  3.100000e+001
      vertex  1.618034e+000 -1.175570e+000  3.100000e+001
    endloop
  endfacet
  facet normal  0.000000e+000  0.000000e+000 -1.000000e+000
    outer loop
      vertex  2.828427e+000 -2.828427e+000  3.100000e+001
      vertex  1.618034e+000 -1.175570e+000  3.100000e+001
      vertex  3.695518e+000 -1.530734e+000  3.100000e+001
    endloop
  endfacet
  facet normal  0.000000e+000  0.000000e+000 -1.000000e+000
    outer loop
      vertex  3.695518e+000 -1.530734e+000  3.100000e+001
      vertex  1.618034e+000 -1.175570e+000  3.100000e+001
      vertex  2.000000e+000  8.424251e-016  3.100000e+001
    endloop
  endfacet
  facet normal  0.000000e+000  0.000000e+000 -1.000000e+000
    outer loop
      vertex  3.695518e+000 -1.530734e+000  3.100000e+001
      vertex  2.000000e+000  8.424251e-016  3.100000e+001
      vertex  4.000000e+000  0.000000e+000  3.100000e+001
    endloop
  endfacet
  facet normal  0.000000e+000  0.000000e+000 -1.000000e+000
    outer loop
      vertex  4.000000e+000  0.000000e+000  3.100000e+001
      vertex  2.000000e+000  8.424251e-016  3.100000e+001
      vertex  1.618034e+000  1.175570e+000  3.100000e+001
    endloop
  endfacet
  facet normal  0.000000e+000  0.000000e+000 -1.000000e+000
    outer loop
      vertex  4.000000e+000  0.000000e+000  3.100000e+001
      vertex  1.618034e+000  1.175570e+000  3.100000e+001
      vertex  3.695518e+000  1.530734e+000  3.100000e+001
    endloop
  endfacet
  facet normal  -0.000000e+000  0.000000e+000 -1.000000e+000
    outer loop
      vertex  3.695518e+000  1.530734e+000  3.100000e+001
      vertex  1.618034e+000  1.175570e+000  3.100000e+001
      vertex  6.180340e-001  1.902113e+000  3.100000e+001
    endloop
  endfacet
  facet normal  0.000000e+000  0.000000e+000 -1.000000e+000
    outer loop
      vertex  3.695518e+000  1.530734e+000  3.100000e+001
      vertex  6.180340e-001  1.902113e+000  3.100000e+001
      vertex  2.828427e+000  2.828427e+000  3.100000e+001
    endloop
  endfacet
  facet normal  -0.000000e+000  0.000000e+000 -1.000000e+000
    outer loop
      vertex  2.828427e+000  2.828427e+000  3.100000e+001
      vertex  6.180340e-001  1.902113e+000  3.100000e+001
      vertex  2.449213e-016  4.000000e+000  3.100000e+001
    endloop
  endfacet
  facet normal  0.000000e+000  0.000000e+000 -1.000000e+000
    outer loop
      vertex  2.828427e+000  2.828427e+000  3.100000e+001
      vertex  2.449213e-016  4.000000e+000  3.100000e+001
      vertex  1.530734e+000  3.695518e+000  3.100000e+001
    endloop
  endfacet
  facet normal  0.000000e+000  0.000000e+000 -9.999999e-001
    outer loop
      vertex -1.618034e+000  1.175570e+000  3.100000e+001
      vertex -2.828427e+000  2.828427e+000  3.100000e+001
      vertex -6.180340e-001  1.902113e+000  3.100000e+001
    endloop
  endfacet
  facet normal  0.000000e+000  0.000000e+000 -1.000000e+000
    outer loop
      vertex -6.180340e-001  1.902113e+000  3.100000e+001
      vertex -2.828427e+000  2.828427e+000  3.100000e+001
      vertex -1.530734e+000  3.695518e+000  3.100000e+001
    endloop
  endfacet
  facet normal  0.000000e+000  0.000000e+000 -1.000000e+000
    outer loop
      vertex -6.180340e-001  1.902113e+000  3.100000e+001
      vertex -1.530734e+000  3.695518e+000  3.100000e+001
      vertex  2.449213e-016  4.000000e+000  3.100000e+001
    endloop
  endfacet
  facet normal  0.000000e+000  0.000000e+000 -1.000000e+000
    outer loop
      vertex -2.828427e+000  2.828427e+000  3.100000e+001
      vertex -1.618034e+000  1.175570e+000  3.100000e+001
      vertex -3.695518e+000  1.530734e+000  3.100000e+001
    endloop
  endfacet
  facet normal  0.000000e+000  0.000000e+000 -1.000000e+000
    outer loop
      vertex -3.695518e+000  1.530734e+000  3.100000e+001
      vertex -1.618034e+000  1.175570e+000  3.100000e+001
      vertex -2.000000e+000  2.449213e-016  3.100000e+001
    endloop
  endfacet
  facet normal  0.000000e+000  0.000000e+000 -1.000000e+000
    outer loop
      vertex -3.695518e+000  1.530734e+000  3.100000e+001
      vertex -2.000000e+000  2.449213e-016  3.100000e+001
      vertex -4.000000e+000  4.898425e-016  3.100000e+001
    endloop
  endfacet
  facet normal  0.000000e+000  0.000000e+000 -1.000000e+000
    outer loop
      vertex -4.000000e+000  4.898425e-016  3.100000e+001
      vertex -2.000000e+000  2.449213e-016  3.100000e+001
      vertex -1.618034e+000 -1.175570e+000  3.100000e+001
    endloop
  endfacet
  facet normal  -0.000000e+000  0.000000e+000 -1.000000e+000
    outer loop
      vertex -4.000000e+000  4.898425e-016  3.100000e+001
      vertex -1.618034e+000 -1.175570e+000  3.100000e+001
      vertex -3.695518e+000 -1.530734e+000  3.100000e+001
    endloop
  endfacet
  facet normal  0.000000e+000  0.000000e+000 -1.000000e+000
    outer loop
      vertex -3.695518e+000 -1.530734e+000  3.100000e+001
      vertex -1.618034e+000 -1.175570e+000  3.100000e+001
      vertex -6.180340e-001 -1.902113e+000  3.100000e+001
    endloop
  endfacet
  facet normal  -0.000000e+000  0.000000e+000 -1.000000e+000
    outer loop
      vertex -3.695518e+000 -1.530734e+000  3.100000e+001
      vertex -6.180340e-001 -1.902113e+000  3.100000e+001
      vertex -2.828427e+000 -2.828427e+000  3.100000e+001
    endloop
  endfacet
  facet normal  5.877853e-001 -8.090170e-001  0.000000e+000
    outer loop
      vertex -6.180340e-001  1.902113e+000  3.100000e+001
      vertex -1.618034e+000  1.175570e+000  3.180000e+001
      vertex -1.618034e+000  1.175570e+000  3.100000e+001
    endloop
  endfacet
  facet normal  9.510565e-001 -3.090170e-001  0.000000e+000
    outer loop
      vertex -1.618034e+000  1.175570e+000  3.100000e+001
      vertex -1.618034e+000  1.175570e+000  3.180000e+001
      vertex -2.000000e+000 -1.087346e-015  3.180000e+001
    endloop
  endfacet
  facet normal  9.510565e-001 -3.090170e-001 -5.146171e-016
    outer loop
      vertex -1.618034e+000  1.175570e+000  3.100000e+001
      vertex -2.000000e+000 -1.087346e-015  3.180000e+001
      vertex -2.000000e+000  2.449213e-016  3.100000e+001
    endloop
  endfacet
  facet normal  5.877853e-001 -8.090170e-001  0.000000e+000
    outer loop
      vertex -1.618034e+000  1.175570e+000  3.180000e+001
      vertex -6.180340e-001  1.902113e+000  3.100000e+001
      vertex -6.180340e-001  1.902113e+000  3.180000e+001
    endloop
  endfacet
  facet normal  0.000000e+000 -1.000000e+000  0.000000e+000
    outer loop
      vertex -6.180340e-001  1.902113e+000  3.180000e+001
      vertex -6.180340e-001  1.902113e+000  3.100000e+001
      vertex  6.180340e-001  1.902113e+000  3.100000e+001
    endloop
  endfacet
  facet normal  0.000000e+000 -1.000000e+000  0.000000e+000
    outer loop
      vertex -6.180340e-001  1.902113e+000  3.180000e+001
      vertex  6.180340e-001  1.902113e+000  3.100000e+001
      vertex  6.180340e-001  1.902113e+000  3.180000e+001
    endloop
  endfacet
  facet normal -5.877853e-001 -8.090170e-001  -0.000000e+000
    outer loop
      vertex  6.180340e-001  1.902113e+000  3.180000e+001
      vertex  6.180340e-001  1.902113e+000  3.100000e+001
      vertex  1.618034e+000  1.175570e+000  3.100000e+001
    endloop
  endfacet
  facet normal -5.877853e-001 -8.090170e-001  0.000000e+000
    outer loop
      vertex  6.180340e-001  1.902113e+000  3.180000e+001
      vertex  1.618034e+000  1.175570e+000  3.100000e+001
      vertex  1.618034e+000  1.175570e+000  3.180000e+001
    endloop
  endfacet
  facet normal -9.510565e-001 -3.090170e-001  -0.000000e+000
    outer loop
      vertex  1.618034e+000  1.175570e+000  3.180000e+001
      vertex  1.618034e+000  1.175570e+000  3.100000e+001
      vertex  2.000000e+000  8.424251e-016  3.100000e+001
    endloop
  endfacet
  facet normal -9.510565e-001 -3.090170e-001 -3.254049e-016
    outer loop
      vertex  1.618034e+000  1.175570e+000  3.180000e+001
      vertex  2.000000e+000  8.424251e-016  3.100000e+001
      vertex  2.000000e+000  0.000000e+000  3.180000e+001
    endloop
  endfacet
  facet normal -5.877853e-001  8.090170e-001  0.000000e+000
    outer loop
      vertex  6.180340e-001 -1.902113e+000  3.100000e+001
      vertex  1.618034e+000 -1.175570e+000  3.180000e+001
      vertex  1.618034e+000 -1.175570e+000  3.100000e+001
    endloop
  endfacet
  facet normal -9.510565e-001  3.090170e-001  0.000000e+000
    outer loop
      vertex  1.618034e+000 -1.175570e+000  3.100000e+001
      vertex  1.618034e+000 -1.175570e+000  3.180000e+001
      vertex  2.000000e+000  0.000000e+000  3.180000e+001
    endloop
  endfacet
  facet normal -9.510565e-001  3.090170e-001  3.254049e-016
    outer loop
      vertex  1.618034e+000 -1.175570e+000  3.100000e+001
      vertex  2.000000e+000  0.000000e+000  3.180000e+001
      vertex  2.000000e+000  8.424251e-016  3.100000e+001
    endloop
  endfacet
  facet normal -5.877853e-001  8.090170e-001  0.000000e+000
    outer loop
      vertex  1.618034e+000 -1.175570e+000  3.180000e+001
      vertex  6.180340e-001 -1.902113e+000  3.100000e+001
      vertex  6.180340e-001 -1.902113e+000  3.180000e+001
    endloop
  endfacet
  facet normal  0.000000e+000  1.000000e+000  0.000000e+000
    outer loop
      vertex  6.180340e-001 -1.902113e+000  3.180000e+001
      vertex  6.180340e-001 -1.902113e+000  3.100000e+001
      vertex -6.180340e-001 -1.902113e+000  3.100000e+001
    endloop
  endfacet
  facet normal  0.000000e+000  1.000000e+000  0.000000e+000
    outer loop
      vertex  6.180340e-001 -1.902113e+000  3.180000e+001
      vertex -6.180340e-001 -1.902113e+000  3.100000e+001
      vertex -6.180340e-001 -1.902113e+000  3.180000e+001
    endloop
  endfacet
  facet normal  5.877853e-001  8.090170e-001  0.000000e+000
    outer loop
      vertex -6.180340e-001 -1.902113e+000  3.180000e+001
      vertex -6.180340e-001 -1.902113e+000  3.100000e+001
      vertex -1.618034e+000 -1.175570e+000  3.100000e+001
    endloop
  endfacet
  facet normal  5.877853e-001  8.090170e-001  -0.000000e+000
    outer loop
      vertex -6.180340e-001 -1.902113e+000  3.180000e+001
      vertex -1.618034e+000 -1.175570e+000  3.100000e+001
      vertex -1.618034e+000 -1.175570e+000  3.180000e+001
    endloop
  endfacet
  facet normal  9.510565e-001  3.090170e-001  0.000000e+000
    outer loop
      vertex -1.618034e+000 -1.175570e+000  3.180000e+001
      vertex -1.618034e+000 -1.175570e+000  3.100000e+001
      vertex -2.000000e+000  2.449213e-016  3.100000e+001
    endloop
  endfacet
  facet normal  9.510565e-001  3.090170e-001  5.146171e-016
    outer loop
      vertex -1.618034e+000 -1.175570e+000  3.180000e+001
      vertex -2.000000e+000  2.449213e-016  3.100000e+001
      vertex -2.000000e+000 -1.087346e-015  3.180000e+001
    endloop
  endfacet
  facet normal  9.807853e-001 -1.950904e-001  0.000000e+000
    outer loop
      vertex  4.000000e+000  0.000000e+000  3.100000e+001
      vertex  4.000000e+000  0.000000e+000  3.180000e+001
      vertex  3.695518e+000 -1.530734e+000  3.100000e+001
    endloop
  endfacet
  facet normal  9.807853e-001 -1.950904e-001  0.000000e+000
    outer loop
      vertex  3.695518e+000 -1.530734e+000  3.100000e+001
      vertex  4.000000e+000  0.000000e+000  3.180000e+001
      vertex  3.695518e+000 -1.530734e+000  3.180000e+001
    endloop
  endfacet
  facet normal  8.314696e-001 -5.555702e-001  0.000000e+000
    outer loop
      vertex  3.695518e+000 -1.530734e+000  3.100000e+001
      vertex  3.695518e+000 -1.530734e+000  3.180000e+001
      vertex  2.828427e+000 -2.828427e+000  3.100000e+001
    endloop
  endfacet
  facet normal  8.314696e-001 -5.555702e-001  0.000000e+000
    outer loop
      vertex  2.828427e+000 -2.828427e+000  3.100000e+001
      vertex  3.695518e+000 -1.530734e+000  3.180000e+001
      vertex  2.828427e+000 -2.828427e+000  3.180000e+001
    endloop
  endfacet
  facet normal  5.555702e-001 -8.314696e-001  0.000000e+000
    outer loop
      vertex  2.828427e+000 -2.828427e+000  3.100000e+001
      vertex  2.828427e+000 -2.828427e+000  3.180000e+001
      vertex  1.530734e+000 -3.695518e+000  3.100000e+001
    endloop
  endfacet
  facet normal  5.555702e-001 -8.314696e-001  0.000000e+000
    outer loop
      vertex  1.530734e+000 -3.695518e+000  3.100000e+001
      vertex  2.828427e+000 -2.828427e+000  3.180000e+001
      vertex  1.530734e+000 -3.695518e+000  3.180000e+001
    endloop
  endfacet
  facet normal  1.950904e-001 -9.807853e-001  0.000000e+000
    outer loop
      vertex  1.530734e+000 -3.695518e+000  3.100000e+001
      vertex  1.530734e+000 -3.695518e+000  3.180000e+001
      vertex -1.622942e-015 -4.000000e+000  3.100000e+001
    endloop
  endfacet
  facet normal  1.950904e-001 -9.807853e-001  0.000000e+000
    outer loop
      vertex -1.622942e-015 -4.000000e+000  3.100000e+001
      vertex  1.530734e+000 -3.695518e+000  3.180000e+001
      vertex -1.622942e-015 -4.000000e+000  3.180000e+001
    endloop
  endfacet
  facet normal -1.950904e-001 -9.807853e-001  -0.000000e+000
    outer loop
      vertex -1.622942e-015 -4.000000e+000  3.100000e+001
      vertex -1.622942e-015 -4.000000e+000  3.180000e+001
      vertex -1.530734e+000 -3.695518e+000  3.100000e+001
    endloop
  endfacet
  facet normal -1.950904e-001 -9.807853e-001  0.000000e+000
    outer loop
      vertex -1.530734e+000 -3.695518e+000  3.100000e+001
      vertex -1.622942e-015 -4.000000e+000  3.180000e+001
      vertex -1.530734e+000 -3.695518e+000  3.180000e+001
    endloop
  endfacet
  facet normal -5.555702e-001 -8.314696e-001  -0.000000e+000
    outer loop
      vertex -1.530734e+000 -3.695518e+000  3.100000e+001
      vertex -1.530734e+000 -3.695518e+000  3.180000e+001
      vertex -2.828427e+000 -2.828427e+000  3.100000e+001
    endloop
  endfacet
  facet normal -5.555702e-001 -8.314696e-001  0.000000e+000
    outer loop
      vertex -2.828427e+000 -2.828427e+000  3.100000e+001
      vertex -1.530734e+000 -3.695518e+000  3.180000e+001
      vertex -2.828427e+000 -2.828427e+000  3.180000e+001
    endloop
  endfacet
  facet normal -8.314696e-001 -5.555702e-001  -0.000000e+000
    outer loop
      vertex -2.828427e+000 -2.828427e+000  3.100000e+001
      vertex -2.828427e+000 -2.828427e+000  3.180000e+001
      vertex -3.695518e+000 -1.530734e+000  3.100000e+001
    endloop
  endfacet
  facet normal -8.314696e-001 -5.555702e-001  0.000000e+000
    outer loop
      vertex -3.695518e+000 -1.530734e+000  3.100000e+001
      vertex -2.828427e+000 -2.828427e+000  3.180000e+001
      vertex -3.695518e+000 -1.530734e+000  3.180000e+001
    endloop
  endfacet
  facet normal -9.807853e-001 -1.950904e-001  -0.000000e+000
    outer loop
      vertex -3.695518e+000 -1.530734e+000  3.100000e+001
      vertex -3.695518e+000 -1.530734e+000  3.180000e+001
      vertex -4.000000e+000  4.898425e-016  3.100000e+001
    endloop
  endfacet
  facet normal -9.807853e-001 -1.950904e-001  0.000000e+000
    outer loop
      vertex -4.000000e+000  4.898425e-016  3.100000e+001
      vertex -3.695518e+000 -1.530734e+000  3.180000e+001
      vertex -4.000000e+000  4.898425e-016  3.180000e+001
    endloop
  endfacet
  facet normal -9.807853e-001  1.950904e-001  0.000000e+000
    outer loop
      vertex -4.000000e+000  4.898425e-016  3.100000e+001
      vertex -4.000000e+000  4.898425e-016  3.180000e+001
      vertex -3.695518e+000  1.530734e+000  3.100000e+001
    endloop
  endfacet
  facet normal -9.807853e-001  1.950904e-001  0.000000e+000
    outer loop
      vertex -3.695518e+000  1.530734e+000  3.100000e+001
      vertex -4.000000e+000  4.898425e-016  3.180000e+001
      vertex -3.695518e+000  1.530734e+000  3.180000e+001
    endloop
  endfacet
  facet normal -8.314696e-001  5.555702e-001  0.000000e+000
    outer loop
      vertex -3.695518e+000  1.530734e+000  3.100000e+001
      vertex -3.695518e+000  1.530734e+000  3.180000e+001
      vertex -2.828427e+000  2.828427e+000  3.100000e+001
    endloop
  endfacet
  facet normal -8.314696e-001  5.555702e-001  0.000000e+000
    outer loop
      vertex -2.828427e+000  2.828427e+000  3.100000e+001
      vertex -3.695518e+000  1.530734e+000  3.180000e+001
      vertex -2.828427e+000  2.828427e+000  3.180000e+001
    endloop
  endfacet
  facet normal -5.555702e-001  8.314696e-001  0.000000e+000
    outer loop
      vertex -2.828427e+000  2.828427e+000  3.100000e+001
      vertex -2.828427e+000  2.828427e+000  3.180000e+001
      vertex -1.530734e+000  3.695518e+000  3.100000e+001
    endloop
  endfacet
  facet normal -5.555702e-001  8.314696e-001  0.000000e+000
    outer loop
      vertex -1.530734e+000  3.695518e+000  3.100000e+001
      vertex -2.828427e+000  2.828427e+000  3.180000e+001
      vertex -1.530734e+000  3.695518e+000  3.180000e+001
    endloop
  endfacet
  facet normal -1.950904e-001  9.807853e-001  0.000000e+000
    outer loop
      vertex -1.530734e+000  3.695518e+000  3.100000e+001
      vertex -1.530734e+000  3.695518e+000  3.180000e+001
      vertex  2.449213e-016  4.000000e+000  3.100000e+001
    endloop
  endfacet
  facet normal -1.950904e-001  9.807853e-001  0.000000e+000
    outer loop
      vertex  2.449213e-016  4.000000e+000  3.100000e+001
      vertex -1.530734e+000  3.695518e+000  3.180000e+001
      vertex  2.449213e-016  4.000000e+000  3.180000e+001
    endloop
  endfacet
  facet normal  1.950904e-001  9.807853e-001  0.000000e+000
    outer loop
      vertex  2.449213e-016  4.000000e+000  3.100000e+001
      vertex  2.449213e-016  4.000000e+000  3.180000e+001
      vertex  1.530734e+000  3.695518e+000  3.100000e+001
    endloop
  endfacet
  facet normal  1.950904e-001  9.807853e-001  -0.000000e+000
    outer loop
      vertex  1.530734e+000  3.695518e+000  3.100000e+001
      vertex  2.449213e-016  4.000000e+000  3.180000e+001
      vertex  1.530734e+000  3.695518e+000  3.180000e+001
    endloop
  endfacet
  facet normal  5.555702e-001  8.314696e-001  0.000000e+000
    outer loop
      vertex  1.530734e+000  3.695518e+000  3.100000e+001
      vertex  1.530734e+000  3.695518e+000  3.180000e+001
      vertex  2.828427e+000  2.828427e+000  3.100000e+001
    endloop
  endfacet
  facet normal  5.555702e-001  8.314696e-001  -0.000000e+000
    outer loop
      vertex  2.828427e+000  2.828427e+000  3.100000e+001
      vertex  1.530734e+000  3.695518e+000  3.180000e+001
      vertex  2.828427e+000  2.828427e+000  3.180000e+001
    endloop
  endfacet
  facet normal  8.314696e-001  5.555702e-001  0.000000e+000
    outer loop
      vertex  2.828427e+000  2.828427e+000  3.100000e+001
      vertex  2.828427e+000  2.828427e+000  3.180000e+001
      vertex  3.695518e+000  1.530734e+000  3.100000e+001
    endloop
  endfacet
  facet normal  8.314696e-001  5.555702e-001  -0.000000e+000
    outer loop
      vertex  3.695518e+000  1.530734e+000  3.100000e+001
      vertex  2.828427e+000  2.828427e+000  3.180000e+001
      vertex  3.695518e+000  1.530734e+000  3.180000e+001
    endloop
  endfacet
  facet normal  9.807853e-001  1.950904e-001  0.000000e+000
    outer loop
      vertex  3.695518e+000  1.530734e+000  3.100000e+001
      vertex  3.695518e+000  1.530734e+000  3.180000e+001
      vertex  4.000000e+000  0.000000e+000  3.100000e+001
    endloop
  endfacet
  facet normal  9.807853e-001  1.950904e-001  -0.000000e+000
    outer loop
      vertex  4.000000e+000  0.000000e+000  3.100000e+001
      vertex  3.695518e+000  1.530734e+000  3.180000e+001
      vertex  4.000000e+000  0.000000e+000  3.180000e+001
    endloop
  endfacet
endsolid CATIA STL
