solid CATIA STL
  facet normal -3.665259e-001 -8.848703e-001  2.875123e-001
    outer loop
      vertex -3.800000e+000 -1.645316e+000 -2.846975e+001
      vertex -3.800000e+000 -1.331088e+000 -2.750266e+001
      vertex -3.941421e+000 -1.586737e+000 -2.846975e+001
    endloop
  endfacet
  facet normal -3.665255e-001 -8.848705e-001  2.875123e-001
    outer loop
      vertex -3.941421e+000 -1.586737e+000 -2.846975e+001
      vertex -3.800000e+000 -1.331088e+000 -2.750266e+001
      vertex -3.941421e+000 -1.283697e+000 -2.753709e+001
    endloop
  endfacet
  facet normal -9.168190e-001 -3.797596e-001  1.233916e-001
    outer loop
      vertex -3.941421e+000 -1.586737e+000 -2.846975e+001
      vertex -3.941421e+000 -1.283697e+000 -2.753709e+001
      vertex -4.000000e+000 -1.445316e+000 -2.846975e+001
    endloop
  endfacet
  facet normal -9.168188e-001 -3.797600e-001  1.233916e-001
    outer loop
      vertex -4.000000e+000 -1.445316e+000 -2.846975e+001
      vertex -3.941421e+000 -1.283697e+000 -2.753709e+001
      vertex -4.000000e+000 -1.169285e+000 -2.762022e+001
    endloop
  endfacet
  facet normal -3.665255e-001  8.848705e-001  2.875124e-001
    outer loop
      vertex -3.800000e+000  1.331088e+000 -2.750266e+001
      vertex -3.800000e+000  1.645316e+000 -2.846975e+001
      vertex -3.941421e+000  1.283697e+000 -2.753709e+001
    endloop
  endfacet
  facet normal -3.665259e-001  8.848704e-001  2.875122e-001
    outer loop
      vertex -3.941421e+000  1.283697e+000 -2.753709e+001
      vertex -3.800000e+000  1.645316e+000 -2.846975e+001
      vertex -3.941421e+000  1.586737e+000 -2.846975e+001
    endloop
  endfacet
  facet normal -9.168187e-001  3.797605e-001  1.233919e-001
    outer loop
      vertex -3.941421e+000  1.283697e+000 -2.753709e+001
      vertex -3.941421e+000  1.586737e+000 -2.846975e+001
      vertex -4.000000e+000  1.169285e+000 -2.762022e+001
    endloop
  endfacet
  facet normal -9.168191e-001  3.797596e-001  1.233914e-001
    outer loop
      vertex -4.000000e+000  1.169285e+000 -2.762022e+001
      vertex -3.941421e+000  1.586737e+000 -2.846975e+001
      vertex -4.000000e+000  1.445316e+000 -2.846975e+001
    endloop
  endfacet
  facet normal -3.665262e-001  5.468802e-001  7.527155e-001
    outer loop
      vertex -3.800000e+000  5.084305e-001 -2.690497e+001
      vertex -3.800000e+000  1.331088e+000 -2.750266e+001
      vertex -3.941421e+000  4.903287e-001 -2.696068e+001
    endloop
  endfacet
  facet normal -3.665248e-001  5.468803e-001  7.527161e-001
    outer loop
      vertex -3.941421e+000  4.903287e-001 -2.696068e+001
      vertex -3.800000e+000  1.331088e+000 -2.750266e+001
      vertex -3.941421e+000  1.283697e+000 -2.753709e+001
    endloop
  endfacet
  facet normal -9.168181e-001  2.347057e-001  3.230447e-001
    outer loop
      vertex -3.941421e+000  4.903287e-001 -2.696068e+001
      vertex -3.941421e+000  1.283697e+000 -2.753709e+001
      vertex -4.000000e+000  4.466273e-001 -2.709518e+001
    endloop
  endfacet
  facet normal -9.168180e-001  2.347058e-001  3.230449e-001
    outer loop
      vertex -4.000000e+000  4.466273e-001 -2.709518e+001
      vertex -3.941421e+000  1.283697e+000 -2.753709e+001
      vertex -4.000000e+000  1.169285e+000 -2.762022e+001
    endloop
  endfacet
  facet normal -3.665263e-001  0.000000e+000  9.304076e-001
    outer loop
      vertex -3.800000e+000 -5.084305e-001 -2.690497e+001
      vertex -3.800000e+000  5.084305e-001 -2.690497e+001
      vertex -3.941421e+000 -4.903287e-001 -2.696068e+001
    endloop
  endfacet
  facet normal -3.665263e-001  0.000000e+000  9.304076e-001
    outer loop
      vertex -3.941421e+000 -4.903287e-001 -2.696068e+001
      vertex -3.800000e+000  5.084305e-001 -2.690497e+001
      vertex -3.941421e+000  4.903287e-001 -2.696068e+001
    endloop
  endfacet
  facet normal -9.168179e-001  0.000000e+000  3.993055e-001
    outer loop
      vertex -3.941421e+000 -4.903287e-001 -2.696068e+001
      vertex -3.941421e+000  4.903287e-001 -2.696068e+001
      vertex -4.000000e+000 -4.466269e-001 -2.709518e+001
    endloop
  endfacet
  facet normal -9.168180e-001  0.000000e+000  3.993055e-001
    outer loop
      vertex -4.000000e+000 -4.466269e-001 -2.709518e+001
      vertex -3.941421e+000  4.903287e-001 -2.696068e+001
      vertex -4.000000e+000  4.466273e-001 -2.709518e+001
    endloop
  endfacet
  facet normal -3.665248e-001 -5.468805e-001  7.527160e-001
    outer loop
      vertex -3.800000e+000 -1.331088e+000 -2.750266e+001
      vertex -3.800000e+000 -5.084305e-001 -2.690497e+001
      vertex -3.941421e+000 -1.283697e+000 -2.753709e+001
    endloop
  endfacet
  facet normal -3.665262e-001 -5.468799e-001  7.527156e-001
    outer loop
      vertex -3.941421e+000 -1.283697e+000 -2.753709e+001
      vertex -3.800000e+000 -5.084305e-001 -2.690497e+001
      vertex -3.941421e+000 -4.903287e-001 -2.696068e+001
    endloop
  endfacet
  facet normal -9.168181e-001 -2.347056e-001  3.230445e-001
    outer loop
      vertex -3.941421e+000 -1.283697e+000 -2.753709e+001
      vertex -3.941421e+000 -4.903287e-001 -2.696068e+001
      vertex -4.000000e+000 -1.169285e+000 -2.762022e+001
    endloop
  endfacet
  facet normal -9.168183e-001 -2.347053e-001  3.230442e-001
    outer loop
      vertex -4.000000e+000 -1.169285e+000 -2.762022e+001
      vertex -3.941421e+000 -4.903287e-001 -2.696068e+001
      vertex -4.000000e+000 -4.466269e-001 -2.709518e+001
    endloop
  endfacet
  facet normal -3.665260e-001  8.848705e-001 -2.875118e-001
    outer loop
      vertex -3.800000e+000  1.645316e+000 -2.846975e+001
      vertex -3.800000e+000  1.331088e+000 -2.943685e+001
      vertex -3.941421e+000  1.586737e+000 -2.846975e+001
    endloop
  endfacet
  facet normal -3.665254e-001  8.848706e-001 -2.875118e-001
    outer loop
      vertex -3.941421e+000  1.586737e+000 -2.846975e+001
      vertex -3.800000e+000  1.331088e+000 -2.943685e+001
      vertex -3.941421e+000  1.283697e+000 -2.940241e+001
    endloop
  endfacet
  facet normal -9.168190e-001  3.797596e-001 -1.233913e-001
    outer loop
      vertex -3.941421e+000  1.586737e+000 -2.846975e+001
      vertex -3.941421e+000  1.283697e+000 -2.940241e+001
      vertex -4.000000e+000  1.445316e+000 -2.846975e+001
    endloop
  endfacet
  facet normal -9.168187e-001  3.797604e-001 -1.233914e-001
    outer loop
      vertex -4.000000e+000  1.445316e+000 -2.846975e+001
      vertex -3.941421e+000  1.283697e+000 -2.940241e+001
      vertex -4.000000e+000  1.169285e+000 -2.931929e+001
    endloop
  endfacet
  facet normal -6.336701e-001 -7.357407e-001 -2.390563e-001
    outer loop
      vertex -3.941421e+000 -1.283697e+000 -2.940241e+001
      vertex -3.800000e+000 -1.465575e+000 -2.921752e+001
      vertex -3.941421e+000 -1.586737e+000 -2.846975e+001
    endloop
  endfacet
  facet normal -1.536645e-001  1.551147e-001 -9.758722e-001
    outer loop
      vertex -3.941421e+000  4.903286e-001 -2.997883e+001
      vertex -3.800000e+000  6.697626e-001 -2.997258e+001
      vertex -3.800000e+000 -1.707794e-001 -3.010618e+001
    endloop
  endfacet
  facet normal -6.691754e-001  0.000000e+000 -7.431045e-001
    outer loop
      vertex -3.941421e+000  4.903286e-001 -2.997883e+001
      vertex -3.800000e+000 -1.707794e-001 -3.010618e+001
      vertex -3.941421e+000 -4.903290e-001 -2.997883e+001
    endloop
  endfacet
  facet normal -3.735830e-001 -9.019075e-001 -2.167917e-001
    outer loop
      vertex -3.800000e+000 -1.645316e+000 -2.846975e+001
      vertex -3.941421e+000 -1.586737e+000 -2.846975e+001
      vertex -3.800000e+000 -1.465575e+000 -2.921752e+001
    endloop
  endfacet
  facet normal -1.263125e-001 -7.537828e-001 -6.448694e-001
    outer loop
      vertex -3.800000e+000 -9.656240e-001 -2.980191e+001
      vertex -3.800000e+000 -1.465575e+000 -2.921752e+001
      vertex -3.941421e+000 -1.283697e+000 -2.940241e+001
    endloop
  endfacet
  facet normal -6.937874e-001 -4.233111e-001 -5.826377e-001
    outer loop
      vertex -3.800000e+000 -9.656240e-001 -2.980191e+001
      vertex -3.941421e+000 -1.283697e+000 -2.940241e+001
      vertex -3.941421e+000 -4.903290e-001 -2.997883e+001
    endloop
  endfacet
  facet normal -3.316777e-002 -3.573123e-001 -9.333959e-001
    outer loop
      vertex -3.800000e+000 -9.656240e-001 -2.980191e+001
      vertex -3.941421e+000 -4.903290e-001 -2.997883e+001
      vertex -3.800000e+000 -1.707794e-001 -3.010618e+001
    endloop
  endfacet
  facet normal -3.714855e-001  5.844180e-001 -7.214251e-001
    outer loop
      vertex -3.800000e+000  1.331088e+000 -2.943685e+001
      vertex -3.800000e+000  6.697626e-001 -2.997258e+001
      vertex -3.941421e+000  1.283697e+000 -2.940241e+001
    endloop
  endfacet
  facet normal -5.789270e-001  4.792678e-001 -6.596557e-001
    outer loop
      vertex -3.941421e+000  1.283697e+000 -2.940241e+001
      vertex -3.800000e+000  6.697626e-001 -2.997258e+001
      vertex -3.941421e+000  4.903286e-001 -2.997883e+001
    endloop
  endfacet
  facet normal -9.168180e-001  2.347057e-001 -3.230447e-001
    outer loop
      vertex -3.941421e+000  1.283697e+000 -2.940241e+001
      vertex -3.941421e+000  4.903286e-001 -2.997883e+001
      vertex -4.000000e+000  1.169285e+000 -2.931929e+001
    endloop
  endfacet
  facet normal -9.168181e-001  2.347056e-001 -3.230446e-001
    outer loop
      vertex -4.000000e+000  1.169285e+000 -2.931929e+001
      vertex -3.941421e+000  4.903286e-001 -2.997883e+001
      vertex -4.000000e+000  4.466270e-001 -2.984433e+001
    endloop
  endfacet
  facet normal -9.168192e-001 -3.797596e-001 -1.233912e-001
    outer loop
      vertex -3.941421e+000 -1.586737e+000 -2.846975e+001
      vertex -4.000000e+000 -1.445316e+000 -2.846975e+001
      vertex -3.941421e+000 -1.283697e+000 -2.940241e+001
    endloop
  endfacet
  facet normal -9.168195e-001 -3.797590e-001 -1.233911e-001
    outer loop
      vertex -3.941421e+000 -1.283697e+000 -2.940241e+001
      vertex -4.000000e+000 -1.445316e+000 -2.846975e+001
      vertex -4.000000e+000 -1.169285e+000 -2.931929e+001
    endloop
  endfacet
  facet normal -9.168198e-001 -2.347035e-001 -3.230415e-001
    outer loop
      vertex -3.941421e+000 -1.283697e+000 -2.940241e+001
      vertex -4.000000e+000 -1.169285e+000 -2.931929e+001
      vertex -3.941421e+000 -4.903290e-001 -2.997883e+001
    endloop
  endfacet
  facet normal -9.168181e-001 -2.347062e-001 -3.230442e-001
    outer loop
      vertex -3.941421e+000 -4.903290e-001 -2.997883e+001
      vertex -4.000000e+000 -1.169285e+000 -2.931929e+001
      vertex -4.000000e+000 -4.466273e-001 -2.984433e+001
    endloop
  endfacet
  facet normal -9.168180e-001  0.000000e+000 -3.993055e-001
    outer loop
      vertex -3.941421e+000 -4.903290e-001 -2.997883e+001
      vertex -4.000000e+000 -4.466273e-001 -2.984433e+001
      vertex -3.941421e+000  4.903286e-001 -2.997883e+001
    endloop
  endfacet
  facet normal -9.168179e-001  0.000000e+000 -3.993055e-001
    outer loop
      vertex -3.941421e+000  4.903286e-001 -2.997883e+001
      vertex -4.000000e+000 -4.466273e-001 -2.984433e+001
      vertex -4.000000e+000  4.466270e-001 -2.984433e+001
    endloop
  endfacet
  facet normal -1.000000e+000  0.000000e+000  0.000000e+000
    outer loop
      vertex -4.000000e+000 -1.169285e+000 -2.931929e+001
      vertex -4.000000e+000 -1.445316e+000 -2.846975e+001
      vertex -4.000000e+000 -8.000000e-001 -2.846975e+001
    endloop
  endfacet
  facet normal -1.000000e+000  0.000000e+000  -0.000000e+000
    outer loop
      vertex -4.000000e+000 -1.169285e+000 -2.931929e+001
      vertex -4.000000e+000 -8.000000e-001 -2.846975e+001
      vertex -4.000000e+000 -5.656855e-001 -2.903544e+001
    endloop
  endfacet
  facet normal -1.000000e+000  0.000000e+000  -0.000000e+000
    outer loop
      vertex -4.000000e+000 -1.169285e+000 -2.931929e+001
      vertex -4.000000e+000 -5.656855e-001 -2.903544e+001
      vertex -4.000000e+000  1.469528e-016 -2.926975e+001
    endloop
  endfacet
  facet normal -9.999999e-001  0.000000e+000  0.000000e+000
    outer loop
      vertex -4.000000e+000 -1.169285e+000 -2.931929e+001
      vertex -4.000000e+000  1.469528e-016 -2.926975e+001
      vertex -4.000000e+000 -4.466273e-001 -2.984433e+001
    endloop
  endfacet
  facet normal -1.000000e+000  0.000000e+000  0.000000e+000
    outer loop
      vertex -4.000000e+000  5.656855e-001 -2.903544e+001
      vertex -4.000000e+000  1.169285e+000 -2.931929e+001
      vertex -4.000000e+000  1.469528e-016 -2.926975e+001
    endloop
  endfacet
  facet normal -1.000000e+000  0.000000e+000  0.000000e+000
    outer loop
      vertex -4.000000e+000  1.469528e-016 -2.926975e+001
      vertex -4.000000e+000  1.169285e+000 -2.931929e+001
      vertex -4.000000e+000  4.466270e-001 -2.984433e+001
    endloop
  endfacet
  facet normal -1.000000e+000  0.000000e+000  0.000000e+000
    outer loop
      vertex -4.000000e+000  1.469528e-016 -2.926975e+001
      vertex -4.000000e+000  4.466270e-001 -2.984433e+001
      vertex -4.000000e+000 -4.466273e-001 -2.984433e+001
    endloop
  endfacet
  facet normal -1.000000e+000  0.000000e+000  0.000000e+000
    outer loop
      vertex -4.000000e+000 -5.656855e-001 -2.790407e+001
      vertex -4.000000e+000 -1.169285e+000 -2.762022e+001
      vertex -4.000000e+000 -7.595270e-016 -2.766975e+001
    endloop
  endfacet
  facet normal -1.000000e+000  0.000000e+000  0.000000e+000
    outer loop
      vertex -4.000000e+000 -7.595270e-016 -2.766975e+001
      vertex -4.000000e+000 -1.169285e+000 -2.762022e+001
      vertex -4.000000e+000 -4.466269e-001 -2.709518e+001
    endloop
  endfacet
  facet normal -1.000000e+000  0.000000e+000  0.000000e+000
    outer loop
      vertex -4.000000e+000 -7.595270e-016 -2.766975e+001
      vertex -4.000000e+000 -4.466269e-001 -2.709518e+001
      vertex -4.000000e+000  4.466273e-001 -2.709518e+001
    endloop
  endfacet
  facet normal -1.000000e+000  0.000000e+000  0.000000e+000
    outer loop
      vertex -4.000000e+000 -8.000000e-001 -2.846975e+001
      vertex -4.000000e+000 -1.445316e+000 -2.846975e+001
      vertex -4.000000e+000 -5.656855e-001 -2.790407e+001
    endloop
  endfacet
  facet normal -1.000000e+000  -0.000000e+000  0.000000e+000
    outer loop
      vertex -4.000000e+000 -5.656855e-001 -2.790407e+001
      vertex -4.000000e+000 -1.445316e+000 -2.846975e+001
      vertex -4.000000e+000 -1.169285e+000 -2.762022e+001
    endloop
  endfacet
  facet normal -1.000000e+000  0.000000e+000  0.000000e+000
    outer loop
      vertex -4.000000e+000  1.169285e+000 -2.762022e+001
      vertex -4.000000e+000 -7.595270e-016 -2.766975e+001
      vertex -4.000000e+000  4.466273e-001 -2.709518e+001
    endloop
  endfacet
  facet normal -1.000000e+000  0.000000e+000  0.000000e+000
    outer loop
      vertex -4.000000e+000 -7.595270e-016 -2.766975e+001
      vertex -4.000000e+000  1.169285e+000 -2.762022e+001
      vertex -4.000000e+000  5.656855e-001 -2.790407e+001
    endloop
  endfacet
  facet normal -1.000000e+000  0.000000e+000  0.000000e+000
    outer loop
      vertex -4.000000e+000  5.656855e-001 -2.790407e+001
      vertex -4.000000e+000  1.169285e+000 -2.762022e+001
      vertex -4.000000e+000  1.445316e+000 -2.846975e+001
    endloop
  endfacet
  facet normal -1.000000e+000  0.000000e+000  0.000000e+000
    outer loop
      vertex -4.000000e+000  5.656855e-001 -2.790407e+001
      vertex -4.000000e+000  1.445316e+000 -2.846975e+001
      vertex -4.000000e+000  8.000000e-001 -2.846975e+001
    endloop
  endfacet
  facet normal -1.000000e+000  0.000000e+000  0.000000e+000
    outer loop
      vertex -4.000000e+000  8.000000e-001 -2.846975e+001
      vertex -4.000000e+000  1.445316e+000 -2.846975e+001
      vertex -4.000000e+000  1.169285e+000 -2.931929e+001
    endloop
  endfacet
  facet normal -9.999999e-001  0.000000e+000  0.000000e+000
    outer loop
      vertex -4.000000e+000  8.000000e-001 -2.846975e+001
      vertex -4.000000e+000  1.169285e+000 -2.931929e+001
      vertex -4.000000e+000  5.656855e-001 -2.903544e+001
    endloop
  endfacet
  facet normal -6.949814e-002 -5.863643e-001  8.070607e-001
    outer loop
      vertex -3.800000e+000 -1.331088e+000 -2.750266e+001
      vertex -2.902215e+000 -7.597027e-001 -2.701022e+001
      vertex -3.800000e+000 -5.084305e-001 -2.690497e+001
    endloop
  endfacet
  facet normal -6.949814e-002  5.863643e-001  8.070607e-001
    outer loop
      vertex -3.800000e+000  1.331088e+000 -2.750266e+001
      vertex -3.800000e+000  5.084305e-001 -2.690497e+001
      vertex -2.902215e+000  7.597027e-001 -2.701022e+001
    endloop
  endfacet
  facet normal  4.917860e-002  2.312759e-001  9.716444e-001
    outer loop
      vertex -3.000000e+000  3.673819e-016 -2.682444e+001
      vertex -2.902215e+000  7.597027e-001 -2.701022e+001
      vertex -3.800000e+000  5.084305e-001 -2.690497e+001
    endloop
  endfacet
  facet normal -1.001542e-001  0.000000e+000  9.949719e-001
    outer loop
      vertex -3.000000e+000  3.673819e-016 -2.682444e+001
      vertex -3.800000e+000  5.084305e-001 -2.690497e+001
      vertex -3.800000e+000 -5.084305e-001 -2.690497e+001
    endloop
  endfacet
  facet normal  4.917860e-002 -2.312759e-001  9.716444e-001
    outer loop
      vertex -3.000000e+000  3.673819e-016 -2.682444e+001
      vertex -3.800000e+000 -5.084305e-001 -2.690497e+001
      vertex -2.902215e+000 -7.597027e-001 -2.701022e+001
    endloop
  endfacet
  facet normal  0.000000e+000 -9.510564e-001  3.090175e-001
    outer loop
      vertex -3.800000e+000 -1.645316e+000 -2.846975e+001
      vertex -2.508573e+000 -1.645316e+000 -2.846975e+001
      vertex -3.800000e+000 -1.331088e+000 -2.750266e+001
    endloop
  endfacet
  facet normal -4.378249e-002 -9.658543e-001  2.553597e-001
    outer loop
      vertex -3.800000e+000 -1.331088e+000 -2.750266e+001
      vertex -2.508573e+000 -1.645316e+000 -2.846975e+001
      vertex -2.643148e+000 -1.419073e+000 -2.763710e+001
    endloop
  endfacet
  facet normal  3.307243e-002 -6.817968e-001  7.307935e-001
    outer loop
      vertex -3.800000e+000 -1.331088e+000 -2.750266e+001
      vertex -2.643148e+000 -1.419073e+000 -2.763710e+001
      vertex -2.902215e+000 -7.597027e-001 -2.701022e+001
    endloop
  endfacet
  facet normal  -0.000000e+000  9.650116e-001  2.622070e-001
    outer loop
      vertex -2.508573e+000  1.645316e+000 -2.846975e+001
      vertex -3.800000e+000  1.645316e+000 -2.846975e+001
      vertex -2.643148e+000  1.419073e+000 -2.763710e+001
    endloop
  endfacet
  facet normal -3.639724e-002  9.504262e-001  3.088127e-001
    outer loop
      vertex -2.643148e+000  1.419073e+000 -2.763710e+001
      vertex -3.800000e+000  1.645316e+000 -2.846975e+001
      vertex -3.800000e+000  1.331088e+000 -2.750266e+001
    endloop
  endfacet
  facet normal  3.307243e-002  6.817968e-001  7.307935e-001
    outer loop
      vertex -2.643148e+000  1.419073e+000 -2.763710e+001
      vertex -3.800000e+000  1.331088e+000 -2.750266e+001
      vertex -2.902215e+000  7.597027e-001 -2.701022e+001
    endloop
  endfacet
  facet normal  0.000000e+000  9.510566e-001 -3.090170e-001
    outer loop
      vertex -3.800000e+000  1.645316e+000 -2.846975e+001
      vertex -2.508573e+000  1.645316e+000 -2.846975e+001
      vertex -3.800000e+000  1.331088e+000 -2.943685e+001
    endloop
  endfacet
  facet normal -4.378257e-002  9.658544e-001 -2.553591e-001
    outer loop
      vertex -3.800000e+000  1.331088e+000 -2.943685e+001
      vertex -2.508573e+000  1.645316e+000 -2.846975e+001
      vertex -2.643148e+000  1.419073e+000 -2.930241e+001
    endloop
  endfacet
  facet normal  4.238779e-002  6.288974e-001 -7.763320e-001
    outer loop
      vertex -3.800000e+000  1.331088e+000 -2.943685e+001
      vertex -2.643148e+000  1.419073e+000 -2.930241e+001
      vertex -3.800000e+000  6.697626e-001 -2.997258e+001
    endloop
  endfacet
  facet normal -3.512061e-002  6.958175e-001 -7.173594e-001
    outer loop
      vertex -3.800000e+000  6.697626e-001 -2.997258e+001
      vertex -2.643148e+000  1.419073e+000 -2.930241e+001
      vertex -2.902215e+000  7.597027e-001 -2.992929e+001
    endloop
  endfacet
  facet normal  3.187338e-002  1.568994e-001 -9.871001e-001
    outer loop
      vertex -3.800000e+000  6.697626e-001 -2.997258e+001
      vertex -2.902215e+000  7.597027e-001 -2.992929e+001
      vertex -3.800000e+000 -1.707794e-001 -3.010618e+001
    endloop
  endfacet
  facet normal -6.298942e-002  2.447117e-001 -9.675477e-001
    outer loop
      vertex -3.800000e+000 -1.707794e-001 -3.010618e+001
      vertex -2.902215e+000  7.597027e-001 -2.992929e+001
      vertex -3.000000e+000  3.673819e-016 -3.011507e+001
    endloop
  endfacet
  facet normal  6.580005e-002 -3.567342e-001 -9.318858e-001
    outer loop
      vertex -3.800000e+000 -1.707794e-001 -3.010618e+001
      vertex -3.000000e+000  3.673819e-016 -3.011507e+001
      vertex -3.800000e+000 -9.656240e-001 -2.980191e+001
    endloop
  endfacet
  facet normal -8.048641e-002 -2.465331e-001 -9.657863e-001
    outer loop
      vertex -3.800000e+000 -9.656240e-001 -2.980191e+001
      vertex -3.000000e+000  3.673819e-016 -3.011507e+001
      vertex -2.902215e+000 -7.597027e-001 -2.992929e+001
    endloop
  endfacet
  facet normal  8.177577e-002 -7.573240e-001 -6.478989e-001
    outer loop
      vertex -3.800000e+000 -9.656240e-001 -2.980191e+001
      vertex -2.902215e+000 -7.597027e-001 -2.992929e+001
      vertex -3.800000e+000 -1.465575e+000 -2.921752e+001
    endloop
  endfacet
  facet normal -2.490822e-002 -6.939385e-001 -7.196033e-001
    outer loop
      vertex -3.800000e+000 -1.465575e+000 -2.921752e+001
      vertex -2.902215e+000 -7.597027e-001 -2.992929e+001
      vertex -2.643148e+000 -1.419073e+000 -2.930241e+001
    endloop
  endfacet
  facet normal  2.192928e-002 -9.720718e-001 -2.336571e-001
    outer loop
      vertex -3.800000e+000 -1.465575e+000 -2.921752e+001
      vertex -2.643148e+000 -1.419073e+000 -2.930241e+001
      vertex -3.800000e+000 -1.645316e+000 -2.846975e+001
    endloop
  endfacet
  facet normal  0.000000e+000 -9.650118e-001 -2.622064e-001
    outer loop
      vertex -3.800000e+000 -1.645316e+000 -2.846975e+001
      vertex -2.643148e+000 -1.419073e+000 -2.930241e+001
      vertex -2.508573e+000 -1.645316e+000 -2.846975e+001
    endloop
  endfacet
  facet normal -2.772271e-002 -6.868351e-001 -7.262844e-001
    outer loop
      vertex -2.976375e+000  3.757577e-001 -2.776353e+001
      vertex -4.000000e+000  5.656855e-001 -2.790407e+001
      vertex -2.920226e+000  6.872281e-001 -2.806022e+001
    endloop
  endfacet
  facet normal  4.859368e-002 -9.227881e-001 -3.822314e-001
    outer loop
      vertex -2.920226e+000  6.872281e-001 -2.806022e+001
      vertex -4.000000e+000  5.656855e-001 -2.790407e+001
      vertex -4.000000e+000  8.000000e-001 -2.846975e+001
    endloop
  endfacet
  facet normal  0.000000e+000 -9.641142e-001 -2.654880e-001
    outer loop
      vertex -2.920226e+000  6.872281e-001 -2.806022e+001
      vertex -4.000000e+000  8.000000e-001 -2.846975e+001
      vertex -2.891366e+000  8.000000e-001 -2.846975e+001
    endloop
  endfacet
  facet normal -2.772271e-002  6.868351e-001 -7.262844e-001
    outer loop
      vertex -2.920226e+000 -6.872281e-001 -2.806022e+001
      vertex -4.000000e+000 -5.656855e-001 -2.790407e+001
      vertex -2.976375e+000 -3.757577e-001 -2.776353e+001
    endloop
  endfacet
  facet normal  5.575316e-002  3.820873e-001 -9.224429e-001
    outer loop
      vertex -2.976375e+000 -3.757577e-001 -2.776353e+001
      vertex -4.000000e+000 -5.656855e-001 -2.790407e+001
      vertex -4.000000e+000 -7.595270e-016 -2.766975e+001
    endloop
  endfacet
  facet normal -2.728647e-016  2.421355e-001 -9.702424e-001
    outer loop
      vertex -2.976375e+000 -3.757577e-001 -2.776353e+001
      vertex -4.000000e+000 -7.595270e-016 -2.766975e+001
      vertex -3.000000e+000  3.673819e-016 -2.766975e+001
    endloop
  endfacet
  facet normal  4.312484e-016 -3.826826e-001 -9.238799e-001
    outer loop
      vertex -3.000000e+000  3.673819e-016 -2.766975e+001
      vertex -4.000000e+000 -7.595270e-016 -2.766975e+001
      vertex -4.000000e+000  5.656855e-001 -2.790407e+001
    endloop
  endfacet
  facet normal  8.681899e-002 -2.463565e-001 -9.652829e-001
    outer loop
      vertex -3.000000e+000  3.673819e-016 -2.766975e+001
      vertex -4.000000e+000  5.656855e-001 -2.790407e+001
      vertex -2.976375e+000  3.757577e-001 -2.776353e+001
    endloop
  endfacet
  facet normal  0.000000e+000  9.238795e-001 -3.826835e-001
    outer loop
      vertex -4.000000e+000 -8.000000e-001 -2.846975e+001
      vertex -4.000000e+000 -5.656855e-001 -2.790407e+001
      vertex -2.891366e+000 -8.000000e-001 -2.846975e+001
    endloop
  endfacet
  facet normal  7.076627e-002  9.629623e-001 -2.601840e-001
    outer loop
      vertex -2.891366e+000 -8.000000e-001 -2.846975e+001
      vertex -4.000000e+000 -5.656855e-001 -2.790407e+001
      vertex -2.920226e+000 -6.872281e-001 -2.806022e+001
    endloop
  endfacet
  facet normal -2.772271e-002  6.868351e-001  7.262844e-001
    outer loop
      vertex -2.976375e+000 -3.757577e-001 -2.917598e+001
      vertex -4.000000e+000 -5.656855e-001 -2.903544e+001
      vertex -2.920226e+000 -6.872281e-001 -2.887928e+001
    endloop
  endfacet
  facet normal  4.859390e-002  9.227886e-001  3.822303e-001
    outer loop
      vertex -2.920226e+000 -6.872281e-001 -2.887928e+001
      vertex -4.000000e+000 -5.656855e-001 -2.903544e+001
      vertex -4.000000e+000 -8.000000e-001 -2.846975e+001
    endloop
  endfacet
  facet normal  -0.000000e+000  9.641145e-001  2.654869e-001
    outer loop
      vertex -2.920226e+000 -6.872281e-001 -2.887928e+001
      vertex -4.000000e+000 -8.000000e-001 -2.846975e+001
      vertex -2.891366e+000 -8.000000e-001 -2.846975e+001
    endloop
  endfacet
  facet normal -2.772271e-002 -6.868351e-001  7.262844e-001
    outer loop
      vertex -2.920226e+000  6.872281e-001 -2.887928e+001
      vertex -4.000000e+000  5.656855e-001 -2.903544e+001
      vertex -2.976375e+000  3.757577e-001 -2.917598e+001
    endloop
  endfacet
  facet normal  5.575316e-002 -3.820873e-001  9.224429e-001
    outer loop
      vertex -2.976375e+000  3.757577e-001 -2.917598e+001
      vertex -4.000000e+000  5.656855e-001 -2.903544e+001
      vertex -4.000000e+000  1.469528e-016 -2.926975e+001
    endloop
  endfacet
  facet normal  5.337373e-017 -2.421355e-001  9.702424e-001
    outer loop
      vertex -2.976375e+000  3.757577e-001 -2.917598e+001
      vertex -4.000000e+000  1.469528e-016 -2.926975e+001
      vertex -3.000000e+000  3.673819e-016 -2.926975e+001
    endloop
  endfacet
  facet normal -8.435439e-017  3.826826e-001  9.238799e-001
    outer loop
      vertex -3.000000e+000  3.673819e-016 -2.926975e+001
      vertex -4.000000e+000  1.469528e-016 -2.926975e+001
      vertex -4.000000e+000 -5.656855e-001 -2.903544e+001
    endloop
  endfacet
  facet normal  8.681899e-002  2.463565e-001  9.652829e-001
    outer loop
      vertex -3.000000e+000  3.673819e-016 -2.926975e+001
      vertex -4.000000e+000 -5.656855e-001 -2.903544e+001
      vertex -2.976375e+000 -3.757577e-001 -2.917598e+001
    endloop
  endfacet
  facet normal  0.000000e+000 -9.238800e-001  3.826824e-001
    outer loop
      vertex -4.000000e+000  8.000000e-001 -2.846975e+001
      vertex -4.000000e+000  5.656855e-001 -2.903544e+001
      vertex -2.891366e+000  8.000000e-001 -2.846975e+001
    endloop
  endfacet
  facet normal  7.076647e-002 -9.629627e-001  2.601828e-001
    outer loop
      vertex -2.891366e+000  8.000000e-001 -2.846975e+001
      vertex -4.000000e+000  5.656855e-001 -2.903544e+001
      vertex -2.920226e+000  6.872281e-001 -2.887928e+001
    endloop
  endfacet
  facet normal  8.594477e-001  5.112238e-001  0.000000e+000
    outer loop
      vertex -2.643148e+000 -1.419073e+000 -2.930241e+001
      vertex -2.643148e+000 -1.419073e+000 -2.763710e+001
      vertex -2.508573e+000 -1.645316e+000 -2.846975e+001
    endloop
  endfacet
  facet normal  9.691251e-001  2.465692e-001  3.956788e-004
    outer loop
      vertex -2.891366e+000 -8.000000e-001 -2.846975e+001
      vertex -2.920226e+000 -6.872281e-001 -2.806022e+001
      vertex -2.902215e+000 -7.597027e-001 -2.701022e+001
    endloop
  endfacet
  facet normal  9.296740e-001  3.683690e-001 -3.260401e-003
    outer loop
      vertex -2.891366e+000 -8.000000e-001 -2.846975e+001
      vertex -2.902215e+000 -7.597027e-001 -2.701022e+001
      vertex -2.643148e+000 -1.419073e+000 -2.763710e+001
    endloop
  endfacet
  facet normal  9.281718e-001  3.721519e-001  0.000000e+000
    outer loop
      vertex -2.891366e+000 -8.000000e-001 -2.846975e+001
      vertex -2.643148e+000 -1.419073e+000 -2.763710e+001
      vertex -2.643148e+000 -1.419073e+000 -2.930241e+001
    endloop
  endfacet
  facet normal  9.296739e-001  3.683690e-001  3.260396e-003
    outer loop
      vertex -2.891366e+000 -8.000000e-001 -2.846975e+001
      vertex -2.643148e+000 -1.419073e+000 -2.930241e+001
      vertex -2.902215e+000 -7.597027e-001 -2.992929e+001
    endloop
  endfacet
  facet normal  9.691252e-001  2.465692e-001 -3.956785e-004
    outer loop
      vertex -2.891366e+000 -8.000000e-001 -2.846975e+001
      vertex -2.902215e+000 -7.597027e-001 -2.992929e+001
      vertex -2.920226e+000 -6.872281e-001 -2.887928e+001
    endloop
  endfacet
  facet normal  9.980292e-001  6.275006e-002  0.000000e+000
    outer loop
      vertex -3.000000e+000  3.673819e-016 -2.766975e+001
      vertex -3.000000e+000  3.673819e-016 -2.682444e+001
      vertex -2.976375e+000 -3.757577e-001 -2.776353e+001
    endloop
  endfacet
  facet normal  9.904828e-001  1.345630e-001 -2.892429e-002
    outer loop
      vertex -2.976375e+000 -3.757577e-001 -2.776353e+001
      vertex -3.000000e+000  3.673819e-016 -2.682444e+001
      vertex -2.902215e+000 -7.597027e-001 -2.701022e+001
    endloop
  endfacet
  facet normal  9.833966e-001  1.814175e-001 -4.346075e-003
    outer loop
      vertex -2.976375e+000 -3.757577e-001 -2.776353e+001
      vertex -2.902215e+000 -7.597027e-001 -2.701022e+001
      vertex -2.920226e+000 -6.872281e-001 -2.806022e+001
    endloop
  endfacet
  facet normal  9.980292e-001  6.275006e-002  0.000000e+000
    outer loop
      vertex -3.000000e+000  3.673819e-016 -2.926975e+001
      vertex -2.976375e+000 -3.757577e-001 -2.917598e+001
      vertex -3.000000e+000  3.673819e-016 -3.011507e+001
    endloop
  endfacet
  facet normal  9.669373e-001  2.442243e-001  7.339535e-002
    outer loop
      vertex -3.000000e+000  3.673819e-016 -3.011507e+001
      vertex -2.976375e+000 -3.757577e-001 -2.917598e+001
      vertex -2.920226e+000 -6.872281e-001 -2.887928e+001
    endloop
  endfacet
  facet normal  9.915341e-001  1.295967e-001  8.062474e-003
    outer loop
      vertex -3.000000e+000  3.673819e-016 -3.011507e+001
      vertex -2.920226e+000 -6.872281e-001 -2.887928e+001
      vertex -2.902215e+000 -7.597027e-001 -2.992929e+001
    endloop
  endfacet
  facet normal  8.594477e-001 -5.112238e-001  0.000000e+000
    outer loop
      vertex -2.643148e+000  1.419073e+000 -2.763710e+001
      vertex -2.643148e+000  1.419073e+000 -2.930241e+001
      vertex -2.508573e+000  1.645316e+000 -2.846975e+001
    endloop
  endfacet
  facet normal  9.691252e-001 -2.465692e-001 -3.956785e-004
    outer loop
      vertex -2.891366e+000  8.000000e-001 -2.846975e+001
      vertex -2.920226e+000  6.872281e-001 -2.887928e+001
      vertex -2.902215e+000  7.597027e-001 -2.992929e+001
    endloop
  endfacet
  facet normal  9.296739e-001 -3.683690e-001  3.260396e-003
    outer loop
      vertex -2.891366e+000  8.000000e-001 -2.846975e+001
      vertex -2.902215e+000  7.597027e-001 -2.992929e+001
      vertex -2.643148e+000  1.419073e+000 -2.930241e+001
    endloop
  endfacet
  facet normal  9.281718e-001 -3.721519e-001  0.000000e+000
    outer loop
      vertex -2.891366e+000  8.000000e-001 -2.846975e+001
      vertex -2.643148e+000  1.419073e+000 -2.930241e+001
      vertex -2.643148e+000  1.419073e+000 -2.763710e+001
    endloop
  endfacet
  facet normal  9.296740e-001 -3.683690e-001 -3.260401e-003
    outer loop
      vertex -2.891366e+000  8.000000e-001 -2.846975e+001
      vertex -2.643148e+000  1.419073e+000 -2.763710e+001
      vertex -2.902215e+000  7.597027e-001 -2.701022e+001
    endloop
  endfacet
  facet normal  9.691251e-001 -2.465692e-001  3.956788e-004
    outer loop
      vertex -2.891366e+000  8.000000e-001 -2.846975e+001
      vertex -2.902215e+000  7.597027e-001 -2.701022e+001
      vertex -2.920226e+000  6.872281e-001 -2.806022e+001
    endloop
  endfacet
  facet normal  9.918177e-001 -1.276616e-001  0.000000e+000
    outer loop
      vertex -2.902215e+000  7.597027e-001 -2.701022e+001
      vertex -3.000000e+000  3.673819e-016 -2.682444e+001
      vertex -3.000000e+000  3.673819e-016 -2.766975e+001
    endloop
  endfacet
  facet normal  9.952896e-001 -7.720941e-002 -5.862917e-002
    outer loop
      vertex -2.902215e+000  7.597027e-001 -2.701022e+001
      vertex -3.000000e+000  3.673819e-016 -2.766975e+001
      vertex -2.976375e+000  3.757577e-001 -2.776353e+001
    endloop
  endfacet
  facet normal  9.833966e-001 -1.814175e-001 -4.346075e-003
    outer loop
      vertex -2.902215e+000  7.597027e-001 -2.701022e+001
      vertex -2.976375e+000  3.757577e-001 -2.776353e+001
      vertex -2.920226e+000  6.872281e-001 -2.806022e+001
    endloop
  endfacet
  facet normal  9.833966e-001 -1.814175e-001  4.346075e-003
    outer loop
      vertex -2.920226e+000  6.872281e-001 -2.887928e+001
      vertex -2.976375e+000  3.757577e-001 -2.917598e+001
      vertex -2.902215e+000  7.597027e-001 -2.992929e+001
    endloop
  endfacet
  facet normal  9.952896e-001 -7.720941e-002  5.862917e-002
    outer loop
      vertex -2.902215e+000  7.597027e-001 -2.992929e+001
      vertex -2.976375e+000  3.757577e-001 -2.917598e+001
      vertex -3.000000e+000  3.673819e-016 -2.926975e+001
    endloop
  endfacet
  facet normal  9.918177e-001 -1.276616e-001  0.000000e+000
    outer loop
      vertex -2.902215e+000  7.597027e-001 -2.992929e+001
      vertex -3.000000e+000  3.673819e-016 -2.926975e+001
      vertex -3.000000e+000  3.673819e-016 -3.011507e+001
    endloop
  endfacet
endsolid CATIA STL
