solid CATIA STL
  facet normal  0.000000e+000  2.961825e-001 -9.551314e-001
    outer loop
      vertex -4.000000e+000  4.898425e-016  5.900000e+001
      vertex  3.959772e+000 -5.658642e-001  5.882453e+001
      vertex -3.959772e+000 -5.658642e-001  5.882453e+001
    endloop
  endfacet
  facet normal  0.000000e+000  7.482194e-001 -6.634514e-001
    outer loop
      vertex -3.959772e+000 -5.658642e-001  5.882453e+001
      vertex  3.959772e+000 -5.658642e-001  5.882453e+001
      vertex  3.900602e+000 -8.861719e-001  5.846329e+001
    endloop
  endfacet
  facet normal  0.000000e+000  7.482193e-001 -6.634515e-001
    outer loop
      vertex -3.959772e+000 -5.658642e-001  5.882453e+001
      vertex  3.900602e+000 -8.861719e-001  5.846329e+001
      vertex -3.900602e+000 -8.861719e-001  5.846329e+001
    endloop
  endfacet
  facet normal  0.000000e+000  9.711187e-001 -2.385966e-001
    outer loop
      vertex -3.900602e+000 -8.861719e-001  5.846329e+001
      vertex  3.900602e+000 -8.861719e-001  5.846329e+001
      vertex  3.872983e+000 -1.000000e+000  5.800000e+001
    endloop
  endfacet
  facet normal  0.000000e+000  9.711187e-001 -2.385966e-001
    outer loop
      vertex -3.900602e+000 -8.861719e-001  5.846329e+001
      vertex  3.872983e+000 -1.000000e+000  5.800000e+001
      vertex -3.872983e+000 -1.000000e+000  5.800000e+001
    endloop
  endfacet
  facet normal  1.813535e-017  2.961825e-001 -9.551314e-001
    outer loop
      vertex  3.959772e+000 -5.658642e-001  5.882453e+001
      vertex -4.000000e+000  4.898425e-016  5.900000e+001
      vertex  4.000000e+000  0.000000e+000  5.900000e+001
    endloop
  endfacet
  facet normal -1.813535e-017 -2.961825e-001 -9.551314e-001
    outer loop
      vertex  4.000000e+000  0.000000e+000  5.900000e+001
      vertex -4.000000e+000  4.898425e-016  5.900000e+001
      vertex -3.959772e+000  5.658642e-001  5.882453e+001
    endloop
  endfacet
  facet normal  0.000000e+000 -2.961825e-001 -9.551314e-001
    outer loop
      vertex  4.000000e+000  0.000000e+000  5.900000e+001
      vertex -3.959772e+000  5.658642e-001  5.882453e+001
      vertex  3.959772e+000  5.658642e-001  5.882453e+001
    endloop
  endfacet
  facet normal  -0.000000e+000 -7.482194e-001 -6.634514e-001
    outer loop
      vertex  3.959772e+000  5.658642e-001  5.882453e+001
      vertex -3.959772e+000  5.658642e-001  5.882453e+001
      vertex -3.900602e+000  8.861719e-001  5.846329e+001
    endloop
  endfacet
  facet normal  0.000000e+000 -7.482193e-001 -6.634515e-001
    outer loop
      vertex  3.959772e+000  5.658642e-001  5.882453e+001
      vertex -3.900602e+000  8.861719e-001  5.846329e+001
      vertex  3.900602e+000  8.861719e-001  5.846329e+001
    endloop
  endfacet
  facet normal  -0.000000e+000 -9.711187e-001 -2.385966e-001
    outer loop
      vertex  3.900602e+000  8.861719e-001  5.846329e+001
      vertex -3.900602e+000  8.861719e-001  5.846329e+001
      vertex -3.872983e+000  1.000000e+000  5.800000e+001
    endloop
  endfacet
  facet normal  0.000000e+000 -9.711187e-001 -2.385966e-001
    outer loop
      vertex  3.900602e+000  8.861719e-001  5.846329e+001
      vertex -3.872983e+000  1.000000e+000  5.800000e+001
      vertex  3.872983e+000  1.000000e+000  5.800000e+001
    endloop
  endfacet
  facet normal  0.000000e+000 -2.961825e-001  9.551314e-001
    outer loop
      vertex -4.000000e+000  4.898425e-016  5.700000e+001
      vertex  3.959772e+000  5.658642e-001  5.717547e+001
      vertex -3.959772e+000  5.658642e-001  5.717547e+001
    endloop
  endfacet
  facet normal  0.000000e+000 -7.482194e-001  6.634514e-001
    outer loop
      vertex -3.959772e+000  5.658642e-001  5.717547e+001
      vertex  3.959772e+000  5.658642e-001  5.717547e+001
      vertex  3.900602e+000  8.861719e-001  5.753671e+001
    endloop
  endfacet
  facet normal  0.000000e+000 -7.482193e-001  6.634515e-001
    outer loop
      vertex -3.959772e+000  5.658642e-001  5.717547e+001
      vertex  3.900602e+000  8.861719e-001  5.753671e+001
      vertex -3.900602e+000  8.861719e-001  5.753671e+001
    endloop
  endfacet
  facet normal  0.000000e+000 -9.711187e-001  2.385966e-001
    outer loop
      vertex -3.900602e+000  8.861719e-001  5.753671e+001
      vertex  3.900602e+000  8.861719e-001  5.753671e+001
      vertex  3.872983e+000  1.000000e+000  5.800000e+001
    endloop
  endfacet
  facet normal  0.000000e+000 -9.711187e-001  2.385966e-001
    outer loop
      vertex -3.900602e+000  8.861719e-001  5.753671e+001
      vertex  3.872983e+000  1.000000e+000  5.800000e+001
      vertex -3.872983e+000  1.000000e+000  5.800000e+001
    endloop
  endfacet
  facet normal -1.839225e-017 -2.961825e-001  9.551314e-001
    outer loop
      vertex  3.959772e+000  5.658642e-001  5.717547e+001
      vertex -4.000000e+000  4.898425e-016  5.700000e+001
      vertex  4.000000e+000 -6.938894e-018  5.700000e+001
    endloop
  endfacet
  facet normal  1.839225e-017  2.961825e-001  9.551314e-001
    outer loop
      vertex  4.000000e+000 -6.938894e-018  5.700000e+001
      vertex -4.000000e+000  4.898425e-016  5.700000e+001
      vertex -3.959772e+000 -5.658642e-001  5.717547e+001
    endloop
  endfacet
  facet normal  -0.000000e+000  2.961825e-001  9.551314e-001
    outer loop
      vertex  4.000000e+000 -6.938894e-018  5.700000e+001
      vertex -3.959772e+000 -5.658642e-001  5.717547e+001
      vertex  3.959772e+000 -5.658642e-001  5.717547e+001
    endloop
  endfacet
  facet normal  0.000000e+000  7.482194e-001  6.634514e-001
    outer loop
      vertex  3.959772e+000 -5.658642e-001  5.717547e+001
      vertex -3.959772e+000 -5.658642e-001  5.717547e+001
      vertex -3.900602e+000 -8.861719e-001  5.753671e+001
    endloop
  endfacet
  facet normal  -0.000000e+000  7.482193e-001  6.634515e-001
    outer loop
      vertex  3.959772e+000 -5.658642e-001  5.717547e+001
      vertex -3.900602e+000 -8.861719e-001  5.753671e+001
      vertex  3.900602e+000 -8.861719e-001  5.753671e+001
    endloop
  endfacet
  facet normal  0.000000e+000  9.711187e-001  2.385966e-001
    outer loop
      vertex  3.900602e+000 -8.861719e-001  5.753671e+001
      vertex -3.900602e+000 -8.861719e-001  5.753671e+001
      vertex -3.872983e+000 -1.000000e+000  5.800000e+001
    endloop
  endfacet
  facet normal  -0.000000e+000  9.711187e-001  2.385966e-001
    outer loop
      vertex  3.900602e+000 -8.861719e-001  5.753671e+001
      vertex -3.872983e+000 -1.000000e+000  5.800000e+001
      vertex  3.872983e+000 -1.000000e+000  5.800000e+001
    endloop
  endfacet
  facet normal  -0.000000e+000  0.000000e+000  1.000000e+000
    outer loop
      vertex  6.675628e-001  2.924784e+000  7.000000e+001
      vertex -6.675628e-001  2.924784e+000  7.000000e+001
      vertex  1.870469e+000  2.345495e+000  7.000000e+001
    endloop
  endfacet
  facet normal  0.000000e+000  0.000000e+000  1.000000e+000
    outer loop
      vertex  1.870469e+000  2.345495e+000  7.000000e+001
      vertex -6.675628e-001  2.924784e+000  7.000000e+001
      vertex -1.870469e+000  2.345495e+000  7.000000e+001
    endloop
  endfacet
  facet normal  -0.000000e+000  0.000000e+000  1.000000e+000
    outer loop
      vertex  1.870469e+000  2.345495e+000  7.000000e+001
      vertex -1.870469e+000  2.345495e+000  7.000000e+001
      vertex  2.702907e+000  1.301651e+000  7.000000e+001
    endloop
  endfacet
  facet normal  0.000000e+000  0.000000e+000  1.000000e+000
    outer loop
      vertex  2.702907e+000  1.301651e+000  7.000000e+001
      vertex -1.870469e+000  2.345495e+000  7.000000e+001
      vertex -2.702907e+000  1.301651e+000  7.000000e+001
    endloop
  endfacet
  facet normal  -0.000000e+000  0.000000e+000  1.000000e+000
    outer loop
      vertex  2.702907e+000  1.301651e+000  7.000000e+001
      vertex -2.702907e+000  1.301651e+000  7.000000e+001
      vertex  3.000000e+000  1.434711e-013  7.000000e+001
    endloop
  endfacet
  facet normal  0.000000e+000  0.000000e+000  1.000000e+000
    outer loop
      vertex  3.000000e+000  1.434711e-013  7.000000e+001
      vertex -2.702907e+000  1.301651e+000  7.000000e+001
      vertex -3.000000e+000  1.446661e-013  7.000000e+001
    endloop
  endfacet
  facet normal  0.000000e+000  0.000000e+000  1.000000e+000
    outer loop
      vertex  3.000000e+000  1.434711e-013  7.000000e+001
      vertex -3.000000e+000  1.446661e-013  7.000000e+001
      vertex  2.824757e+000 -1.010321e+000  7.000000e+001
    endloop
  endfacet
  facet normal  0.000000e+000  0.000000e+000  9.999999e-001
    outer loop
      vertex  2.824757e+000 -1.010321e+000  7.000000e+001
      vertex -3.000000e+000  1.446661e-013  7.000000e+001
      vertex -2.679645e+000 -1.348889e+000  7.000000e+001
    endloop
  endfacet
  facet normal  -0.000000e+000  0.000000e+000  1.000000e+000
    outer loop
      vertex  2.824757e+000 -1.010321e+000  7.000000e+001
      vertex -2.679645e+000 -1.348889e+000  7.000000e+001
      vertex  2.068845e+000 -2.172529e+000  7.000000e+001
    endloop
  endfacet
  facet normal  0.000000e+000  0.000000e+000  1.000000e+000
    outer loop
      vertex  2.068845e+000 -2.172529e+000  7.000000e+001
      vertex -2.679645e+000 -1.348889e+000  7.000000e+001
      vertex -1.786999e+000 -2.409696e+000  7.000000e+001
    endloop
  endfacet
  facet normal  -0.000000e+000  0.000000e+000  1.000000e+000
    outer loop
      vertex  2.068845e+000 -2.172529e+000  7.000000e+001
      vertex -1.786999e+000 -2.409696e+000  7.000000e+001
      vertex  8.710904e-001 -2.870749e+000  7.000000e+001
    endloop
  endfacet
  facet normal  0.000000e+000  0.000000e+000  1.000000e+000
    outer loop
      vertex  8.710904e-001 -2.870749e+000  7.000000e+001
      vertex -1.786999e+000 -2.409696e+000  7.000000e+001
      vertex -5.127030e-001 -2.955865e+000  7.000000e+001
    endloop
  endfacet
  facet normal  6.113233e-001 -3.692372e-001  6.999627e-001
    outer loop
      vertex  2.824757e+000 -1.010321e+000  7.000000e+001
      vertex  2.945181e+000 -2.706642e+000  6.900000e+001
      vertex  3.766343e+000 -1.347095e+000  6.900000e+001
    endloop
  endfacet
  facet normal  5.851511e-001 -3.805884e-001  7.160661e-001
    outer loop
      vertex  2.824757e+000 -1.010321e+000  7.000000e+001
      vertex  2.068845e+000 -2.172529e+000  7.000000e+001
      vertex  2.945181e+000 -2.706642e+000  6.900000e+001
    endloop
  endfacet
  facet normal  4.264352e-001 -5.876841e-001  6.875902e-001
    outer loop
      vertex  2.068845e+000 -2.172529e+000  7.000000e+001
      vertex  1.659661e+000 -3.639440e+000  6.900000e+001
      vertex  2.945181e+000 -2.706642e+000  6.900000e+001
    endloop
  endfacet
  facet normal  1.657498e-001 -7.143807e-001  6.798435e-001
    outer loop
      vertex  8.710904e-001 -2.870749e+000  7.000000e+001
      vertex  1.124670e-001 -3.998419e+000  6.900000e+001
      vertex  1.659661e+000 -3.639440e+000  6.900000e+001
    endloop
  endfacet
  facet normal  3.453809e-001 -5.924797e-001  7.277911e-001
    outer loop
      vertex  8.710904e-001 -2.870749e+000  7.000000e+001
      vertex  1.659661e+000 -3.639440e+000  6.900000e+001
      vertex  2.068845e+000 -2.172529e+000  7.000000e+001
    endloop
  endfacet
  facet normal -1.257480e-001 -7.249691e-001  6.772056e-001
    outer loop
      vertex -5.127030e-001 -2.955865e+000  7.000000e+001
      vertex -1.452459e+000 -3.726978e+000  6.900000e+001
      vertex  1.124670e-001 -3.998419e+000  6.900000e+001
    endloop
  endfacet
  facet normal  4.173219e-002 -6.784754e-001  7.334369e-001
    outer loop
      vertex -5.127030e-001 -2.955865e+000  7.000000e+001
      vertex  1.124670e-001 -3.998419e+000  6.900000e+001
      vertex  8.710904e-001 -2.870749e+000  7.000000e+001
    endloop
  endfacet
  facet normal -3.966522e-001 -6.168305e-001  6.798435e-001
    outer loop
      vertex -1.786999e+000 -2.409696e+000  7.000000e+001
      vertex -2.788381e+000 -2.867915e+000  6.900000e+001
      vertex -1.452459e+000 -3.726978e+000  6.900000e+001
    endloop
  endfacet
  facet normal -2.677869e-001 -6.247884e-001  7.334368e-001
    outer loop
      vertex -1.786999e+000 -2.409696e+000  7.000000e+001
      vertex -1.452459e+000 -3.726978e+000  6.900000e+001
      vertex -5.127030e-001 -2.955865e+000  7.000000e+001
    endloop
  endfacet
  facet normal -5.247371e-001 -4.415552e-001  7.277911e-001
    outer loop
      vertex -2.679645e+000 -1.348889e+000  7.000000e+001
      vertex -2.788381e+000 -2.867915e+000  6.900000e+001
      vertex -1.786999e+000 -2.409696e+000  7.000000e+001
    endloop
  endfacet
  facet normal -6.973420e-001 -1.656155e-001  6.973420e-001
    outer loop
      vertex -3.000000e+000  1.446661e-013  7.000000e+001
      vertex -4.000000e+000  4.898425e-016  6.900000e+001
      vertex -2.679645e+000 -1.348889e+000  7.000000e+001
    endloop
  endfacet
  facet normal -6.839892e-001 -1.385551e-001  7.162131e-001
    outer loop
      vertex -2.679645e+000 -1.348889e+000  7.000000e+001
      vertex -4.000000e+000  4.898425e-016  6.900000e+001
      vertex -3.684666e+000 -1.556676e+000  6.900000e+001
    endloop
  endfacet
  facet normal -5.994418e-001 -4.097428e-001  6.875902e-001
    outer loop
      vertex -2.679645e+000 -1.348889e+000  7.000000e+001
      vertex -3.684666e+000 -1.556676e+000  6.900000e+001
      vertex -2.788381e+000 -2.867915e+000  6.900000e+001
    endloop
  endfacet
  facet normal  7.018476e-001 -1.217374e-001  7.018476e-001
    outer loop
      vertex  4.000000e+000 -9.796851e-016  6.900000e+001
      vertex  3.000000e+000  1.434711e-013  7.000000e+001
      vertex  3.766343e+000 -1.347095e+000  6.900000e+001
    endloop
  endfacet
  facet normal  7.018475e-001 -1.217375e-001  7.018476e-001
    outer loop
      vertex  3.766343e+000 -1.347095e+000  6.900000e+001
      vertex  3.000000e+000  1.434711e-013  7.000000e+001
      vertex  2.824757e+000 -1.010321e+000  7.000000e+001
    endloop
  endfacet
  facet normal -7.002144e-001  1.392814e-001  7.002144e-001
    outer loop
      vertex -3.000000e+000  1.446661e-013  7.000000e+001
      vertex -3.695518e+000  1.530734e+000  6.900000e+001
      vertex -4.000000e+000  4.898425e-016  6.900000e+001
    endloop
  endfacet
  facet normal -6.829628e-001  1.558818e-001  7.136264e-001
    outer loop
      vertex -3.000000e+000  1.446661e-013  7.000000e+001
      vertex -2.702907e+000  1.301651e+000  7.000000e+001
      vertex -3.695518e+000  1.530734e+000  6.900000e+001
    endloop
  endfacet
  facet normal  6.829628e-001  1.558818e-001  7.136264e-001
    outer loop
      vertex  3.000000e+000  1.434711e-013  7.000000e+001
      vertex  3.695518e+000  1.530734e+000  6.900000e+001
      vertex  2.702907e+000  1.301651e+000  7.000000e+001
    endloop
  endfacet
  facet normal  7.002144e-001  1.392814e-001  7.002144e-001
    outer loop
      vertex  3.000000e+000  1.434711e-013  7.000000e+001
      vertex  4.000000e+000 -9.796851e-016  6.900000e+001
      vertex  3.695518e+000  1.530734e+000  6.900000e+001
    endloop
  endfacet
  facet normal -6.020336e-001  4.022659e-001  6.897374e-001
    outer loop
      vertex -2.702907e+000  1.301651e+000  7.000000e+001
      vertex -2.828427e+000  2.828427e+000  6.900000e+001
      vertex -3.695518e+000  1.530734e+000  6.900000e+001
    endloop
  endfacet
  facet normal -4.060668e-001  6.077219e-001  6.824835e-001
    outer loop
      vertex -1.870469e+000  2.345495e+000  7.000000e+001
      vertex -1.530734e+000  3.695518e+000  6.900000e+001
      vertex -2.828427e+000  2.828427e+000  6.900000e+001
    endloop
  endfacet
  facet normal -5.391766e-001  4.299790e-001  7.241592e-001
    outer loop
      vertex -1.870469e+000  2.345495e+000  7.000000e+001
      vertex -2.828427e+000  2.828427e+000  6.900000e+001
      vertex -2.702907e+000  1.301651e+000  7.000000e+001
    endloop
  endfacet
  facet normal -1.432642e-001  7.202376e-001  6.787733e-001
    outer loop
      vertex -6.675628e-001  2.924784e+000  7.000000e+001
      vertex  1.133100e-015  4.000000e+000  6.900000e+001
      vertex -1.530734e+000  3.695518e+000  6.900000e+001
    endloop
  endfacet
  facet normal -2.964169e-001  6.155162e-001  7.302580e-001
    outer loop
      vertex -6.675628e-001  2.924784e+000  7.000000e+001
      vertex -1.530734e+000  3.695518e+000  6.900000e+001
      vertex -1.870469e+000  2.345495e+000  7.000000e+001
    endloop
  endfacet
  facet normal  1.432642e-001  7.202376e-001  6.787733e-001
    outer loop
      vertex  6.675628e-001  2.924784e+000  7.000000e+001
      vertex  1.530734e+000  3.695518e+000  6.900000e+001
      vertex  1.133100e-015  4.000000e+000  6.900000e+001
    endloop
  endfacet
  facet normal  0.000000e+000  6.810305e-001  7.322550e-001
    outer loop
      vertex  6.675628e-001  2.924784e+000  7.000000e+001
      vertex  1.133100e-015  4.000000e+000  6.900000e+001
      vertex -6.675628e-001  2.924784e+000  7.000000e+001
    endloop
  endfacet
  facet normal  4.060668e-001  6.077219e-001  6.824835e-001
    outer loop
      vertex  1.870469e+000  2.345495e+000  7.000000e+001
      vertex  2.828427e+000  2.828427e+000  6.900000e+001
      vertex  1.530734e+000  3.695518e+000  6.900000e+001
    endloop
  endfacet
  facet normal  2.964169e-001  6.155162e-001  7.302580e-001
    outer loop
      vertex  1.870469e+000  2.345495e+000  7.000000e+001
      vertex  1.530734e+000  3.695518e+000  6.900000e+001
      vertex  6.675628e-001  2.924784e+000  7.000000e+001
    endloop
  endfacet
  facet normal  6.020336e-001  4.022659e-001  6.897374e-001
    outer loop
      vertex  2.702907e+000  1.301651e+000  7.000000e+001
      vertex  3.695518e+000  1.530734e+000  6.900000e+001
      vertex  2.828427e+000  2.828427e+000  6.900000e+001
    endloop
  endfacet
  facet normal  5.391766e-001  4.299790e-001  7.241592e-001
    outer loop
      vertex  2.702907e+000  1.301651e+000  7.000000e+001
      vertex  2.828427e+000  2.828427e+000  6.900000e+001
      vertex  1.870469e+000  2.345495e+000  7.000000e+001
    endloop
  endfacet
  facet normal  8.559798e-001 -5.170089e-001  6.277778e-004
    outer loop
      vertex  3.766343e+000 -1.347095e+000  6.900000e+001
      vertex  2.945181e+000 -2.706642e+000  6.900000e+001
      vertex  3.111907e+000 -2.513172e+000  1.000000e+000
    endloop
  endfacet
  facet normal  6.336427e-001 -7.736254e-001 -6.474738e-004
    outer loop
      vertex  1.850900e+000 -3.546007e+000  1.000000e+000
      vertex  3.111907e+000 -2.513172e+000  1.000000e+000
      vertex  2.945181e+000 -2.706642e+000  6.900000e+001
    endloop
  endfacet
  facet normal  5.872962e-001 -8.093719e-001  5.395919e-004
    outer loop
      vertex  2.945181e+000 -2.706642e+000  6.900000e+001
      vertex  1.659661e+000 -3.639440e+000  6.900000e+001
      vertex  1.850900e+000 -3.546007e+000  1.000000e+000
    endloop
  endfacet
  facet normal  2.723941e-001 -9.621856e-001 -5.559896e-004
    outer loop
      vertex  2.825410e-001 -3.990009e+000  1.000000e+000
      vertex  1.850900e+000 -3.546007e+000  1.000000e+000
      vertex  1.659661e+000 -3.639440e+000  6.900000e+001
    endloop
  endfacet
  facet normal  9.909695e-001 -1.340871e-001 -6.030572e-019
    outer loop
      vertex  3.856165e+000 -1.063010e+000  1.000000e+000
      vertex  4.000000e+000  2.449213e-016  1.000000e+000
      vertex  4.000000e+000 -6.938894e-018  5.700000e+001
    endloop
  endfacet
  facet normal  9.974552e-001 -7.128458e-002 -1.208796e-003
    outer loop
      vertex  3.856165e+000 -1.063010e+000  1.000000e+000
      vertex  4.000000e+000 -6.938894e-018  5.700000e+001
      vertex  3.959772e+000 -5.658642e-001  5.717547e+001
    endloop
  endfacet
  facet normal  9.833211e-001 -1.818777e-001 -2.039937e-004
    outer loop
      vertex  3.856165e+000 -1.063010e+000  1.000000e+000
      vertex  3.959772e+000 -5.658642e-001  5.717547e+001
      vertex  3.900602e+000 -8.861719e-001  5.753671e+001
    endloop
  endfacet
  facet normal  9.717786e-001 -2.358949e-001 -2.596398e-005
    outer loop
      vertex  3.856165e+000 -1.063010e+000  1.000000e+000
      vertex  3.900602e+000 -8.861719e-001  5.753671e+001
      vertex  3.872983e+000 -1.000000e+000  5.800000e+001
    endloop
  endfacet
  facet normal  9.562666e-001 -2.924967e-001  4.118265e-005
    outer loop
      vertex  3.856165e+000 -1.063010e+000  1.000000e+000
      vertex  3.872983e+000 -1.000000e+000  5.800000e+001
      vertex  3.766343e+000 -1.347095e+000  6.900000e+001
    endloop
  endfacet
  facet normal  8.896715e-001 -4.566007e-001 -7.323642e-004
    outer loop
      vertex  3.856165e+000 -1.063010e+000  1.000000e+000
      vertex  3.766343e+000 -1.347095e+000  6.900000e+001
      vertex  3.111907e+000 -2.513172e+000  1.000000e+000
    endloop
  endfacet
  facet normal -9.974827e-001 -7.091169e-002  0.000000e+000
    outer loop
      vertex -4.000000e+000  4.898425e-016  6.900000e+001
      vertex -4.000000e+000  4.898425e-016  5.900000e+001
      vertex -3.959772e+000 -5.658642e-001  5.882453e+001
    endloop
  endfacet
  facet normal -9.819804e-001 -1.888667e-001  6.620836e-003
    outer loop
      vertex -4.000000e+000  4.898425e-016  6.900000e+001
      vertex -3.959772e+000 -5.658642e-001  5.882453e+001
      vertex -3.900602e+000 -8.861719e-001  5.846329e+001
    endloop
  endfacet
  facet normal -9.548891e-001 -2.965351e-001  1.593167e-002
    outer loop
      vertex -4.000000e+000  4.898425e-016  6.900000e+001
      vertex -3.900602e+000 -8.861719e-001  5.846329e+001
      vertex -3.872983e+000 -1.000000e+000  5.800000e+001
    endloop
  endfacet
  facet normal -9.800713e-001 -1.985321e-001  6.731533e-003
    outer loop
      vertex -4.000000e+000  4.898425e-016  6.900000e+001
      vertex -3.872983e+000 -1.000000e+000  5.800000e+001
      vertex -3.684666e+000 -1.556676e+000  6.900000e+001
    endloop
  endfacet
  facet normal -9.790230e-001 -2.037496e-001 -1.243007e-004
    outer loop
      vertex -4.000000e+000  1.133100e-015  1.000000e+000
      vertex -3.667889e+000 -1.595804e+000  1.000000e+000
      vertex -3.684666e+000 -1.556676e+000  6.900000e+001
    endloop
  endfacet
  facet normal -9.117742e-001 -4.106592e-001 -5.172785e-003
    outer loop
      vertex -4.000000e+000  1.133100e-015  1.000000e+000
      vertex -3.684666e+000 -1.556676e+000  6.900000e+001
      vertex -3.872983e+000 -1.000000e+000  5.800000e+001
    endloop
  endfacet
  facet normal -9.697908e-001 -2.439291e-001 -2.118414e-003
    outer loop
      vertex -4.000000e+000  1.133100e-015  1.000000e+000
      vertex -3.872983e+000 -1.000000e+000  5.800000e+001
      vertex -3.900602e+000 -8.861719e-001  5.753671e+001
    endloop
  endfacet
  facet normal -9.831316e-001 -1.828963e-001 -1.138316e-003
    outer loop
      vertex -4.000000e+000  1.133100e-015  1.000000e+000
      vertex -3.900602e+000 -8.861719e-001  5.753671e+001
      vertex -3.959772e+000 -5.658642e-001  5.717547e+001
    endloop
  endfacet
  facet normal -9.974826e-001 -7.091168e-002  0.000000e+000
    outer loop
      vertex -4.000000e+000  1.133100e-015  1.000000e+000
      vertex -3.959772e+000 -5.658642e-001  5.717547e+001
      vertex -4.000000e+000  4.898425e-016  5.700000e+001
    endloop
  endfacet
  facet normal  9.701435e-001 -2.425254e-001  1.752511e-003
    outer loop
      vertex  3.766343e+000 -1.347095e+000  6.900000e+001
      vertex  3.872983e+000 -1.000000e+000  5.800000e+001
      vertex  3.900602e+000 -8.861719e-001  5.846329e+001
    endloop
  endfacet
  facet normal  9.824622e-001 -1.864107e-001  4.364186e-003
    outer loop
      vertex  3.766343e+000 -1.347095e+000  6.900000e+001
      vertex  3.900602e+000 -8.861719e-001  5.846329e+001
      vertex  3.959772e+000 -5.658642e-001  5.882453e+001
    endloop
  endfacet
  facet normal  9.970979e-001 -7.497693e-002  1.319782e-002
    outer loop
      vertex  3.766343e+000 -1.347095e+000  6.900000e+001
      vertex  3.959772e+000 -5.658642e-001  5.882453e+001
      vertex  4.000000e+000  0.000000e+000  5.900000e+001
    endloop
  endfacet
  facet normal  9.852883e-001 -1.709010e-001 -1.674292e-017
    outer loop
      vertex  3.766343e+000 -1.347095e+000  6.900000e+001
      vertex  4.000000e+000  0.000000e+000  5.900000e+001
      vertex  4.000000e+000 -9.796851e-016  6.900000e+001
    endloop
  endfacet
  facet normal -8.255650e-001 -5.643071e-001  1.210320e-004
    outer loop
      vertex -3.684666e+000 -1.556676e+000  6.900000e+001
      vertex -3.667889e+000 -1.595804e+000  1.000000e+000
      vertex -2.788381e+000 -2.867915e+000  6.900000e+001
    endloop
  endfacet
  facet normal -8.164508e-001 -5.774149e-001 -2.420634e-004
    outer loop
      vertex -2.788381e+000 -2.867915e+000  6.900000e+001
      vertex -3.667889e+000 -1.595804e+000  1.000000e+000
      vertex -2.726705e+000 -2.926616e+000  1.000000e+000
    endloop
  endfacet
  facet normal -5.408718e-001 -8.411050e-001  2.355194e-004
    outer loop
      vertex -2.788381e+000 -2.867915e+000  6.900000e+001
      vertex -2.726705e+000 -2.926616e+000  1.000000e+000
      vertex -1.452459e+000 -3.726978e+000  6.900000e+001
    endloop
  endfacet
  facet normal -5.183025e-001 -8.551973e-001 -3.532716e-004
    outer loop
      vertex -1.452459e+000 -3.726978e+000  6.900000e+001
      vertex -2.726705e+000 -2.926616e+000  1.000000e+000
      vertex -1.332736e+000 -3.771447e+000  1.000000e+000
    endloop
  endfacet
  facet normal -1.709011e-001 -9.852881e-001  3.434520e-004
    outer loop
      vertex -1.452459e+000 -3.726978e+000  6.900000e+001
      vertex -1.332736e+000 -3.771447e+000  1.000000e+000
      vertex  1.124670e-001 -3.998419e+000  6.900000e+001
    endloop
  endfacet
  facet normal -1.340870e-001 -9.909695e-001 -4.579193e-004
    outer loop
      vertex  1.124670e-001 -3.998419e+000  6.900000e+001
      vertex -1.332736e+000 -3.771447e+000  1.000000e+000
      vertex  2.825410e-001 -3.990009e+000  1.000000e+000
    endloop
  endfacet
  facet normal  2.260151e-001 -9.741237e-001  4.448113e-004
    outer loop
      vertex  1.124670e-001 -3.998419e+000  6.900000e+001
      vertex  2.825410e-001 -3.990009e+000  1.000000e+000
      vertex  1.659661e+000 -3.639440e+000  6.900000e+001
    endloop
  endfacet
  facet normal  9.974827e-001  7.091169e-002  6.947113e-018
    outer loop
      vertex  4.000000e+000 -9.796851e-016  6.900000e+001
      vertex  4.000000e+000  0.000000e+000  5.900000e+001
      vertex  3.959772e+000  5.658642e-001  5.882453e+001
    endloop
  endfacet
  facet normal  9.819804e-001  1.888667e-001  6.620836e-003
    outer loop
      vertex  4.000000e+000 -9.796851e-016  6.900000e+001
      vertex  3.959772e+000  5.658642e-001  5.882453e+001
      vertex  3.900602e+000  8.861719e-001  5.846329e+001
    endloop
  endfacet
  facet normal  9.548891e-001  2.965351e-001  1.593167e-002
    outer loop
      vertex  4.000000e+000 -9.796851e-016  6.900000e+001
      vertex  3.900602e+000  8.861719e-001  5.846329e+001
      vertex  3.872983e+000  1.000000e+000  5.800000e+001
    endloop
  endfacet
  facet normal  9.807651e-001  1.950864e-001  6.410272e-003
    outer loop
      vertex  4.000000e+000 -9.796851e-016  6.900000e+001
      vertex  3.872983e+000  1.000000e+000  5.800000e+001
      vertex  3.695518e+000  1.530734e+000  6.900000e+001
    endloop
  endfacet
  facet normal -9.807853e-001  1.950904e-001  2.240952e-018
    outer loop
      vertex -3.695518e+000  1.530734e+000  1.000000e+000
      vertex -4.000000e+000  1.133100e-015  1.000000e+000
      vertex -4.000000e+000  4.898425e-016  5.700000e+001
    endloop
  endfacet
  facet normal -9.974003e-001  7.197740e-002 -3.455575e-003
    outer loop
      vertex -3.695518e+000  1.530734e+000  1.000000e+000
      vertex -4.000000e+000  4.898425e-016  5.700000e+001
      vertex -3.959772e+000  5.658642e-001  5.717547e+001
    endloop
  endfacet
  facet normal -9.830624e-001  1.832651e-001 -1.476651e-003
    outer loop
      vertex -3.695518e+000  1.530734e+000  1.000000e+000
      vertex -3.959772e+000  5.658642e-001  5.717547e+001
      vertex -3.900602e+000  8.861719e-001  5.753671e+001
    endloop
  endfacet
  facet normal -9.710522e-001  2.388658e-001 -7.991946e-004
    outer loop
      vertex -3.695518e+000  1.530734e+000  1.000000e+000
      vertex -3.900602e+000  8.861719e-001  5.753671e+001
      vertex -3.872983e+000  1.000000e+000  5.800000e+001
    endloop
  endfacet
  facet normal -9.483858e-001  3.171189e-001  0.000000e+000
    outer loop
      vertex -3.695518e+000  1.530734e+000  1.000000e+000
      vertex -3.872983e+000  1.000000e+000  5.800000e+001
      vertex -3.695518e+000  1.530734e+000  6.900000e+001
    endloop
  endfacet
  facet normal  9.807852e-001  1.950904e-001  -0.000000e+000
    outer loop
      vertex  4.000000e+000  2.449213e-016  1.000000e+000
      vertex  3.695518e+000  1.530734e+000  1.000000e+000
      vertex  3.695518e+000  1.530734e+000  6.900000e+001
    endloop
  endfacet
  facet normal  9.109322e-001  4.125232e-001 -5.207365e-003
    outer loop
      vertex  4.000000e+000  2.449213e-016  1.000000e+000
      vertex  3.695518e+000  1.530734e+000  6.900000e+001
      vertex  3.872983e+000  1.000000e+000  5.800000e+001
    endloop
  endfacet
  facet normal  9.697908e-001  2.439291e-001 -2.118414e-003
    outer loop
      vertex  4.000000e+000  2.449213e-016  1.000000e+000
      vertex  3.872983e+000  1.000000e+000  5.800000e+001
      vertex  3.900602e+000  8.861719e-001  5.753671e+001
    endloop
  endfacet
  facet normal  9.831316e-001  1.828963e-001 -1.138316e-003
    outer loop
      vertex  4.000000e+000  2.449213e-016  1.000000e+000
      vertex  3.900602e+000  8.861719e-001  5.753671e+001
      vertex  3.959772e+000  5.658642e-001  5.717547e+001
    endloop
  endfacet
  facet normal  9.974826e-001  7.091168e-002  0.000000e+000
    outer loop
      vertex  4.000000e+000  2.449213e-016  1.000000e+000
      vertex  3.959772e+000  5.658642e-001  5.717547e+001
      vertex  4.000000e+000 -6.938894e-018  5.700000e+001
    endloop
  endfacet
  facet normal -9.683576e-001  2.495413e-001  3.582729e-003
    outer loop
      vertex -3.695518e+000  1.530734e+000  6.900000e+001
      vertex -3.872983e+000  1.000000e+000  5.800000e+001
      vertex -3.900602e+000  8.861719e-001  5.846329e+001
    endloop
  endfacet
  facet normal -9.817902e-001  1.898202e-001  7.497496e-003
    outer loop
      vertex -3.695518e+000  1.530734e+000  6.900000e+001
      vertex -3.900602e+000  8.861719e-001  5.846329e+001
      vertex -3.959772e+000  5.658642e-001  5.882453e+001
    endloop
  endfacet
  facet normal -9.968846e-001  7.664355e-002  1.862125e-002
    outer loop
      vertex -3.695518e+000  1.530734e+000  6.900000e+001
      vertex -3.959772e+000  5.658642e-001  5.882453e+001
      vertex -4.000000e+000  4.898425e-016  5.900000e+001
    endloop
  endfacet
  facet normal -9.807853e-001  1.950904e-001  0.000000e+000
    outer loop
      vertex -3.695518e+000  1.530734e+000  6.900000e+001
      vertex -4.000000e+000  4.898425e-016  5.900000e+001
      vertex -4.000000e+000  4.898425e-016  6.900000e+001
    endloop
  endfacet
  facet normal -8.314695e-001  5.555702e-001  0.000000e+000
    outer loop
      vertex -3.695518e+000  1.530734e+000  1.000000e+000
      vertex -3.695518e+000  1.530734e+000  6.900000e+001
      vertex -2.828427e+000  2.828427e+000  1.000000e+000
    endloop
  endfacet
  facet normal -8.314695e-001  5.555702e-001  0.000000e+000
    outer loop
      vertex -2.828427e+000  2.828427e+000  1.000000e+000
      vertex -3.695518e+000  1.530734e+000  6.900000e+001
      vertex -2.828427e+000  2.828427e+000  6.900000e+001
    endloop
  endfacet
  facet normal -5.555702e-001  8.314695e-001  0.000000e+000
    outer loop
      vertex -2.828427e+000  2.828427e+000  1.000000e+000
      vertex -2.828427e+000  2.828427e+000  6.900000e+001
      vertex -1.530734e+000  3.695518e+000  1.000000e+000
    endloop
  endfacet
  facet normal -5.555702e-001  8.314695e-001  0.000000e+000
    outer loop
      vertex -1.530734e+000  3.695518e+000  1.000000e+000
      vertex -2.828427e+000  2.828427e+000  6.900000e+001
      vertex -1.530734e+000  3.695518e+000  6.900000e+001
    endloop
  endfacet
  facet normal -1.950904e-001  9.807852e-001  0.000000e+000
    outer loop
      vertex -1.530734e+000  3.695518e+000  1.000000e+000
      vertex -1.530734e+000  3.695518e+000  6.900000e+001
      vertex  1.054712e-015  4.000000e+000  1.000000e+000
    endloop
  endfacet
  facet normal -1.950904e-001  9.807852e-001  2.248928e-019
    outer loop
      vertex  1.054712e-015  4.000000e+000  1.000000e+000
      vertex -1.530734e+000  3.695518e+000  6.900000e+001
      vertex  1.133100e-015  4.000000e+000  6.900000e+001
    endloop
  endfacet
  facet normal  1.950904e-001  9.807852e-001 -2.248928e-019
    outer loop
      vertex  1.054712e-015  4.000000e+000  1.000000e+000
      vertex  1.133100e-015  4.000000e+000  6.900000e+001
      vertex  1.530734e+000  3.695518e+000  1.000000e+000
    endloop
  endfacet
  facet normal  1.950904e-001  9.807852e-001  -0.000000e+000
    outer loop
      vertex  1.530734e+000  3.695518e+000  1.000000e+000
      vertex  1.133100e-015  4.000000e+000  6.900000e+001
      vertex  1.530734e+000  3.695518e+000  6.900000e+001
    endloop
  endfacet
  facet normal  5.555702e-001  8.314695e-001  0.000000e+000
    outer loop
      vertex  1.530734e+000  3.695518e+000  1.000000e+000
      vertex  1.530734e+000  3.695518e+000  6.900000e+001
      vertex  2.828427e+000  2.828427e+000  1.000000e+000
    endloop
  endfacet
  facet normal  5.555702e-001  8.314695e-001  -0.000000e+000
    outer loop
      vertex  2.828427e+000  2.828427e+000  1.000000e+000
      vertex  1.530734e+000  3.695518e+000  6.900000e+001
      vertex  2.828427e+000  2.828427e+000  6.900000e+001
    endloop
  endfacet
  facet normal  8.314695e-001  5.555702e-001  0.000000e+000
    outer loop
      vertex  2.828427e+000  2.828427e+000  1.000000e+000
      vertex  2.828427e+000  2.828427e+000  6.900000e+001
      vertex  3.695518e+000  1.530734e+000  1.000000e+000
    endloop
  endfacet
  facet normal  8.314695e-001  5.555702e-001  -0.000000e+000
    outer loop
      vertex  3.695518e+000  1.530734e+000  1.000000e+000
      vertex  2.828427e+000  2.828427e+000  6.900000e+001
      vertex  3.695518e+000  1.530734e+000  6.900000e+001
    endloop
  endfacet
  facet normal  7.038924e-001 -9.524298e-002 -7.038923e-001
    outer loop
      vertex  3.856165e+000 -1.063010e+000  1.000000e+000
      vertex  2.892124e+000 -7.972574e-001  1.299405e-012
      vertex  4.000000e+000  2.449213e-016  1.000000e+000
    endloop
  endfacet
  facet normal  7.038923e-001 -9.524292e-002 -7.038923e-001
    outer loop
      vertex  4.000000e+000  2.449213e-016  1.000000e+000
      vertex  2.892124e+000 -7.972574e-001  1.299405e-012
      vertex  3.000000e+000 -3.763656e-014 -2.697167e-010
    endloop
  endfacet
  facet normal -6.995724e-001 -1.455917e-001 -6.995724e-001
    outer loop
      vertex -3.000000e+000  3.673819e-016 -2.697167e-010
      vertex -3.667889e+000 -1.595804e+000  1.000000e+000
      vertex -4.000000e+000  1.133100e-015  1.000000e+000
    endloop
  endfacet
  facet normal -6.776598e-001 -1.653923e-001 -7.165352e-001
    outer loop
      vertex -3.000000e+000  3.673819e-016 -2.697167e-010
      vertex -2.662689e+000 -1.382058e+000  1.601830e-012
      vertex -3.667889e+000 -1.595804e+000  1.000000e+000
    endloop
  endfacet
  facet normal  6.093386e-001 -3.395348e-001 -7.165352e-001
    outer loop
      vertex  2.892124e+000 -7.972574e-001  1.299405e-012
      vertex  3.111907e+000 -2.513172e+000  1.000000e+000
      vertex  2.199657e+000 -2.039978e+000  1.274536e-012
    endloop
  endfacet
  facet normal  6.357254e-001 -3.262694e-001 -6.995724e-001
    outer loop
      vertex  2.892124e+000 -7.972574e-001  1.299405e-012
      vertex  3.856165e+000 -1.063010e+000  1.000000e+000
      vertex  3.111907e+000 -2.513172e+000  1.000000e+000
    endloop
  endfacet
  facet normal -5.936678e-001 -4.198570e-001 -6.864972e-001
    outer loop
      vertex -2.662689e+000 -1.382058e+000  1.601830e-012
      vertex -2.726705e+000 -2.926616e+000  1.000000e+000
      vertex -3.667889e+000 -1.595804e+000  1.000000e+000
    endloop
  endfacet
  facet normal -3.808448e-001 -6.283927e-001 -6.782918e-001
    outer loop
      vertex -1.726610e+000 -2.453328e+000  1.675104e-012
      vertex -1.332736e+000 -3.771447e+000  1.000000e+000
      vertex -2.726705e+000 -2.926616e+000  1.000000e+000
    endloop
  endfacet
  facet normal -5.155765e-001 -4.505127e-001 -7.288477e-001
    outer loop
      vertex -1.726610e+000 -2.453328e+000  1.675104e-012
      vertex -2.726705e+000 -2.926616e+000  1.000000e+000
      vertex -2.662689e+000 -1.382058e+000  1.601830e-012
    endloop
  endfacet
  facet normal -9.887111e-002 -7.307063e-001 -6.754944e-001
    outer loop
      vertex -4.022613e-001 -2.972909e+000  1.634692e-012
      vertex  2.825410e-001 -3.990009e+000  1.000000e+000
      vertex -1.332736e+000 -3.771447e+000  1.000000e+000
    endloop
  endfacet
  facet normal -2.477414e-001 -6.314628e-001 -7.347645e-001
    outer loop
      vertex -4.022613e-001 -2.972909e+000  1.634692e-012
      vertex -1.332736e+000 -3.771447e+000  1.000000e+000
      vertex -1.726610e+000 -2.453328e+000  1.675104e-012
    endloop
  endfacet
  facet normal  2.001532e-001 -7.070071e-001 -6.782918e-001
    outer loop
      vertex  1.012545e+000 -2.823960e+000  1.490363e-012
      vertex  1.850900e+000 -3.546007e+000  1.000000e+000
      vertex  2.825410e-001 -3.990009e+000  1.000000e+000
    endloop
  endfacet
  facet normal  7.102012e-002 -6.745941e-001 -7.347645e-001
    outer loop
      vertex  1.012545e+000 -2.823960e+000  1.490363e-012
      vertex  2.825410e-001 -3.990009e+000  1.000000e+000
      vertex -4.022613e-001 -2.972909e+000  1.634692e-012
    endloop
  endfacet
  facet normal  4.607422e-001 -5.625282e-001 -6.864973e-001
    outer loop
      vertex  2.199657e+000 -2.039978e+000  1.274536e-012
      vertex  3.111907e+000 -2.513172e+000  1.000000e+000
      vertex  1.850900e+000 -3.546007e+000  1.000000e+000
    endloop
  endfacet
  facet normal  3.773122e-001 -5.713286e-001 -7.288477e-001
    outer loop
      vertex  2.199657e+000 -2.039978e+000  1.274536e-012
      vertex  1.850900e+000 -3.546007e+000  1.000000e+000
      vertex  1.012545e+000 -2.823960e+000  1.490363e-012
    endloop
  endfacet
  facet normal  2.330789e-001 -4.435217e-001 -8.654263e-001
    outer loop
      vertex  1.500000e+000 -1.581141e+000 -4.499999e+000
      vertex  1.803927e+000 -2.397050e+000 -4.000000e+000
      vertex  9.510126e-001 -2.845272e+000 -4.000000e+000
    endloop
  endfacet
  facet normal  3.856903e-001 -3.733642e-001 -8.437073e-001
    outer loop
      vertex  1.500000e+000 -1.581141e+000 -4.499999e+000
      vertex  2.454358e+000 -1.725146e+000 -4.000000e+000
      vertex  1.803927e+000 -2.397050e+000 -4.000000e+000
    endloop
  endfacet
  facet normal  7.529484e-002 -4.627894e-001 -8.832647e-001
    outer loop
      vertex -5.510729e-016 -3.000000e+000 -4.000000e+000
      vertex -8.713226e-016 -1.581141e+000 -4.743416e+000
      vertex  9.510126e-001 -2.845272e+000 -4.000000e+000
    endloop
  endfacet
  facet normal  9.192571e-002  4.621418e-001 -8.820286e-001
    outer loop
      vertex -1.814710e-015  3.000000e+000 -4.000000e+000
      vertex  1.148050e+000  2.771639e+000 -4.000000e+000
      vertex -8.713226e-016  1.581141e+000 -4.743416e+000
    endloop
  endfacet
  facet normal  1.454179e-001  4.193464e-001 -8.961039e-001
    outer loop
      vertex -8.713226e-016  1.581141e+000 -4.743416e+000
      vertex  1.148050e+000  2.771639e+000 -4.000000e+000
      vertex  1.500000e+000  1.581141e+000 -4.499999e+000
    endloop
  endfacet
  facet normal  1.581662e-001  1.581661e-001 -9.746625e-001
    outer loop
      vertex -8.713226e-016  1.581141e+000 -4.743416e+000
      vertex  1.500000e+000  1.581141e+000 -4.499999e+000
      vertex -9.184548e-016 -7.522871e-013 -5.000000e+000
    endloop
  endfacet
  facet normal  1.581661e-001  1.581662e-001 -9.746625e-001
    outer loop
      vertex -9.184548e-016 -7.522871e-013 -5.000000e+000
      vertex  1.500000e+000  1.581141e+000 -4.499999e+000
      vertex  1.581139e+000 -7.527312e-013 -4.743416e+000
    endloop
  endfacet
  facet normal  1.581661e-001 -1.581661e-001 -9.746625e-001
    outer loop
      vertex -9.184548e-016 -7.522871e-013 -5.000000e+000
      vertex  1.581139e+000 -7.527312e-013 -4.743416e+000
      vertex -8.713226e-016 -1.581141e+000 -4.743416e+000
    endloop
  endfacet
  facet normal  1.581662e-001 -1.581662e-001 -9.746625e-001
    outer loop
      vertex -8.713226e-016 -1.581141e+000 -4.743416e+000
      vertex  1.581139e+000 -7.527312e-013 -4.743416e+000
      vertex  1.500000e+000 -1.581141e+000 -4.499999e+000
    endloop
  endfacet
  facet normal  1.455251e-001 -4.178940e-001 -8.967648e-001
    outer loop
      vertex -8.713226e-016 -1.581141e+000 -4.743416e+000
      vertex  1.500000e+000 -1.581141e+000 -4.499999e+000
      vertex  9.510126e-001 -2.845272e+000 -4.000000e+000
    endloop
  endfacet
  facet normal  4.286110e-001 -2.103121e-001 -8.786703e-001
    outer loop
      vertex  2.454358e+000 -1.725146e+000 -4.000000e+000
      vertex  1.500000e+000 -1.581141e+000 -4.499999e+000
      vertex  2.866302e+000 -8.856124e-001 -4.000000e+000
    endloop
  endfacet
  facet normal  4.097786e-001 -1.593017e-001 -8.981672e-001
    outer loop
      vertex  2.866302e+000 -8.856124e-001 -4.000000e+000
      vertex  1.500000e+000 -1.581141e+000 -4.499999e+000
      vertex  1.581139e+000 -7.527312e-013 -4.743416e+000
    endloop
  endfacet
  facet normal  4.629716e-001 -6.989305e-002 -8.836132e-001
    outer loop
      vertex  2.866302e+000 -8.856124e-001 -4.000000e+000
      vertex  1.581139e+000 -7.527312e-013 -4.743416e+000
      vertex  3.000000e+000  0.000000e+000 -4.000000e+000
    endloop
  endfacet
  facet normal  2.959583e-001  4.429327e-001 -8.462974e-001
    outer loop
      vertex  1.148050e+000  2.771639e+000 -4.000000e+000
      vertex  2.121320e+000  2.121320e+000 -4.000000e+000
      vertex  1.500000e+000  1.581141e+000 -4.499999e+000
    endloop
  endfacet
  facet normal  4.341351e-001  2.900799e-001 -8.528659e-001
    outer loop
      vertex  1.500000e+000  1.581141e+000 -4.499999e+000
      vertex  2.121320e+000  2.121320e+000 -4.000000e+000
      vertex  2.771639e+000  1.148050e+000 -4.000000e+000
    endloop
  endfacet
  facet normal  4.077754e-001  1.593382e-001 -8.990720e-001
    outer loop
      vertex  1.500000e+000  1.581141e+000 -4.499999e+000
      vertex  2.771639e+000  1.148050e+000 -4.000000e+000
      vertex  1.581139e+000 -7.527312e-013 -4.743416e+000
    endloop
  endfacet
  facet normal  4.621415e-001  9.192564e-002 -8.820288e-001
    outer loop
      vertex  1.581139e+000 -7.527312e-013 -4.743416e+000
      vertex  2.771639e+000  1.148050e+000 -4.000000e+000
      vertex  3.000000e+000  0.000000e+000 -4.000000e+000
    endloop
  endfacet
  facet normal -2.959583e-001  4.429327e-001 -8.462974e-001
    outer loop
      vertex -1.148050e+000  2.771639e+000 -4.000000e+000
      vertex -1.500000e+000  1.581141e+000 -4.499999e+000
      vertex -2.121320e+000  2.121320e+000 -4.000000e+000
    endloop
  endfacet
  facet normal -9.192571e-002 -4.621418e-001 -8.820286e-001
    outer loop
      vertex -5.510729e-016 -3.000000e+000 -4.000000e+000
      vertex -1.148050e+000 -2.771639e+000 -4.000000e+000
      vertex -8.713226e-016 -1.581141e+000 -4.743416e+000
    endloop
  endfacet
  facet normal -1.454179e-001 -4.193464e-001 -8.961039e-001
    outer loop
      vertex -8.713226e-016 -1.581141e+000 -4.743416e+000
      vertex -1.148050e+000 -2.771639e+000 -4.000000e+000
      vertex -1.500000e+000 -1.581141e+000 -4.499999e+000
    endloop
  endfacet
  facet normal -1.581662e-001 -1.581661e-001 -9.746625e-001
    outer loop
      vertex -8.713226e-016 -1.581141e+000 -4.743416e+000
      vertex -1.500000e+000 -1.581141e+000 -4.499999e+000
      vertex -9.184548e-016 -7.522871e-013 -5.000000e+000
    endloop
  endfacet
  facet normal -1.581661e-001 -1.581662e-001 -9.746625e-001
    outer loop
      vertex -9.184548e-016 -7.522871e-013 -5.000000e+000
      vertex -1.500000e+000 -1.581141e+000 -4.499999e+000
      vertex -1.581139e+000 -7.522871e-013 -4.743416e+000
    endloop
  endfacet
  facet normal -1.581661e-001  1.581661e-001 -9.746625e-001
    outer loop
      vertex -9.184548e-016 -7.522871e-013 -5.000000e+000
      vertex -1.581139e+000 -7.522871e-013 -4.743416e+000
      vertex -8.713226e-016  1.581141e+000 -4.743416e+000
    endloop
  endfacet
  facet normal -1.581662e-001  1.581662e-001 -9.746625e-001
    outer loop
      vertex -8.713226e-016  1.581141e+000 -4.743416e+000
      vertex -1.581139e+000 -7.522871e-013 -4.743416e+000
      vertex -1.500000e+000  1.581141e+000 -4.499999e+000
    endloop
  endfacet
  facet normal -1.422800e-001  4.593853e-001 -8.767676e-001
    outer loop
      vertex -8.713226e-016  1.581141e+000 -4.743416e+000
      vertex -1.500000e+000  1.581141e+000 -4.499999e+000
      vertex -1.814710e-015  3.000000e+000 -4.000000e+000
    endloop
  endfacet
  facet normal -8.079208e-002  4.061693e-001 -9.102193e-001
    outer loop
      vertex -1.814710e-015  3.000000e+000 -4.000000e+000
      vertex -1.500000e+000  1.581141e+000 -4.499999e+000
      vertex -1.148050e+000  2.771639e+000 -4.000000e+000
    endloop
  endfacet
  facet normal -2.959583e-001 -4.429327e-001 -8.462974e-001
    outer loop
      vertex -1.148050e+000 -2.771639e+000 -4.000000e+000
      vertex -2.121320e+000 -2.121320e+000 -4.000000e+000
      vertex -1.500000e+000 -1.581141e+000 -4.499999e+000
    endloop
  endfacet
  facet normal -4.341351e-001 -2.900799e-001 -8.528659e-001
    outer loop
      vertex -1.500000e+000 -1.581141e+000 -4.499999e+000
      vertex -2.121320e+000 -2.121320e+000 -4.000000e+000
      vertex -2.771639e+000 -1.148050e+000 -4.000000e+000
    endloop
  endfacet
  facet normal -4.077754e-001 -1.593382e-001 -8.990720e-001
    outer loop
      vertex -1.500000e+000 -1.581141e+000 -4.499999e+000
      vertex -2.771639e+000 -1.148050e+000 -4.000000e+000
      vertex -1.581139e+000 -7.522871e-013 -4.743416e+000
    endloop
  endfacet
  facet normal -4.621415e-001 -9.192564e-002 -8.820288e-001
    outer loop
      vertex -1.581139e+000 -7.522871e-013 -4.743416e+000
      vertex -2.771639e+000 -1.148050e+000 -4.000000e+000
      vertex -3.000000e+000  3.673819e-016 -4.000000e+000
    endloop
  endfacet
  facet normal -4.582646e-001  1.581662e-001 -8.746296e-001
    outer loop
      vertex -1.581139e+000 -7.522871e-013 -4.743416e+000
      vertex -3.000000e+000  3.673819e-016 -4.000000e+000
      vertex -1.500000e+000  1.581141e+000 -4.499999e+000
    endloop
  endfacet
  facet normal -3.874587e-001  7.707030e-002 -9.186599e-001
    outer loop
      vertex -1.500000e+000  1.581141e+000 -4.499999e+000
      vertex -3.000000e+000  3.673819e-016 -4.000000e+000
      vertex -2.771639e+000  1.148050e+000 -4.000000e+000
    endloop
  endfacet
  facet normal -4.341351e-001  2.900799e-001 -8.528659e-001
    outer loop
      vertex -1.500000e+000  1.581141e+000 -4.499999e+000
      vertex -2.771639e+000  1.148050e+000 -4.000000e+000
      vertex -2.121320e+000  2.121320e+000 -4.000000e+000
    endloop
  endfacet
  facet normal  7.002144e-001  1.392814e-001 -7.002144e-001
    outer loop
      vertex  3.000000e+000 -3.763656e-014 -2.697167e-010
      vertex  3.695518e+000  1.530734e+000  1.000000e+000
      vertex  4.000000e+000  2.449213e-016  1.000000e+000
    endloop
  endfacet
  facet normal  6.829628e-001  1.558818e-001 -7.136264e-001
    outer loop
      vertex  3.000000e+000 -3.763656e-014 -2.697167e-010
      vertex  2.702907e+000  1.301651e+000 -2.697167e-010
      vertex  3.695518e+000  1.530734e+000  1.000000e+000
    endloop
  endfacet
  facet normal -6.829628e-001  1.558818e-001 -7.136264e-001
    outer loop
      vertex -3.000000e+000  3.673819e-016 -2.697167e-010
      vertex -3.695518e+000  1.530734e+000  1.000000e+000
      vertex -2.702907e+000  1.301651e+000 -2.697167e-010
    endloop
  endfacet
  facet normal -7.002144e-001  1.392814e-001 -7.002144e-001
    outer loop
      vertex -3.000000e+000  3.673819e-016 -2.697167e-010
      vertex -4.000000e+000  1.133100e-015  1.000000e+000
      vertex -3.695518e+000  1.530734e+000  1.000000e+000
    endloop
  endfacet
  facet normal  6.020336e-001  4.022659e-001 -6.897374e-001
    outer loop
      vertex  2.702907e+000  1.301651e+000 -2.697167e-010
      vertex  2.828427e+000  2.828427e+000  1.000000e+000
      vertex  3.695518e+000  1.530734e+000  1.000000e+000
    endloop
  endfacet
  facet normal  4.060668e-001  6.077219e-001 -6.824835e-001
    outer loop
      vertex  1.870469e+000  2.345495e+000 -2.697167e-010
      vertex  1.530734e+000  3.695518e+000  1.000000e+000
      vertex  2.828427e+000  2.828427e+000  1.000000e+000
    endloop
  endfacet
  facet normal  5.391766e-001  4.299790e-001 -7.241592e-001
    outer loop
      vertex  1.870469e+000  2.345495e+000 -2.697167e-010
      vertex  2.828427e+000  2.828427e+000  1.000000e+000
      vertex  2.702907e+000  1.301651e+000 -2.697167e-010
    endloop
  endfacet
  facet normal  1.432642e-001  7.202376e-001 -6.787733e-001
    outer loop
      vertex  6.675628e-001  2.924784e+000 -2.697167e-010
      vertex  1.054712e-015  4.000000e+000  1.000000e+000
      vertex  1.530734e+000  3.695518e+000  1.000000e+000
    endloop
  endfacet
  facet normal  2.964169e-001  6.155162e-001 -7.302580e-001
    outer loop
      vertex  6.675628e-001  2.924784e+000 -2.697167e-010
      vertex  1.530734e+000  3.695518e+000  1.000000e+000
      vertex  1.870469e+000  2.345495e+000 -2.697167e-010
    endloop
  endfacet
  facet normal -1.432642e-001  7.202376e-001 -6.787733e-001
    outer loop
      vertex -6.675628e-001  2.924784e+000 -2.697167e-010
      vertex -1.530734e+000  3.695518e+000  1.000000e+000
      vertex  1.054712e-015  4.000000e+000  1.000000e+000
    endloop
  endfacet
  facet normal  0.000000e+000  6.810305e-001 -7.322550e-001
    outer loop
      vertex -6.675628e-001  2.924784e+000 -2.697167e-010
      vertex  1.054712e-015  4.000000e+000  1.000000e+000
      vertex  6.675628e-001  2.924784e+000 -2.697167e-010
    endloop
  endfacet
  facet normal -4.060668e-001  6.077219e-001 -6.824835e-001
    outer loop
      vertex -1.870469e+000  2.345495e+000 -2.697167e-010
      vertex -2.828427e+000  2.828427e+000  1.000000e+000
      vertex -1.530734e+000  3.695518e+000  1.000000e+000
    endloop
  endfacet
  facet normal -2.964169e-001  6.155162e-001 -7.302580e-001
    outer loop
      vertex -1.870469e+000  2.345495e+000 -2.697167e-010
      vertex -1.530734e+000  3.695518e+000  1.000000e+000
      vertex -6.675628e-001  2.924784e+000 -2.697167e-010
    endloop
  endfacet
  facet normal -6.020336e-001  4.022659e-001 -6.897374e-001
    outer loop
      vertex -2.702907e+000  1.301651e+000 -2.697167e-010
      vertex -3.695518e+000  1.530734e+000  1.000000e+000
      vertex -2.828427e+000  2.828427e+000  1.000000e+000
    endloop
  endfacet
  facet normal -5.391766e-001  4.299790e-001 -7.241592e-001
    outer loop
      vertex -2.702907e+000  1.301651e+000 -2.697167e-010
      vertex -2.828427e+000  2.828427e+000  1.000000e+000
      vertex -1.870469e+000  2.345495e+000 -2.697167e-010
    endloop
  endfacet
  facet normal -3.651442e-001 -9.307084e-001  2.124920e-002
    outer loop
      vertex -4.022613e-001 -2.972909e+000  1.634692e-012
      vertex -1.726610e+000 -2.453328e+000  1.675104e-012
      vertex -1.148050e+000 -2.771639e+000 -4.000000e+000
    endloop
  endfacet
  facet normal -5.555144e-001 -8.313858e-001 -1.418980e-002
    outer loop
      vertex -1.148050e+000 -2.771639e+000 -4.000000e+000
      vertex -1.726610e+000 -2.453328e+000  1.675104e-012
      vertex -2.121320e+000 -2.121320e+000 -4.000000e+000
    endloop
  endfacet
  facet normal -7.528770e-001 -6.578668e-001  1.968787e-002
    outer loop
      vertex -2.121320e+000 -2.121320e+000 -4.000000e+000
      vertex -1.726610e+000 -2.453328e+000  1.675104e-012
      vertex -2.662689e+000 -1.382058e+000  1.601830e-012
    endloop
  endfacet
  facet normal  9.887958e-001 -1.492747e-001 -1.404547e-015
    outer loop
      vertex  3.000000e+000  0.000000e+000 -4.000000e+000
      vertex  3.000000e+000 -3.763656e-014 -2.697167e-010
      vertex  2.866302e+000 -8.856124e-001 -4.000000e+000
    endloop
  endfacet
  facet normal  9.909636e-001 -1.340863e-001 -3.435231e-003
    outer loop
      vertex  2.866302e+000 -8.856124e-001 -4.000000e+000
      vertex  3.000000e+000 -3.763656e-014 -2.697167e-010
      vertex  2.892124e+000 -7.972574e-001  1.299405e-012
    endloop
  endfacet
  facet normal  8.977409e-001 -4.405062e-001  3.934989e-003
    outer loop
      vertex  2.866302e+000 -8.856124e-001 -4.000000e+000
      vertex  2.892124e+000 -7.972574e-001  1.299405e-012
      vertex  2.454358e+000 -1.725146e+000 -4.000000e+000
    endloop
  endfacet
  facet normal  8.734090e-001 -4.866797e-001  1.730889e-002
    outer loop
      vertex  2.454358e+000 -1.725146e+000 -4.000000e+000
      vertex  2.892124e+000 -7.972574e-001  1.299405e-012
      vertex  2.199657e+000 -2.039978e+000  1.274536e-012
    endloop
  endfacet
  facet normal  7.184654e-001 -6.955044e-001 -8.993306e-003
    outer loop
      vertex  2.454358e+000 -1.725146e+000 -4.000000e+000
      vertex  2.199657e+000 -2.039978e+000  1.274536e-012
      vertex  1.803927e+000 -2.397050e+000 -4.000000e+000
    endloop
  endfacet
  facet normal  4.649407e-001 -8.847274e-001  3.298016e-002
    outer loop
      vertex  1.803927e+000 -2.397050e+000 -4.000000e+000
      vertex  2.199657e+000 -2.039978e+000  1.274536e-012
      vertex  9.510126e-001 -2.845272e+000 -4.000000e+000
    endloop
  endfacet
  facet normal  5.510771e-001 -8.344446e-001 -4.031400e-003
    outer loop
      vertex  9.510126e-001 -2.845272e+000 -4.000000e+000
      vertex  2.199657e+000 -2.039978e+000  1.274536e-012
      vertex  1.012545e+000 -2.823960e+000  1.490363e-012
    endloop
  endfacet
  facet normal  1.605857e-001 -9.870180e-001  2.788512e-003
    outer loop
      vertex  9.510126e-001 -2.845272e+000 -4.000000e+000
      vertex  1.012545e+000 -2.823960e+000  1.490363e-012
      vertex -5.510729e-016 -3.000000e+000 -4.000000e+000
    endloop
  endfacet
  facet normal  1.046841e-001 -9.943557e-001  1.726218e-002
    outer loop
      vertex -5.510729e-016 -3.000000e+000 -4.000000e+000
      vertex  1.012545e+000 -2.823960e+000  1.490363e-012
      vertex -4.022613e-001 -2.972909e+000  1.634692e-012
    endloop
  endfacet
  facet normal -1.950739e-001 -9.807028e-001 -1.297555e-002
    outer loop
      vertex -5.510729e-016 -3.000000e+000 -4.000000e+000
      vertex -4.022613e-001 -2.972909e+000  1.634692e-012
      vertex -1.148050e+000 -2.771639e+000 -4.000000e+000
    endloop
  endfacet
  facet normal -9.714842e-001 -2.371043e-001  0.000000e+000
    outer loop
      vertex -3.000000e+000  3.673819e-016 -2.697167e-010
      vertex -3.000000e+000  3.673819e-016 -4.000000e+000
      vertex -2.662689e+000 -1.382058e+000  1.601830e-012
    endloop
  endfacet
  facet normal -9.806705e-001 -1.950675e-001  1.529898e-002
    outer loop
      vertex -2.662689e+000 -1.382058e+000  1.601830e-012
      vertex -3.000000e+000  3.673819e-016 -4.000000e+000
      vertex -2.771639e+000 -1.148050e+000 -4.000000e+000
    endloop
  endfacet
  facet normal -8.314291e-001 -5.555434e-001 -9.854509e-003
    outer loop
      vertex -2.662689e+000 -1.382058e+000  1.601830e-012
      vertex -2.771639e+000 -1.148050e+000 -4.000000e+000
      vertex -2.121320e+000 -2.121320e+000 -4.000000e+000
    endloop
  endfacet
  facet normal -4.338163e-001  9.008290e-001  1.762145e-002
    outer loop
      vertex -1.870469e+000  2.345495e+000 -2.697167e-010
      vertex -6.675628e-001  2.924784e+000 -2.697167e-010
      vertex -1.148050e+000  2.771639e+000 -4.000000e+000
    endloop
  endfacet
  facet normal  4.338163e-001  9.008290e-001  1.762145e-002
    outer loop
      vertex  1.148050e+000  2.771639e+000 -4.000000e+000
      vertex  6.675628e-001  2.924784e+000 -2.697167e-010
      vertex  1.870469e+000  2.345495e+000 -2.697167e-010
    endloop
  endfacet
  facet normal -1.950709e-001  9.806876e-001 -1.411459e-002
    outer loop
      vertex -1.814710e-015  3.000000e+000 -4.000000e+000
      vertex -1.148050e+000  2.771639e+000 -4.000000e+000
      vertex -6.675628e-001  2.924784e+000 -2.697167e-010
    endloop
  endfacet
  facet normal  -0.000000e+000  9.998233e-001  1.880075e-002
    outer loop
      vertex -1.814710e-015  3.000000e+000 -4.000000e+000
      vertex -6.675628e-001  2.924784e+000 -2.697167e-010
      vertex  6.675628e-001  2.924784e+000 -2.697167e-010
    endloop
  endfacet
  facet normal  1.950709e-001  9.806876e-001 -1.411459e-002
    outer loop
      vertex -1.814710e-015  3.000000e+000 -4.000000e+000
      vertex  6.675628e-001  2.924784e+000 -2.697167e-010
      vertex  1.148050e+000  2.771639e+000 -4.000000e+000
    endloop
  endfacet
  facet normal -9.807852e-001  1.950903e-001  0.000000e+000
    outer loop
      vertex -3.000000e+000  3.673819e-016 -4.000000e+000
      vertex -3.000000e+000  3.673819e-016 -2.697167e-010
      vertex -2.771639e+000  1.148050e+000 -4.000000e+000
    endloop
  endfacet
  facet normal -9.748951e-001  2.225134e-001  8.207059e-003
    outer loop
      vertex -2.771639e+000  1.148050e+000 -4.000000e+000
      vertex -3.000000e+000  3.673819e-016 -2.697167e-010
      vertex -2.702907e+000  1.301651e+000 -2.697167e-010
    endloop
  endfacet
  facet normal -8.314489e-001  5.555565e-001 -7.046710e-003
    outer loop
      vertex -2.771639e+000  1.148050e+000 -4.000000e+000
      vertex -2.702907e+000  1.301651e+000 -2.697167e-010
      vertex -2.121320e+000  2.121320e+000 -4.000000e+000
    endloop
  endfacet
  facet normal -7.817540e-001  6.234279e-001  1.408678e-002
    outer loop
      vertex -2.121320e+000  2.121320e+000 -4.000000e+000
      vertex -2.702907e+000  1.301651e+000 -2.697167e-010
      vertex -1.870469e+000  2.345495e+000 -2.697167e-010
    endloop
  endfacet
  facet normal -5.555320e-001  8.314121e-001 -1.175639e-002
    outer loop
      vertex -2.121320e+000  2.121320e+000 -4.000000e+000
      vertex -1.870469e+000  2.345495e+000 -2.697167e-010
      vertex -1.148050e+000  2.771639e+000 -4.000000e+000
    endloop
  endfacet
  facet normal  9.749279e-001  2.225209e-001  2.093731e-015
    outer loop
      vertex  3.000000e+000 -3.763656e-014 -2.697167e-010
      vertex  3.000000e+000  0.000000e+000 -4.000000e+000
      vertex  2.702907e+000  1.301651e+000 -2.697167e-010
    endloop
  endfacet
  facet normal  9.807423e-001  1.950817e-001  9.360916e-003
    outer loop
      vertex  2.702907e+000  1.301651e+000 -2.697167e-010
      vertex  3.000000e+000  0.000000e+000 -4.000000e+000
      vertex  2.771639e+000  1.148050e+000 -4.000000e+000
    endloop
  endfacet
  facet normal  7.817883e-001  6.234553e-001 -1.050736e-002
    outer loop
      vertex  2.702907e+000  1.301651e+000 -2.697167e-010
      vertex  2.771639e+000  1.148050e+000 -4.000000e+000
      vertex  1.870469e+000  2.345495e+000 -2.697167e-010
    endloop
  endfacet
  facet normal  8.312861e-001  5.554478e-001  2.100292e-002
    outer loop
      vertex  1.870469e+000  2.345495e+000 -2.697167e-010
      vertex  2.771639e+000  1.148050e+000 -4.000000e+000
      vertex  2.121320e+000  2.121320e+000 -4.000000e+000
    endloop
  endfacet
  facet normal  5.555320e-001  8.314121e-001 -1.175639e-002
    outer loop
      vertex  1.870469e+000  2.345495e+000 -2.697167e-010
      vertex  2.121320e+000  2.121320e+000 -4.000000e+000
      vertex  1.148050e+000  2.771639e+000 -4.000000e+000
    endloop
  endfacet
endsolid CATIA STL
