solid CATIA STL
  facet normal -2.469425e-001  9.216024e-001  2.994467e-001
    outer loop
      vertex  5.000000e-001  1.500000e+000 -3.673819e-016
      vertex  0.000000e+000  1.366025e+000  1.100750e-015
      vertex  5.000000e-001  1.213526e+000  8.816779e-001
    endloop
  endfacet
  facet normal -2.469426e-001  9.216024e-001  2.994467e-001
    outer loop
      vertex  5.000000e-001  1.213526e+000  8.816779e-001
      vertex  0.000000e+000  1.366025e+000  1.100750e-015
      vertex  0.000000e+000  1.105138e+000  8.029296e-001
    endloop
  endfacet
  facet normal -2.469426e-001  5.695816e-001  7.839619e-001
    outer loop
      vertex  5.000000e-001  1.213526e+000  8.816779e-001
      vertex  0.000000e+000  1.105138e+000  8.029296e-001
      vertex  5.000000e-001  4.635255e-001  1.426585e+000
    endloop
  endfacet
  facet normal -2.469425e-001  5.695816e-001  7.839618e-001
    outer loop
      vertex  5.000000e-001  4.635255e-001  1.426585e+000
      vertex  0.000000e+000  1.105138e+000  8.029296e-001
      vertex  0.000000e+000  4.221251e-001  1.299167e+000
    endloop
  endfacet
  facet normal -2.469425e-001  0.000000e+000  9.690302e-001
    outer loop
      vertex  5.000000e-001  4.635255e-001  1.426585e+000
      vertex  0.000000e+000  4.221251e-001  1.299167e+000
      vertex  5.000000e-001 -4.635255e-001  1.426585e+000
    endloop
  endfacet
  facet normal -2.469425e-001  0.000000e+000  9.690302e-001
    outer loop
      vertex  5.000000e-001 -4.635255e-001  1.426585e+000
      vertex  0.000000e+000  4.221251e-001  1.299167e+000
      vertex  0.000000e+000 -4.221251e-001  1.299167e+000
    endloop
  endfacet
  facet normal -2.469425e-001 -5.695816e-001  7.839619e-001
    outer loop
      vertex  5.000000e-001 -4.635255e-001  1.426585e+000
      vertex  0.000000e+000 -4.221251e-001  1.299167e+000
      vertex  5.000000e-001 -1.213526e+000  8.816779e-001
    endloop
  endfacet
  facet normal -2.469426e-001 -5.695816e-001  7.839618e-001
    outer loop
      vertex  5.000000e-001 -1.213526e+000  8.816779e-001
      vertex  0.000000e+000 -4.221251e-001  1.299167e+000
      vertex  0.000000e+000 -1.105138e+000  8.029296e-001
    endloop
  endfacet
  facet normal -2.469426e-001 -9.216024e-001  2.994467e-001
    outer loop
      vertex  5.000000e-001 -1.213526e+000  8.816779e-001
      vertex  0.000000e+000 -1.105138e+000  8.029296e-001
      vertex  5.000000e-001 -1.500000e+000  1.836910e-016
    endloop
  endfacet
  facet normal -2.469425e-001 -9.216024e-001  2.994468e-001
    outer loop
      vertex  5.000000e-001 -1.500000e+000  1.836910e-016
      vertex  0.000000e+000 -1.105138e+000  8.029296e-001
      vertex  0.000000e+000 -1.366025e+000 -6.613974e-016
    endloop
  endfacet
  facet normal -2.582024e-001  9.636246e-001 -6.898577e-002
    outer loop
      vertex  5.000000e-001  1.484703e+000 -2.136746e-001
      vertex  0.000000e+000  1.352095e+000 -1.945899e-001
      vertex  5.000000e-001  1.500000e+000 -3.673819e-016
    endloop
  endfacet
  facet normal -2.582024e-001  9.636247e-001 -6.898582e-002
    outer loop
      vertex  5.000000e-001  1.500000e+000 -3.673819e-016
      vertex  0.000000e+000  1.352095e+000 -1.945899e-001
      vertex  0.000000e+000  1.366025e+000  1.100750e-015
    endloop
  endfacet
  facet normal -2.479953e-001 -9.255314e-001 -2.861642e-001
    outer loop
      vertex  0.000000e+000 -1.366025e+000 -6.613974e-016
      vertex  5.000000e-001 -1.238231e+000 -8.466311e-001
      vertex  5.000000e-001 -1.500000e+000  1.836910e-016
    endloop
  endfacet
  facet normal -3.569213e-001 -8.692766e-001 -3.420019e-001
    outer loop
      vertex  0.000000e+000 -1.366025e+000 -6.613974e-016
      vertex  0.000000e+000 -9.998182e-001 -9.308001e-001
      vertex  5.000000e-001 -1.238231e+000 -8.466311e-001
    endloop
  endfacet
  facet normal -3.569212e-001  8.116937e-001 -4.623423e-001
    outer loop
      vertex  0.000000e+000  1.352095e+000 -1.945899e-001
      vertex  5.000000e-001  1.105001e+000 -1.014383e+000
      vertex  0.000000e+000  8.570299e-001 -1.063732e+000
    endloop
  endfacet
  facet normal -2.479953e-001  8.753288e-001 -4.150876e-001
    outer loop
      vertex  0.000000e+000  1.352095e+000 -1.945899e-001
      vertex  5.000000e-001  1.484703e+000 -2.136746e-001
      vertex  5.000000e-001  1.105001e+000 -1.014383e+000
    endloop
  endfacet
  facet normal -1.625379e-001 -6.136553e-001 -7.726632e-001
    outer loop
      vertex  0.000000e+000 -9.998182e-001 -9.308001e-001
      vertex  5.000000e-001 -5.442877e-001 -1.397766e+000
      vertex  5.000000e-001 -1.238231e+000 -8.466311e-001
    endloop
  endfacet
  facet normal -1.328884e-001 -7.077385e-002 -9.886010e-001
    outer loop
      vertex  0.000000e+000 -9.754397e-002 -1.362538e+000
      vertex  5.000000e-001  3.396257e-001 -1.461046e+000
      vertex  5.000000e-001 -5.442877e-001 -1.397766e+000
    endloop
  endfacet
  facet normal -4.097667e-001 -3.937297e-001 -8.228416e-001
    outer loop
      vertex  0.000000e+000 -9.754397e-002 -1.362538e+000
      vertex  5.000000e-001 -5.442877e-001 -1.397766e+000
      vertex  0.000000e+000 -9.998182e-001 -9.308001e-001
    endloop
  endfacet
  facet normal -1.625378e-001  4.973317e-001 -8.521987e-001
    outer loop
      vertex  0.000000e+000  8.570299e-001 -1.063732e+000
      vertex  5.000000e-001  1.105001e+000 -1.014383e+000
      vertex  5.000000e-001  3.396257e-001 -1.461046e+000
    endloop
  endfacet
  facet normal -4.097667e-001  2.725009e-001 -8.705369e-001
    outer loop
      vertex  0.000000e+000  8.570299e-001 -1.063732e+000
      vertex  5.000000e-001  3.396257e-001 -1.461046e+000
      vertex  0.000000e+000 -9.754397e-002 -1.362538e+000
    endloop
  endfacet
  facet normal  1.130762e-018  9.974473e-001 -7.140712e-002
    outer loop
      vertex  5.000000e-001  1.500000e+000 -3.673819e-016
      vertex  2.950000e+001  1.500000e+000  9.184547e-017
      vertex  5.000000e-001  1.484703e+000 -2.136746e-001
    endloop
  endfacet
  facet normal  0.000000e+000  9.974473e-001 -7.140712e-002
    outer loop
      vertex  5.000000e-001  1.484703e+000 -2.136746e-001
      vertex  2.950000e+001  1.500000e+000  9.184547e-017
      vertex  2.950000e+001  1.484703e+000 -2.136746e-001
    endloop
  endfacet
  facet normal  0.000000e+000  9.035548e-001 -4.284725e-001
    outer loop
      vertex  5.000000e-001  1.484703e+000 -2.136746e-001
      vertex  2.950000e+001  1.484703e+000 -2.136746e-001
      vertex  5.000000e-001  1.105001e+000 -1.014383e+000
    endloop
  endfacet
  facet normal  0.000000e+000  9.035548e-001 -4.284725e-001
    outer loop
      vertex  5.000000e-001  1.105001e+000 -1.014383e+000
      vertex  2.950000e+001  1.484703e+000 -2.136746e-001
      vertex  2.950000e+001  1.105001e+000 -1.014383e+000
    endloop
  endfacet
  facet normal  0.000000e+000  5.040342e-001 -8.636838e-001
    outer loop
      vertex  5.000000e-001  1.105001e+000 -1.014383e+000
      vertex  2.950000e+001  1.105001e+000 -1.014383e+000
      vertex  5.000000e-001  3.396257e-001 -1.461046e+000
    endloop
  endfacet
  facet normal  0.000000e+000  5.040342e-001 -8.636838e-001
    outer loop
      vertex  5.000000e-001  3.396257e-001 -1.461046e+000
      vertex  2.950000e+001  1.105001e+000 -1.014383e+000
      vertex  2.950000e+001  3.396257e-001 -1.461046e+000
    endloop
  endfacet
  facet normal  -0.000000e+000 -7.140715e-002 -9.974473e-001
    outer loop
      vertex  5.000000e-001  3.396257e-001 -1.461046e+000
      vertex  2.950000e+001  3.396257e-001 -1.461046e+000
      vertex  5.000000e-001 -5.442877e-001 -1.397766e+000
    endloop
  endfacet
  facet normal  0.000000e+000 -7.140715e-002 -9.974473e-001
    outer loop
      vertex  5.000000e-001 -5.442877e-001 -1.397766e+000
      vertex  2.950000e+001  3.396257e-001 -1.461046e+000
      vertex  2.950000e+001 -5.442877e-001 -1.397766e+000
    endloop
  endfacet
  facet normal  -0.000000e+000 -6.219255e-001 -7.830764e-001
    outer loop
      vertex  5.000000e-001 -5.442877e-001 -1.397766e+000
      vertex  2.950000e+001 -5.442877e-001 -1.397766e+000
      vertex  5.000000e-001 -1.238231e+000 -8.466311e-001
    endloop
  endfacet
  facet normal  0.000000e+000 -6.219255e-001 -7.830764e-001
    outer loop
      vertex  5.000000e-001 -1.238231e+000 -8.466311e-001
      vertex  2.950000e+001 -5.442877e-001 -1.397766e+000
      vertex  2.950000e+001 -1.238231e+000 -8.466311e-001
    endloop
  endfacet
  facet normal  -0.000000e+000 -9.553762e-001 -2.953919e-001
    outer loop
      vertex  5.000000e-001 -1.238231e+000 -8.466311e-001
      vertex  2.950000e+001 -1.238231e+000 -8.466311e-001
      vertex  5.000000e-001 -1.500000e+000  1.836910e-016
    endloop
  endfacet
  facet normal -2.415926e-018 -9.553762e-001 -2.953919e-001
    outer loop
      vertex  5.000000e-001 -1.500000e+000  1.836910e-016
      vertex  2.950000e+001 -1.238231e+000 -8.466311e-001
      vertex  2.950000e+001 -1.500000e+000 -5.349183e-017
    endloop
  endfacet
  facet normal  2.527362e-018 -9.510565e-001  3.090169e-001
    outer loop
      vertex  5.000000e-001 -1.500000e+000  1.836910e-016
      vertex  2.950000e+001 -1.500000e+000 -5.349183e-017
      vertex  5.000000e-001 -1.213526e+000  8.816779e-001
    endloop
  endfacet
  facet normal  0.000000e+000 -9.510565e-001  3.090169e-001
    outer loop
      vertex  5.000000e-001 -1.213526e+000  8.816779e-001
      vertex  2.950000e+001 -1.500000e+000 -5.349183e-017
      vertex  2.950000e+001 -1.213526e+000  8.816779e-001
    endloop
  endfacet
  facet normal  0.000000e+000 -5.877852e-001  8.090171e-001
    outer loop
      vertex  5.000000e-001 -1.213526e+000  8.816779e-001
      vertex  2.950000e+001 -1.213526e+000  8.816779e-001
      vertex  5.000000e-001 -4.635255e-001  1.426585e+000
    endloop
  endfacet
  facet normal  0.000000e+000 -5.877852e-001  8.090171e-001
    outer loop
      vertex  5.000000e-001 -4.635255e-001  1.426585e+000
      vertex  2.950000e+001 -1.213526e+000  8.816779e-001
      vertex  2.950000e+001 -4.635255e-001  1.426585e+000
    endloop
  endfacet
  facet normal  0.000000e+000  0.000000e+000  1.000000e+000
    outer loop
      vertex  5.000000e-001 -4.635255e-001  1.426585e+000
      vertex  2.950000e+001 -4.635255e-001  1.426585e+000
      vertex  5.000000e-001  4.635255e-001  1.426585e+000
    endloop
  endfacet
  facet normal  -0.000000e+000  0.000000e+000  1.000000e+000
    outer loop
      vertex  5.000000e-001  4.635255e-001  1.426585e+000
      vertex  2.950000e+001 -4.635255e-001  1.426585e+000
      vertex  2.950000e+001  4.635255e-001  1.426585e+000
    endloop
  endfacet
  facet normal  0.000000e+000  5.877852e-001  8.090171e-001
    outer loop
      vertex  5.000000e-001  4.635255e-001  1.426585e+000
      vertex  2.950000e+001  4.635255e-001  1.426585e+000
      vertex  5.000000e-001  1.213526e+000  8.816779e-001
    endloop
  endfacet
  facet normal  -0.000000e+000  5.877852e-001  8.090171e-001
    outer loop
      vertex  5.000000e-001  1.213526e+000  8.816779e-001
      vertex  2.950000e+001  4.635255e-001  1.426585e+000
      vertex  2.950000e+001  1.213526e+000  8.816779e-001
    endloop
  endfacet
  facet normal  0.000000e+000  9.510565e-001  3.090169e-001
    outer loop
      vertex  5.000000e-001  1.213526e+000  8.816779e-001
      vertex  2.950000e+001  1.213526e+000  8.816779e-001
      vertex  5.000000e-001  1.500000e+000 -3.673819e-016
    endloop
  endfacet
  facet normal -4.893415e-018  9.510565e-001  3.090169e-001
    outer loop
      vertex  5.000000e-001  1.500000e+000 -3.673819e-016
      vertex  2.950000e+001  1.213526e+000  8.816779e-001
      vertex  2.950000e+001  1.500000e+000  9.184547e-017
    endloop
  endfacet
  facet normal -1.000000e+000  0.000000e+000  0.000000e+000
    outer loop
      vertex  0.000000e+000  1.366025e+000  1.100750e-015
      vertex  0.000000e+000 -1.105138e+000  8.029296e-001
      vertex  0.000000e+000  1.105138e+000  8.029296e-001
    endloop
  endfacet
  facet normal -1.000000e+000  0.000000e+000  0.000000e+000
    outer loop
      vertex  0.000000e+000  1.105138e+000  8.029296e-001
      vertex  0.000000e+000 -1.105138e+000  8.029296e-001
      vertex  0.000000e+000 -4.221251e-001  1.299167e+000
    endloop
  endfacet
  facet normal -1.000000e+000  0.000000e+000  0.000000e+000
    outer loop
      vertex  0.000000e+000  1.105138e+000  8.029296e-001
      vertex  0.000000e+000 -4.221251e-001  1.299167e+000
      vertex  0.000000e+000  4.221251e-001  1.299167e+000
    endloop
  endfacet
  facet normal -1.000000e+000  -0.000000e+000  0.000000e+000
    outer loop
      vertex  0.000000e+000 -1.105138e+000  8.029296e-001
      vertex  0.000000e+000  1.366025e+000  1.100750e-015
      vertex  0.000000e+000 -1.366025e+000 -6.613974e-016
    endloop
  endfacet
  facet normal -1.000000e+000  0.000000e+000  0.000000e+000
    outer loop
      vertex  0.000000e+000 -1.366025e+000 -6.613974e-016
      vertex  0.000000e+000  1.366025e+000  1.100750e-015
      vertex  0.000000e+000  1.352095e+000 -1.945899e-001
    endloop
  endfacet
  facet normal -1.000000e+000  -0.000000e+000  0.000000e+000
    outer loop
      vertex  0.000000e+000 -1.366025e+000 -6.613974e-016
      vertex  0.000000e+000  1.352095e+000 -1.945899e-001
      vertex  0.000000e+000 -9.998182e-001 -9.308001e-001
    endloop
  endfacet
  facet normal -1.000000e+000  0.000000e+000  0.000000e+000
    outer loop
      vertex  0.000000e+000 -9.998182e-001 -9.308001e-001
      vertex  0.000000e+000  1.352095e+000 -1.945899e-001
      vertex  0.000000e+000  8.570299e-001 -1.063732e+000
    endloop
  endfacet
  facet normal -1.000000e+000  -0.000000e+000  0.000000e+000
    outer loop
      vertex  0.000000e+000 -9.998182e-001 -9.308001e-001
      vertex  0.000000e+000  8.570299e-001 -1.063732e+000
      vertex  0.000000e+000 -9.754397e-002 -1.362538e+000
    endloop
  endfacet
  facet normal  2.479953e-001  8.753288e-001 -4.150876e-001
    outer loop
      vertex  3.000000e+001  1.352095e+000 -1.945899e-001
      vertex  2.950000e+001  1.105001e+000 -1.014383e+000
      vertex  2.950000e+001  1.484703e+000 -2.136746e-001
    endloop
  endfacet
  facet normal  3.569212e-001  8.116937e-001 -4.623423e-001
    outer loop
      vertex  3.000000e+001  1.352095e+000 -1.945899e-001
      vertex  3.000000e+001  8.570299e-001 -1.063732e+000
      vertex  2.950000e+001  1.105001e+000 -1.014383e+000
    endloop
  endfacet
  facet normal  3.569213e-001 -8.692766e-001 -3.420019e-001
    outer loop
      vertex  3.000000e+001 -1.366025e+000 -6.613974e-016
      vertex  2.950000e+001 -1.238231e+000 -8.466311e-001
      vertex  3.000000e+001 -9.998182e-001 -9.308001e-001
    endloop
  endfacet
  facet normal  2.479953e-001 -9.255314e-001 -2.861642e-001
    outer loop
      vertex  3.000000e+001 -1.366025e+000 -6.613974e-016
      vertex  2.950000e+001 -1.500000e+000 -5.349183e-017
      vertex  2.950000e+001 -1.238231e+000 -8.466311e-001
    endloop
  endfacet
  facet normal  1.625378e-001  4.973317e-001 -8.521987e-001
    outer loop
      vertex  3.000000e+001  8.570299e-001 -1.063732e+000
      vertex  2.950000e+001  3.396257e-001 -1.461046e+000
      vertex  2.950000e+001  1.105001e+000 -1.014383e+000
    endloop
  endfacet
  facet normal  1.328885e-001 -7.077385e-002 -9.886010e-001
    outer loop
      vertex  3.000000e+001 -9.754397e-002 -1.362538e+000
      vertex  2.950000e+001 -5.442877e-001 -1.397766e+000
      vertex  2.950000e+001  3.396257e-001 -1.461046e+000
    endloop
  endfacet
  facet normal  4.097667e-001  2.725009e-001 -8.705369e-001
    outer loop
      vertex  3.000000e+001 -9.754397e-002 -1.362538e+000
      vertex  2.950000e+001  3.396257e-001 -1.461046e+000
      vertex  3.000000e+001  8.570299e-001 -1.063732e+000
    endloop
  endfacet
  facet normal  1.625379e-001 -6.136553e-001 -7.726632e-001
    outer loop
      vertex  3.000000e+001 -9.998182e-001 -9.308001e-001
      vertex  2.950000e+001 -1.238231e+000 -8.466311e-001
      vertex  2.950000e+001 -5.442877e-001 -1.397766e+000
    endloop
  endfacet
  facet normal  4.097667e-001 -3.937297e-001 -8.228416e-001
    outer loop
      vertex  3.000000e+001 -9.998182e-001 -9.308001e-001
      vertex  2.950000e+001 -5.442877e-001 -1.397766e+000
      vertex  3.000000e+001 -9.754397e-002 -1.362538e+000
    endloop
  endfacet
  facet normal  2.582023e-001  9.636246e-001 -6.898577e-002
    outer loop
      vertex  2.950000e+001  1.500000e+000  9.184547e-017
      vertex  3.000000e+001  1.366025e+000  1.100750e-015
      vertex  2.950000e+001  1.484703e+000 -2.136746e-001
    endloop
  endfacet
  facet normal  2.582024e-001  9.636247e-001 -6.898582e-002
    outer loop
      vertex  2.950000e+001  1.484703e+000 -2.136746e-001
      vertex  3.000000e+001  1.366025e+000  1.100750e-015
      vertex  3.000000e+001  1.352095e+000 -1.945899e-001
    endloop
  endfacet
  facet normal  2.469425e-001 -9.216024e-001  2.994467e-001
    outer loop
      vertex  2.950000e+001 -1.500000e+000 -5.349183e-017
      vertex  3.000000e+001 -1.366025e+000 -6.613974e-016
      vertex  2.950000e+001 -1.213526e+000  8.816779e-001
    endloop
  endfacet
  facet normal  2.469426e-001 -9.216024e-001  2.994467e-001
    outer loop
      vertex  2.950000e+001 -1.213526e+000  8.816779e-001
      vertex  3.000000e+001 -1.366025e+000 -6.613974e-016
      vertex  3.000000e+001 -1.105138e+000  8.029296e-001
    endloop
  endfacet
  facet normal  2.469426e-001 -5.695816e-001  7.839619e-001
    outer loop
      vertex  2.950000e+001 -1.213526e+000  8.816779e-001
      vertex  3.000000e+001 -1.105138e+000  8.029296e-001
      vertex  2.950000e+001 -4.635255e-001  1.426585e+000
    endloop
  endfacet
  facet normal  2.469425e-001 -5.695816e-001  7.839618e-001
    outer loop
      vertex  2.950000e+001 -4.635255e-001  1.426585e+000
      vertex  3.000000e+001 -1.105138e+000  8.029296e-001
      vertex  3.000000e+001 -4.221251e-001  1.299167e+000
    endloop
  endfacet
  facet normal  2.469425e-001  0.000000e+000  9.690302e-001
    outer loop
      vertex  2.950000e+001 -4.635255e-001  1.426585e+000
      vertex  3.000000e+001 -4.221251e-001  1.299167e+000
      vertex  2.950000e+001  4.635255e-001  1.426585e+000
    endloop
  endfacet
  facet normal  2.469425e-001  0.000000e+000  9.690302e-001
    outer loop
      vertex  2.950000e+001  4.635255e-001  1.426585e+000
      vertex  3.000000e+001 -4.221251e-001  1.299167e+000
      vertex  3.000000e+001  4.221251e-001  1.299167e+000
    endloop
  endfacet
  facet normal  2.469425e-001  5.695816e-001  7.839619e-001
    outer loop
      vertex  2.950000e+001  4.635255e-001  1.426585e+000
      vertex  3.000000e+001  4.221251e-001  1.299167e+000
      vertex  2.950000e+001  1.213526e+000  8.816779e-001
    endloop
  endfacet
  facet normal  2.469426e-001  5.695816e-001  7.839618e-001
    outer loop
      vertex  2.950000e+001  1.213526e+000  8.816779e-001
      vertex  3.000000e+001  4.221251e-001  1.299167e+000
      vertex  3.000000e+001  1.105138e+000  8.029296e-001
    endloop
  endfacet
  facet normal  2.469426e-001  9.216024e-001  2.994467e-001
    outer loop
      vertex  2.950000e+001  1.213526e+000  8.816779e-001
      vertex  3.000000e+001  1.105138e+000  8.029296e-001
      vertex  2.950000e+001  1.500000e+000  9.184547e-017
    endloop
  endfacet
  facet normal  2.469425e-001  9.216024e-001  2.994468e-001
    outer loop
      vertex  2.950000e+001  1.500000e+000  9.184547e-017
      vertex  3.000000e+001  1.105138e+000  8.029296e-001
      vertex  3.000000e+001  1.366025e+000  1.100750e-015
    endloop
  endfacet
  facet normal  1.000000e+000  -0.000000e+000  0.000000e+000
    outer loop
      vertex  3.000000e+001  4.221251e-001  1.299167e+000
      vertex  3.000000e+001 -4.221251e-001  1.299167e+000
      vertex  3.000000e+001  1.105138e+000  8.029296e-001
    endloop
  endfacet
  facet normal  1.000000e+000  0.000000e+000  0.000000e+000
    outer loop
      vertex  3.000000e+001  1.105138e+000  8.029296e-001
      vertex  3.000000e+001 -4.221251e-001  1.299167e+000
      vertex  3.000000e+001 -1.105138e+000  8.029296e-001
    endloop
  endfacet
  facet normal  1.000000e+000  -0.000000e+000  0.000000e+000
    outer loop
      vertex  3.000000e+001  1.105138e+000  8.029296e-001
      vertex  3.000000e+001 -1.105138e+000  8.029296e-001
      vertex  3.000000e+001  1.366025e+000  1.100750e-015
    endloop
  endfacet
  facet normal  1.000000e+000  0.000000e+000  0.000000e+000
    outer loop
      vertex  3.000000e+001  1.366025e+000  1.100750e-015
      vertex  3.000000e+001 -1.105138e+000  8.029296e-001
      vertex  3.000000e+001 -1.366025e+000 -6.613974e-016
    endloop
  endfacet
  facet normal  1.000000e+000  -0.000000e+000  0.000000e+000
    outer loop
      vertex  3.000000e+001  1.366025e+000  1.100750e-015
      vertex  3.000000e+001 -1.366025e+000 -6.613974e-016
      vertex  3.000000e+001  1.352095e+000 -1.945899e-001
    endloop
  endfacet
  facet normal  1.000000e+000  0.000000e+000  0.000000e+000
    outer loop
      vertex  3.000000e+001  1.352095e+000 -1.945899e-001
      vertex  3.000000e+001 -1.366025e+000 -6.613974e-016
      vertex  3.000000e+001 -9.998182e-001 -9.308001e-001
    endloop
  endfacet
  facet normal  1.000000e+000  -0.000000e+000  0.000000e+000
    outer loop
      vertex  3.000000e+001  1.352095e+000 -1.945899e-001
      vertex  3.000000e+001 -9.998182e-001 -9.308001e-001
      vertex  3.000000e+001  8.570299e-001 -1.063732e+000
    endloop
  endfacet
  facet normal  1.000000e+000  0.000000e+000  0.000000e+000
    outer loop
      vertex  3.000000e+001  8.570299e-001 -1.063732e+000
      vertex  3.000000e+001 -9.998182e-001 -9.308001e-001
      vertex  3.000000e+001 -9.754397e-002 -1.362538e+000
    endloop
  endfacet
endsolid CATIA STL
