solid CATIA STL
  facet normal -2.402993e-001  8.968088e-001  3.714704e-001
    outer loop
      vertex  3.500000e-001  1.000000e+000 -2.449213e-016
      vertex  0.000000e+000  9.062178e-001 -3.329743e-016
      vertex  3.500000e-001  7.071068e-001  7.071068e-001
    endloop
  endfacet
  facet normal -2.402992e-001  8.968087e-001  3.714703e-001
    outer loop
      vertex  3.500000e-001  7.071068e-001  7.071068e-001
      vertex  0.000000e+000  9.062178e-001 -3.329743e-016
      vertex  0.000000e+000  6.407927e-001  6.407927e-001
    endloop
  endfacet
  facet normal -2.402992e-001  3.714704e-001  8.968088e-001
    outer loop
      vertex  3.500000e-001  7.071068e-001  7.071068e-001
      vertex  0.000000e+000  6.407927e-001  6.407927e-001
      vertex  3.500000e-001  2.832749e-016  1.000000e+000
    endloop
  endfacet
  facet normal -2.402993e-001  3.714703e-001  8.968087e-001
    outer loop
      vertex  3.500000e-001  2.832749e-016  1.000000e+000
      vertex  0.000000e+000  6.407927e-001  6.407927e-001
      vertex  0.000000e+000  3.884623e-016  9.062178e-001
    endloop
  endfacet
  facet normal -2.402993e-001 -3.714704e-001  8.968088e-001
    outer loop
      vertex  3.500000e-001  2.832749e-016  1.000000e+000
      vertex  0.000000e+000  3.884623e-016  9.062178e-001
      vertex  3.500000e-001 -7.071068e-001  7.071068e-001
    endloop
  endfacet
  facet normal -2.402992e-001 -3.714703e-001  8.968087e-001
    outer loop
      vertex  3.500000e-001 -7.071068e-001  7.071068e-001
      vertex  0.000000e+000  3.884623e-016  9.062178e-001
      vertex  0.000000e+000 -6.407927e-001  6.407927e-001
    endloop
  endfacet
  facet normal -2.402992e-001 -8.968088e-001  3.714704e-001
    outer loop
      vertex  3.500000e-001 -7.071068e-001  7.071068e-001
      vertex  0.000000e+000 -6.407927e-001  6.407927e-001
      vertex  3.500000e-001 -1.000000e+000  5.665498e-016
    endloop
  endfacet
  facet normal -2.402993e-001 -8.968087e-001  3.714703e-001
    outer loop
      vertex  3.500000e-001 -1.000000e+000  5.665498e-016
      vertex  0.000000e+000 -6.407927e-001  6.407927e-001
      vertex  0.000000e+000 -9.062178e-001  4.439503e-016
    endloop
  endfacet
  facet normal -2.581520e-001  9.634367e-001 -7.174439e-002
    outer loop
      vertex  3.500000e-001  9.889705e-001 -1.481128e-001
      vertex  0.000000e+000  8.962227e-001 -1.342225e-001
      vertex  3.500000e-001  1.000000e+000 -2.449213e-016
    endloop
  endfacet
  facet normal -2.581522e-001  9.634367e-001 -7.174394e-002
    outer loop
      vertex  3.500000e-001  1.000000e+000 -2.449213e-016
      vertex  0.000000e+000  8.962227e-001 -1.342225e-001
      vertex  0.000000e+000  9.062178e-001 -3.329743e-016
    endloop
  endfacet
  facet normal -2.420018e-001 -9.031627e-001 -3.545877e-001
    outer loop
      vertex  3.500000e-001 -1.000000e+000  5.665498e-016
      vertex  0.000000e+000 -9.062178e-001  4.439503e-016
      vertex  3.500000e-001 -7.328920e-001 -6.803449e-001
    endloop
  endfacet
  facet normal -2.420017e-001 -9.031626e-001 -3.545876e-001
    outer loop
      vertex  3.500000e-001 -7.328920e-001 -6.803449e-001
      vertex  0.000000e+000 -9.062178e-001  4.439503e-016
      vertex  0.000000e+000 -6.641598e-001 -6.165407e-001
    endloop
  endfacet
  facet normal -2.420016e-001 -4.206788e-001 -8.743366e-001
    outer loop
      vertex  3.500000e-001 -7.328920e-001 -6.803449e-001
      vertex  0.000000e+000 -6.641598e-001 -6.165407e-001
      vertex  3.500000e-001 -7.426147e-002 -9.972388e-001
    endloop
  endfacet
  facet normal -2.420017e-001 -4.206788e-001 -8.743366e-001
    outer loop
      vertex  3.500000e-001 -7.426147e-002 -9.972388e-001
      vertex  0.000000e+000 -6.641598e-001 -6.165407e-001
      vertex  0.000000e+000 -6.729706e-002 -9.037156e-001
    endloop
  endfacet
  facet normal -2.420017e-001  2.865384e-001 -9.270010e-001
    outer loop
      vertex  3.500000e-001 -7.426147e-002 -9.972388e-001
      vertex  0.000000e+000 -6.729706e-002 -9.037156e-001
      vertex  3.500000e-001  6.240408e-001 -7.813918e-001
    endloop
  endfacet
  facet normal -2.420018e-001  2.865385e-001 -9.270010e-001
    outer loop
      vertex  3.500000e-001  6.240408e-001 -7.813918e-001
      vertex  0.000000e+000 -6.729706e-002 -9.037156e-001
      vertex  0.000000e+000  5.655168e-001 -7.081111e-001
    endloop
  endfacet
  facet normal -2.420018e-001  8.406821e-001 -4.844466e-001
    outer loop
      vertex  3.500000e-001  6.240408e-001 -7.813918e-001
      vertex  0.000000e+000  5.655168e-001 -7.081111e-001
      vertex  3.500000e-001  9.889705e-001 -1.481128e-001
    endloop
  endfacet
  facet normal -2.420016e-001  8.406822e-001 -4.844468e-001
    outer loop
      vertex  3.500000e-001  9.889705e-001 -1.481128e-001
      vertex  0.000000e+000  5.655168e-001 -7.081111e-001
      vertex  0.000000e+000  8.962227e-001 -1.342225e-001
    endloop
  endfacet
  facet normal  2.120390e-018  9.972388e-001 -7.426154e-002
    outer loop
      vertex  3.500000e-001  1.000000e+000 -2.449213e-016
      vertex  1.965000e+001  1.000000e+000  3.061516e-016
      vertex  3.500000e-001  9.889705e-001 -1.481128e-001
    endloop
  endfacet
  facet normal  0.000000e+000  9.972388e-001 -7.426154e-002
    outer loop
      vertex  3.500000e-001  9.889705e-001 -1.481128e-001
      vertex  1.965000e+001  1.000000e+000  3.061516e-016
      vertex  1.965000e+001  9.889705e-001 -1.481128e-001
    endloop
  endfacet
  facet normal  0.000000e+000  8.664363e-001 -4.992876e-001
    outer loop
      vertex  3.500000e-001  9.889705e-001 -1.481128e-001
      vertex  1.965000e+001  9.889705e-001 -1.481128e-001
      vertex  3.500000e-001  6.240408e-001 -7.813918e-001
    endloop
  endfacet
  facet normal  0.000000e+000  8.664363e-001 -4.992876e-001
    outer loop
      vertex  3.500000e-001  6.240408e-001 -7.813918e-001
      vertex  1.965000e+001  9.889705e-001 -1.481128e-001
      vertex  1.965000e+001  6.240408e-001 -7.813918e-001
    endloop
  endfacet
  facet normal  0.000000e+000  2.953164e-001 -9.553995e-001
    outer loop
      vertex  3.500000e-001  6.240408e-001 -7.813918e-001
      vertex  1.965000e+001  6.240408e-001 -7.813918e-001
      vertex  3.500000e-001 -7.426147e-002 -9.972388e-001
    endloop
  endfacet
  facet normal  0.000000e+000  2.953164e-001 -9.553995e-001
    outer loop
      vertex  3.500000e-001 -7.426147e-002 -9.972388e-001
      vertex  1.965000e+001  6.240408e-001 -7.813918e-001
      vertex  1.965000e+001 -7.426147e-002 -9.972388e-001
    endloop
  endfacet
  facet normal  -0.000000e+000 -4.335662e-001 -9.011217e-001
    outer loop
      vertex  3.500000e-001 -7.426147e-002 -9.972388e-001
      vertex  1.965000e+001 -7.426147e-002 -9.972388e-001
      vertex  3.500000e-001 -7.328920e-001 -6.803449e-001
    endloop
  endfacet
  facet normal  0.000000e+000 -4.335662e-001 -9.011217e-001
    outer loop
      vertex  3.500000e-001 -7.328920e-001 -6.803449e-001
      vertex  1.965000e+001 -7.426147e-002 -9.972388e-001
      vertex  1.965000e+001 -7.328920e-001 -6.803449e-001
    endloop
  endfacet
  facet normal  -0.000000e+000 -9.308308e-001 -3.654504e-001
    outer loop
      vertex  3.500000e-001 -7.328920e-001 -6.803449e-001
      vertex  1.965000e+001 -7.328920e-001 -6.803449e-001
      vertex  3.500000e-001 -1.000000e+000  5.665498e-016
    endloop
  endfacet
  facet normal  2.611884e-018 -9.308308e-001 -3.654504e-001
    outer loop
      vertex  3.500000e-001 -1.000000e+000  5.665498e-016
      vertex  1.965000e+001 -7.328920e-001 -6.803449e-001
      vertex  1.965000e+001 -1.000000e+000  7.044875e-016
    endloop
  endfacet
  facet normal -2.735049e-018 -9.238795e-001  3.826834e-001
    outer loop
      vertex  3.500000e-001 -1.000000e+000  5.665498e-016
      vertex  1.965000e+001 -1.000000e+000  7.044875e-016
      vertex  3.500000e-001 -7.071068e-001  7.071068e-001
    endloop
  endfacet
  facet normal  0.000000e+000 -9.238795e-001  3.826834e-001
    outer loop
      vertex  3.500000e-001 -7.071068e-001  7.071068e-001
      vertex  1.965000e+001 -1.000000e+000  7.044875e-016
      vertex  1.965000e+001 -7.071068e-001  7.071068e-001
    endloop
  endfacet
  facet normal  0.000000e+000 -3.826834e-001  9.238795e-001
    outer loop
      vertex  3.500000e-001 -7.071068e-001  7.071068e-001
      vertex  1.965000e+001 -7.071068e-001  7.071068e-001
      vertex  3.500000e-001  2.832749e-016  1.000000e+000
    endloop
  endfacet
  facet normal  2.848449e-018 -3.826834e-001  9.238795e-001
    outer loop
      vertex  3.500000e-001  2.832749e-016  1.000000e+000
      vertex  1.965000e+001 -7.071068e-001  7.071068e-001
      vertex  1.965000e+001  4.269317e-016  1.000000e+000
    endloop
  endfacet
  facet normal -2.848449e-018  3.826834e-001  9.238795e-001
    outer loop
      vertex  3.500000e-001  2.832749e-016  1.000000e+000
      vertex  1.965000e+001  4.269317e-016  1.000000e+000
      vertex  3.500000e-001  7.071068e-001  7.071068e-001
    endloop
  endfacet
  facet normal  -0.000000e+000  3.826834e-001  9.238795e-001
    outer loop
      vertex  3.500000e-001  7.071068e-001  7.071068e-001
      vertex  1.965000e+001  4.269317e-016  1.000000e+000
      vertex  1.965000e+001  7.071068e-001  7.071068e-001
    endloop
  endfacet
  facet normal  0.000000e+000  9.238795e-001  3.826834e-001
    outer loop
      vertex  3.500000e-001  7.071068e-001  7.071068e-001
      vertex  1.965000e+001  7.071068e-001  7.071068e-001
      vertex  3.500000e-001  1.000000e+000 -2.449213e-016
    endloop
  endfacet
  facet normal -1.092676e-017  9.238795e-001  3.826834e-001
    outer loop
      vertex  3.500000e-001  1.000000e+000 -2.449213e-016
      vertex  1.965000e+001  7.071068e-001  7.071068e-001
      vertex  1.965000e+001  1.000000e+000  3.061516e-016
    endloop
  endfacet
  facet normal -1.000000e+000  0.000000e+000  0.000000e+000
    outer loop
      vertex  0.000000e+000  3.884623e-016  9.062178e-001
      vertex  0.000000e+000  6.407927e-001  6.407927e-001
      vertex  0.000000e+000 -6.407927e-001  6.407927e-001
    endloop
  endfacet
  facet normal -1.000000e+000  0.000000e+000  0.000000e+000
    outer loop
      vertex  0.000000e+000 -6.407927e-001  6.407927e-001
      vertex  0.000000e+000  6.407927e-001  6.407927e-001
      vertex  0.000000e+000  9.062178e-001 -3.329743e-016
    endloop
  endfacet
  facet normal -1.000000e+000  0.000000e+000  0.000000e+000
    outer loop
      vertex  0.000000e+000 -6.407927e-001  6.407927e-001
      vertex  0.000000e+000  9.062178e-001 -3.329743e-016
      vertex  0.000000e+000 -9.062178e-001  4.439503e-016
    endloop
  endfacet
  facet normal -1.000000e+000  0.000000e+000  0.000000e+000
    outer loop
      vertex  0.000000e+000 -9.062178e-001  4.439503e-016
      vertex  0.000000e+000  9.062178e-001 -3.329743e-016
      vertex  0.000000e+000  8.962227e-001 -1.342225e-001
    endloop
  endfacet
  facet normal -1.000000e+000  -0.000000e+000  0.000000e+000
    outer loop
      vertex  0.000000e+000 -9.062178e-001  4.439503e-016
      vertex  0.000000e+000  8.962227e-001 -1.342225e-001
      vertex  0.000000e+000 -6.641598e-001 -6.165407e-001
    endloop
  endfacet
  facet normal -1.000000e+000  0.000000e+000  0.000000e+000
    outer loop
      vertex  0.000000e+000 -6.641598e-001 -6.165407e-001
      vertex  0.000000e+000  8.962227e-001 -1.342225e-001
      vertex  0.000000e+000  5.655168e-001 -7.081111e-001
    endloop
  endfacet
  facet normal -1.000000e+000  -0.000000e+000  0.000000e+000
    outer loop
      vertex  0.000000e+000 -6.641598e-001 -6.165407e-001
      vertex  0.000000e+000  5.655168e-001 -7.081111e-001
      vertex  0.000000e+000 -6.729706e-002 -9.037156e-001
    endloop
  endfacet
  facet normal  2.420014e-001  8.406823e-001 -4.844467e-001
    outer loop
      vertex  1.965000e+001  9.889705e-001 -1.481128e-001
      vertex  2.000000e+001  8.962227e-001 -1.342225e-001
      vertex  1.965000e+001  6.240408e-001 -7.813918e-001
    endloop
  endfacet
  facet normal  2.420016e-001  8.406821e-001 -4.844467e-001
    outer loop
      vertex  1.965000e+001  6.240408e-001 -7.813918e-001
      vertex  2.000000e+001  8.962227e-001 -1.342225e-001
      vertex  2.000000e+001  5.655168e-001 -7.081111e-001
    endloop
  endfacet
  facet normal  2.420015e-001  2.865384e-001 -9.270010e-001
    outer loop
      vertex  1.965000e+001  6.240408e-001 -7.813918e-001
      vertex  2.000000e+001  5.655168e-001 -7.081111e-001
      vertex  1.965000e+001 -7.426147e-002 -9.972388e-001
    endloop
  endfacet
  facet normal  2.420014e-001  2.865385e-001 -9.270010e-001
    outer loop
      vertex  1.965000e+001 -7.426147e-002 -9.972388e-001
      vertex  2.000000e+001  5.655168e-001 -7.081111e-001
      vertex  2.000000e+001 -6.729706e-002 -9.037156e-001
    endloop
  endfacet
  facet normal  2.420014e-001 -4.206788e-001 -8.743366e-001
    outer loop
      vertex  1.965000e+001 -7.426147e-002 -9.972388e-001
      vertex  2.000000e+001 -6.729706e-002 -9.037156e-001
      vertex  1.965000e+001 -7.328920e-001 -6.803449e-001
    endloop
  endfacet
  facet normal  2.420014e-001 -4.206788e-001 -8.743367e-001
    outer loop
      vertex  1.965000e+001 -7.328920e-001 -6.803449e-001
      vertex  2.000000e+001 -6.729706e-002 -9.037156e-001
      vertex  2.000000e+001 -6.641598e-001 -6.165407e-001
    endloop
  endfacet
  facet normal  2.420015e-001 -9.031627e-001 -3.545877e-001
    outer loop
      vertex  1.965000e+001 -7.328920e-001 -6.803449e-001
      vertex  2.000000e+001 -6.641598e-001 -6.165407e-001
      vertex  1.965000e+001 -1.000000e+000  7.044875e-016
    endloop
  endfacet
  facet normal  2.420015e-001 -9.031627e-001 -3.545877e-001
    outer loop
      vertex  1.965000e+001 -1.000000e+000  7.044875e-016
      vertex  2.000000e+001 -6.641598e-001 -6.165407e-001
      vertex  2.000000e+001 -9.062178e-001  4.439503e-016
    endloop
  endfacet
  facet normal  2.581519e-001  9.634368e-001 -7.174440e-002
    outer loop
      vertex  1.965000e+001  1.000000e+000  3.061516e-016
      vertex  2.000000e+001  9.062178e-001 -3.329743e-016
      vertex  1.965000e+001  9.889705e-001 -1.481128e-001
    endloop
  endfacet
  facet normal  2.581517e-001  9.634368e-001 -7.174394e-002
    outer loop
      vertex  1.965000e+001  9.889705e-001 -1.481128e-001
      vertex  2.000000e+001  9.062178e-001 -3.329743e-016
      vertex  2.000000e+001  8.962227e-001 -1.342225e-001
    endloop
  endfacet
  facet normal  2.402990e-001 -8.968088e-001  3.714704e-001
    outer loop
      vertex  1.965000e+001 -1.000000e+000  7.044875e-016
      vertex  2.000000e+001 -9.062178e-001  4.439503e-016
      vertex  1.965000e+001 -7.071068e-001  7.071068e-001
    endloop
  endfacet
  facet normal  2.402989e-001 -8.968089e-001  3.714704e-001
    outer loop
      vertex  1.965000e+001 -7.071068e-001  7.071068e-001
      vertex  2.000000e+001 -9.062178e-001  4.439503e-016
      vertex  2.000000e+001 -6.407927e-001  6.407927e-001
    endloop
  endfacet
  facet normal  2.402990e-001 -3.714704e-001  8.968089e-001
    outer loop
      vertex  1.965000e+001 -7.071068e-001  7.071068e-001
      vertex  2.000000e+001 -6.407927e-001  6.407927e-001
      vertex  1.965000e+001  4.269317e-016  1.000000e+000
    endloop
  endfacet
  facet normal  2.402990e-001 -3.714703e-001  8.968088e-001
    outer loop
      vertex  1.965000e+001  4.269317e-016  1.000000e+000
      vertex  2.000000e+001 -6.407927e-001  6.407927e-001
      vertex  2.000000e+001  3.884623e-016  9.062178e-001
    endloop
  endfacet
  facet normal  2.402990e-001  3.714704e-001  8.968088e-001
    outer loop
      vertex  1.965000e+001  4.269317e-016  1.000000e+000
      vertex  2.000000e+001  3.884623e-016  9.062178e-001
      vertex  1.965000e+001  7.071068e-001  7.071068e-001
    endloop
  endfacet
  facet normal  2.402989e-001  3.714704e-001  8.968089e-001
    outer loop
      vertex  1.965000e+001  7.071068e-001  7.071068e-001
      vertex  2.000000e+001  3.884623e-016  9.062178e-001
      vertex  2.000000e+001  6.407927e-001  6.407927e-001
    endloop
  endfacet
  facet normal  2.402990e-001  8.968089e-001  3.714704e-001
    outer loop
      vertex  1.965000e+001  7.071068e-001  7.071068e-001
      vertex  2.000000e+001  6.407927e-001  6.407927e-001
      vertex  1.965000e+001  1.000000e+000  3.061516e-016
    endloop
  endfacet
  facet normal  2.402990e-001  8.968088e-001  3.714703e-001
    outer loop
      vertex  1.965000e+001  1.000000e+000  3.061516e-016
      vertex  2.000000e+001  6.407927e-001  6.407927e-001
      vertex  2.000000e+001  9.062178e-001 -3.329743e-016
    endloop
  endfacet
  facet normal  1.000000e+000  0.000000e+000  0.000000e+000
    outer loop
      vertex  2.000000e+001 -6.729706e-002 -9.037156e-001
      vertex  2.000000e+001  5.655168e-001 -7.081111e-001
      vertex  2.000000e+001 -6.641598e-001 -6.165407e-001
    endloop
  endfacet
  facet normal  1.000000e+000  -0.000000e+000  0.000000e+000
    outer loop
      vertex  2.000000e+001 -6.641598e-001 -6.165407e-001
      vertex  2.000000e+001  5.655168e-001 -7.081111e-001
      vertex  2.000000e+001  8.962227e-001 -1.342225e-001
    endloop
  endfacet
  facet normal  1.000000e+000  0.000000e+000  0.000000e+000
    outer loop
      vertex  2.000000e+001 -6.641598e-001 -6.165407e-001
      vertex  2.000000e+001  8.962227e-001 -1.342225e-001
      vertex  2.000000e+001 -9.062178e-001  4.439503e-016
    endloop
  endfacet
  facet normal  1.000000e+000  0.000000e+000  0.000000e+000
    outer loop
      vertex  2.000000e+001 -9.062178e-001  4.439503e-016
      vertex  2.000000e+001  8.962227e-001 -1.342225e-001
      vertex  2.000000e+001  9.062178e-001 -3.329743e-016
    endloop
  endfacet
  facet normal  1.000000e+000  0.000000e+000  0.000000e+000
    outer loop
      vertex  2.000000e+001 -9.062178e-001  4.439503e-016
      vertex  2.000000e+001  9.062178e-001 -3.329743e-016
      vertex  2.000000e+001 -6.407927e-001  6.407927e-001
    endloop
  endfacet
  facet normal  1.000000e+000  -0.000000e+000  0.000000e+000
    outer loop
      vertex  2.000000e+001 -6.407927e-001  6.407927e-001
      vertex  2.000000e+001  9.062178e-001 -3.329743e-016
      vertex  2.000000e+001  6.407927e-001  6.407927e-001
    endloop
  endfacet
  facet normal  1.000000e+000  0.000000e+000  0.000000e+000
    outer loop
      vertex  2.000000e+001 -6.407927e-001  6.407927e-001
      vertex  2.000000e+001  6.407927e-001  6.407927e-001
      vertex  2.000000e+001  3.884623e-016  9.062178e-001
    endloop
  endfacet
endsolid CATIA STL
