solid CATIA STL
  facet normal -4.942954e-001  8.561449e-001 -1.506251e-001
    outer loop
      vertex  1.000000e+000  1.879906e+000 -6.826075e-001
      vertex  0.000000e+000  1.337224e+000 -4.855557e-001
      vertex  1.000000e+000  2.000000e+000 -4.898425e-016
    endloop
  endfacet
  facet normal -4.942955e-001  8.561448e-001 -1.506249e-001
    outer loop
      vertex  1.000000e+000  2.000000e+000 -4.898425e-016
      vertex  0.000000e+000  1.337224e+000 -4.855557e-001
      vertex  0.000000e+000  1.422650e+000 -6.815041e-016
    endloop
  endfacet
  facet normal -4.852533e-001 -8.404835e-001 -2.410740e-001
    outer loop
      vertex  0.000000e+000 -1.422650e+000  8.557227e-016
      vertex  1.000000e+000 -1.695935e+000 -1.060097e+000
      vertex  1.000000e+000 -2.000000e+000  1.133100e-015
    endloop
  endfacet
  facet normal -5.266108e-001 -7.988111e-001 -2.908297e-001
    outer loop
      vertex  0.000000e+000 -1.422650e+000  8.557227e-016
      vertex  0.000000e+000 -1.089639e+000 -9.146693e-001
      vertex  1.000000e+000 -1.695935e+000 -1.060097e+000
    endloop
  endfacet
  facet normal -5.266107e-001  6.515837e-001 -5.460035e-001
    outer loop
      vertex  0.000000e+000  1.337224e+000 -4.855557e-001
      vertex  1.000000e+000  1.232284e+000 -1.575270e+000
      vertex  0.000000e+000  7.120291e-001 -1.231644e+000
    endloop
  endfacet
  facet normal -4.852533e-001  7.077355e-001 -5.134585e-001
    outer loop
      vertex  0.000000e+000  1.337224e+000 -4.855557e-001
      vertex  1.000000e+000  1.879906e+000 -6.826075e-001
      vertex  1.000000e+000  1.232284e+000 -1.575270e+000
    endloop
  endfacet
  facet normal -4.569249e-001 -5.950440e-001 -6.611673e-001
    outer loop
      vertex  0.000000e+000 -1.089639e+000 -9.146693e-001
      vertex  1.000000e+000 -8.761942e-001 -1.797855e+000
      vertex  1.000000e+000 -1.695935e+000 -1.060097e+000
    endloop
  endfacet
  facet normal -4.470931e-001 -1.549903e-001 -8.809572e-001
    outer loop
      vertex  0.000000e+000 -2.465066e-001 -1.401131e+000
      vertex  1.000000e+000  2.099666e-001 -1.988948e+000
      vertex  1.000000e+000 -8.761942e-001 -1.797855e+000
    endloop
  endfacet
  facet normal -5.498635e-001 -4.174206e-001 -7.234710e-001
    outer loop
      vertex  0.000000e+000 -2.465066e-001 -1.401131e+000
      vertex  1.000000e+000 -8.761942e-001 -1.797855e+000
      vertex  0.000000e+000 -1.089639e+000 -9.146693e-001
    endloop
  endfacet
  facet normal -4.569249e-001  3.336545e-001 -8.245569e-001
    outer loop
      vertex  0.000000e+000  7.120291e-001 -1.231644e+000
      vertex  1.000000e+000  1.232284e+000 -1.575270e+000
      vertex  1.000000e+000  2.099666e-001 -1.988948e+000
    endloop
  endfacet
  facet normal -5.498634e-001  1.454323e-001 -8.224960e-001
    outer loop
      vertex  0.000000e+000  7.120291e-001 -1.231644e+000
      vertex  1.000000e+000  2.099666e-001 -1.988948e+000
      vertex  0.000000e+000 -2.465066e-001 -1.401131e+000
    endloop
  endfacet
  facet normal -4.813081e-001  8.336500e-001  2.708693e-001
    outer loop
      vertex  1.000000e+000  2.000000e+000 -4.898425e-016
      vertex  0.000000e+000  1.422650e+000 -6.815041e-016
      vertex  1.000000e+000  1.618034e+000  1.175570e+000
    endloop
  endfacet
  facet normal -4.813081e-001  8.336501e-001  2.708693e-001
    outer loop
      vertex  1.000000e+000  1.618034e+000  1.175570e+000
      vertex  0.000000e+000  1.422650e+000 -6.815041e-016
      vertex  0.000000e+000  1.150948e+000  8.362125e-001
    endloop
  endfacet
  facet normal -4.813081e-001  5.152241e-001  7.091451e-001
    outer loop
      vertex  1.000000e+000  1.618034e+000  1.175570e+000
      vertex  0.000000e+000  1.150948e+000  8.362125e-001
      vertex  1.000000e+000  6.180340e-001  1.902113e+000
    endloop
  endfacet
  facet normal -4.813081e-001  5.152241e-001  7.091451e-001
    outer loop
      vertex  1.000000e+000  6.180340e-001  1.902113e+000
      vertex  0.000000e+000  1.150948e+000  8.362125e-001
      vertex  0.000000e+000  4.396229e-001  1.353020e+000
    endloop
  endfacet
  facet normal -4.813081e-001  0.000000e+000  8.765514e-001
    outer loop
      vertex  1.000000e+000  6.180340e-001  1.902113e+000
      vertex  0.000000e+000  4.396229e-001  1.353020e+000
      vertex  1.000000e+000 -6.180340e-001  1.902113e+000
    endloop
  endfacet
  facet normal -4.813081e-001  0.000000e+000  8.765514e-001
    outer loop
      vertex  1.000000e+000 -6.180340e-001  1.902113e+000
      vertex  0.000000e+000  4.396229e-001  1.353020e+000
      vertex  0.000000e+000 -4.396229e-001  1.353020e+000
    endloop
  endfacet
  facet normal -4.813081e-001 -5.152241e-001  7.091450e-001
    outer loop
      vertex  1.000000e+000 -6.180340e-001  1.902113e+000
      vertex  0.000000e+000 -4.396229e-001  1.353020e+000
      vertex  1.000000e+000 -1.618034e+000  1.175570e+000
    endloop
  endfacet
  facet normal -4.813081e-001 -5.152241e-001  7.091450e-001
    outer loop
      vertex  1.000000e+000 -1.618034e+000  1.175570e+000
      vertex  0.000000e+000 -4.396229e-001  1.353020e+000
      vertex  0.000000e+000 -1.150948e+000  8.362125e-001
    endloop
  endfacet
  facet normal -4.813081e-001 -8.336500e-001  2.708693e-001
    outer loop
      vertex  1.000000e+000 -1.618034e+000  1.175570e+000
      vertex  0.000000e+000 -1.150948e+000  8.362125e-001
      vertex  1.000000e+000 -2.000000e+000  1.133100e-015
    endloop
  endfacet
  facet normal -4.813081e-001 -8.336501e-001  2.708693e-001
    outer loop
      vertex  1.000000e+000 -2.000000e+000  1.133100e-015
      vertex  0.000000e+000 -1.150948e+000  8.362125e-001
      vertex  0.000000e+000 -1.422650e+000  8.557227e-016
    endloop
  endfacet
  facet normal  2.791988e-018  9.848739e-001 -1.732729e-001
    outer loop
      vertex  1.000000e+000  2.000000e+000 -4.898425e-016
      vertex  3.900000e+001  2.000000e+000  1.224606e-016
      vertex  1.000000e+000  1.879906e+000 -6.826075e-001
    endloop
  endfacet
  facet normal  0.000000e+000  9.848739e-001 -1.732729e-001
    outer loop
      vertex  1.000000e+000  1.879906e+000 -6.826075e-001
      vertex  3.900000e+001  2.000000e+000  1.224606e-016
      vertex  3.900000e+001  1.879906e+000 -6.826075e-001
    endloop
  endfacet
  facet normal  0.000000e+000  8.094200e-001 -5.872301e-001
    outer loop
      vertex  1.000000e+000  1.879906e+000 -6.826075e-001
      vertex  3.900000e+001  1.879906e+000 -6.826075e-001
      vertex  1.000000e+000  1.232284e+000 -1.575270e+000
    endloop
  endfacet
  facet normal  0.000000e+000  8.094200e-001 -5.872301e-001
    outer loop
      vertex  1.000000e+000  1.232284e+000 -1.575270e+000
      vertex  3.900000e+001  1.879906e+000 -6.826075e-001
      vertex  3.900000e+001  1.232284e+000 -1.575270e+000
    endloop
  endfacet
  facet normal  0.000000e+000  3.751012e-001 -9.269838e-001
    outer loop
      vertex  1.000000e+000  1.232284e+000 -1.575270e+000
      vertex  3.900000e+001  1.232284e+000 -1.575270e+000
      vertex  1.000000e+000  2.099666e-001 -1.988948e+000
    endloop
  endfacet
  facet normal  0.000000e+000  3.751012e-001 -9.269838e-001
    outer loop
      vertex  1.000000e+000  2.099666e-001 -1.988948e+000
      vertex  3.900000e+001  1.232284e+000 -1.575270e+000
      vertex  3.900000e+001  2.099666e-001 -1.988948e+000
    endloop
  endfacet
  facet normal  -0.000000e+000 -1.732728e-001 -9.848738e-001
    outer loop
      vertex  1.000000e+000  2.099666e-001 -1.988948e+000
      vertex  3.900000e+001  2.099666e-001 -1.988948e+000
      vertex  1.000000e+000 -8.761942e-001 -1.797855e+000
    endloop
  endfacet
  facet normal  0.000000e+000 -1.732728e-001 -9.848738e-001
    outer loop
      vertex  1.000000e+000 -8.761942e-001 -1.797855e+000
      vertex  3.900000e+001  2.099666e-001 -1.988948e+000
      vertex  3.900000e+001 -8.761942e-001 -1.797855e+000
    endloop
  endfacet
  facet normal  -0.000000e+000 -6.689606e-001 -7.432978e-001
    outer loop
      vertex  1.000000e+000 -8.761942e-001 -1.797855e+000
      vertex  3.900000e+001 -8.761942e-001 -1.797855e+000
      vertex  1.000000e+000 -1.695935e+000 -1.060097e+000
    endloop
  endfacet
  facet normal  0.000000e+000 -6.689606e-001 -7.432978e-001
    outer loop
      vertex  1.000000e+000 -1.695935e+000 -1.060097e+000
      vertex  3.900000e+001 -8.761942e-001 -1.797855e+000
      vertex  3.900000e+001 -1.695935e+000 -1.060097e+000
    endloop
  endfacet
  facet normal  -0.000000e+000 -9.612407e-001 -2.757106e-001
    outer loop
      vertex  1.000000e+000 -1.695935e+000 -1.060097e+000
      vertex  3.900000e+001 -1.695935e+000 -1.060097e+000
      vertex  1.000000e+000 -2.000000e+000  1.133100e-015
    endloop
  endfacet
  facet normal -2.377524e-017 -9.612407e-001 -2.757106e-001
    outer loop
      vertex  1.000000e+000 -2.000000e+000  1.133100e-015
      vertex  3.900000e+001 -1.695935e+000 -1.060097e+000
      vertex  3.900000e+001 -2.000000e+000 -2.143739e-015
    endloop
  endfacet
  facet normal  2.664734e-017 -9.510565e-001  3.090170e-001
    outer loop
      vertex  1.000000e+000 -2.000000e+000  1.133100e-015
      vertex  3.900000e+001 -2.000000e+000 -2.143739e-015
      vertex  1.000000e+000 -1.618034e+000  1.175570e+000
    endloop
  endfacet
  facet normal  0.000000e+000 -9.510565e-001  3.090170e-001
    outer loop
      vertex  1.000000e+000 -1.618034e+000  1.175570e+000
      vertex  3.900000e+001 -2.000000e+000 -2.143739e-015
      vertex  3.900000e+001 -1.618034e+000  1.175570e+000
    endloop
  endfacet
  facet normal  0.000000e+000 -5.877853e-001  8.090170e-001
    outer loop
      vertex  1.000000e+000 -1.618034e+000  1.175570e+000
      vertex  3.900000e+001 -1.618034e+000  1.175570e+000
      vertex  1.000000e+000 -6.180340e-001  1.902113e+000
    endloop
  endfacet
  facet normal  0.000000e+000 -5.877853e-001  8.090170e-001
    outer loop
      vertex  1.000000e+000 -6.180340e-001  1.902113e+000
      vertex  3.900000e+001 -1.618034e+000  1.175570e+000
      vertex  3.900000e+001 -6.180340e-001  1.902113e+000
    endloop
  endfacet
  facet normal  0.000000e+000  0.000000e+000  1.000000e+000
    outer loop
      vertex  1.000000e+000 -6.180340e-001  1.902113e+000
      vertex  3.900000e+001 -6.180340e-001  1.902113e+000
      vertex  1.000000e+000  6.180340e-001  1.902113e+000
    endloop
  endfacet
  facet normal  -0.000000e+000  0.000000e+000  1.000000e+000
    outer loop
      vertex  1.000000e+000  6.180340e-001  1.902113e+000
      vertex  3.900000e+001 -6.180340e-001  1.902113e+000
      vertex  3.900000e+001  6.180340e-001  1.902113e+000
    endloop
  endfacet
  facet normal  0.000000e+000  5.877853e-001  8.090170e-001
    outer loop
      vertex  1.000000e+000  6.180340e-001  1.902113e+000
      vertex  3.900000e+001  6.180340e-001  1.902113e+000
      vertex  1.000000e+000  1.618034e+000  1.175570e+000
    endloop
  endfacet
  facet normal  -0.000000e+000  5.877853e-001  8.090170e-001
    outer loop
      vertex  1.000000e+000  1.618034e+000  1.175570e+000
      vertex  3.900000e+001  6.180340e-001  1.902113e+000
      vertex  3.900000e+001  1.618034e+000  1.175570e+000
    endloop
  endfacet
  facet normal  0.000000e+000  9.510565e-001  3.090170e-001
    outer loop
      vertex  1.000000e+000  1.618034e+000  1.175570e+000
      vertex  3.900000e+001  1.618034e+000  1.175570e+000
      vertex  1.000000e+000  2.000000e+000 -4.898425e-016
    endloop
  endfacet
  facet normal -4.979266e-018  9.510565e-001  3.090170e-001
    outer loop
      vertex  1.000000e+000  2.000000e+000 -4.898425e-016
      vertex  3.900000e+001  1.618034e+000  1.175570e+000
      vertex  3.900000e+001  2.000000e+000  1.224606e-016
    endloop
  endfacet
  facet normal -1.000000e+000  0.000000e+000  0.000000e+000
    outer loop
      vertex  0.000000e+000  1.422650e+000 -6.815041e-016
      vertex  0.000000e+000 -1.150948e+000  8.362125e-001
      vertex  0.000000e+000  1.150948e+000  8.362125e-001
    endloop
  endfacet
  facet normal -1.000000e+000  0.000000e+000  0.000000e+000
    outer loop
      vertex  0.000000e+000  1.150948e+000  8.362125e-001
      vertex  0.000000e+000 -1.150948e+000  8.362125e-001
      vertex  0.000000e+000 -4.396229e-001  1.353020e+000
    endloop
  endfacet
  facet normal -9.999999e-001  0.000000e+000  0.000000e+000
    outer loop
      vertex  0.000000e+000  1.150948e+000  8.362125e-001
      vertex  0.000000e+000 -4.396229e-001  1.353020e+000
      vertex  0.000000e+000  4.396229e-001  1.353020e+000
    endloop
  endfacet
  facet normal -1.000000e+000  0.000000e+000  0.000000e+000
    outer loop
      vertex  0.000000e+000 -1.150948e+000  8.362125e-001
      vertex  0.000000e+000  1.422650e+000 -6.815041e-016
      vertex  0.000000e+000 -1.422650e+000  8.557227e-016
    endloop
  endfacet
  facet normal -1.000000e+000  0.000000e+000  0.000000e+000
    outer loop
      vertex  0.000000e+000 -1.422650e+000  8.557227e-016
      vertex  0.000000e+000  1.422650e+000 -6.815041e-016
      vertex  0.000000e+000  1.337224e+000 -4.855557e-001
    endloop
  endfacet
  facet normal -1.000000e+000  -0.000000e+000  0.000000e+000
    outer loop
      vertex  0.000000e+000 -1.422650e+000  8.557227e-016
      vertex  0.000000e+000  1.337224e+000 -4.855557e-001
      vertex  0.000000e+000 -1.089639e+000 -9.146693e-001
    endloop
  endfacet
  facet normal -1.000000e+000  0.000000e+000  0.000000e+000
    outer loop
      vertex  0.000000e+000 -1.089639e+000 -9.146693e-001
      vertex  0.000000e+000  1.337224e+000 -4.855557e-001
      vertex  0.000000e+000  7.120291e-001 -1.231644e+000
    endloop
  endfacet
  facet normal -1.000000e+000  -0.000000e+000  0.000000e+000
    outer loop
      vertex  0.000000e+000 -1.089639e+000 -9.146693e-001
      vertex  0.000000e+000  7.120291e-001 -1.231644e+000
      vertex  0.000000e+000 -2.465066e-001 -1.401131e+000
    endloop
  endfacet
  facet normal  4.852533e-001  7.077355e-001 -5.134585e-001
    outer loop
      vertex  4.000000e+001  1.337224e+000 -4.855557e-001
      vertex  3.900000e+001  1.232284e+000 -1.575270e+000
      vertex  3.900000e+001  1.879906e+000 -6.826075e-001
    endloop
  endfacet
  facet normal  5.266107e-001  6.515837e-001 -5.460035e-001
    outer loop
      vertex  4.000000e+001  1.337224e+000 -4.855557e-001
      vertex  4.000000e+001  7.120291e-001 -1.231644e+000
      vertex  3.900000e+001  1.232284e+000 -1.575270e+000
    endloop
  endfacet
  facet normal  5.266108e-001 -7.988111e-001 -2.908297e-001
    outer loop
      vertex  4.000000e+001 -1.422650e+000  8.557227e-016
      vertex  3.900000e+001 -1.695935e+000 -1.060097e+000
      vertex  4.000000e+001 -1.089639e+000 -9.146693e-001
    endloop
  endfacet
  facet normal  4.852533e-001 -8.404835e-001 -2.410740e-001
    outer loop
      vertex  4.000000e+001 -1.422650e+000  8.557227e-016
      vertex  3.900000e+001 -2.000000e+000 -2.143739e-015
      vertex  3.900000e+001 -1.695935e+000 -1.060097e+000
    endloop
  endfacet
  facet normal  4.569249e-001  3.336545e-001 -8.245569e-001
    outer loop
      vertex  4.000000e+001  7.120291e-001 -1.231644e+000
      vertex  3.900000e+001  2.099666e-001 -1.988948e+000
      vertex  3.900000e+001  1.232284e+000 -1.575270e+000
    endloop
  endfacet
  facet normal  4.470931e-001 -1.549903e-001 -8.809572e-001
    outer loop
      vertex  4.000000e+001 -2.465066e-001 -1.401131e+000
      vertex  3.900000e+001 -8.761942e-001 -1.797855e+000
      vertex  3.900000e+001  2.099666e-001 -1.988948e+000
    endloop
  endfacet
  facet normal  5.498634e-001  1.454323e-001 -8.224960e-001
    outer loop
      vertex  4.000000e+001 -2.465066e-001 -1.401131e+000
      vertex  3.900000e+001  2.099666e-001 -1.988948e+000
      vertex  4.000000e+001  7.120291e-001 -1.231644e+000
    endloop
  endfacet
  facet normal  4.569249e-001 -5.950440e-001 -6.611673e-001
    outer loop
      vertex  4.000000e+001 -1.089639e+000 -9.146693e-001
      vertex  3.900000e+001 -1.695935e+000 -1.060097e+000
      vertex  3.900000e+001 -8.761942e-001 -1.797855e+000
    endloop
  endfacet
  facet normal  5.498635e-001 -4.174206e-001 -7.234710e-001
    outer loop
      vertex  4.000000e+001 -1.089639e+000 -9.146693e-001
      vertex  3.900000e+001 -8.761942e-001 -1.797855e+000
      vertex  4.000000e+001 -2.465066e-001 -1.401131e+000
    endloop
  endfacet
  facet normal  4.942955e-001  8.561449e-001 -1.506251e-001
    outer loop
      vertex  3.900000e+001  2.000000e+000  1.224606e-016
      vertex  4.000000e+001  1.422650e+000 -6.815041e-016
      vertex  3.900000e+001  1.879906e+000 -6.826075e-001
    endloop
  endfacet
  facet normal  4.942954e-001  8.561449e-001 -1.506250e-001
    outer loop
      vertex  3.900000e+001  1.879906e+000 -6.826075e-001
      vertex  4.000000e+001  1.422650e+000 -6.815041e-016
      vertex  4.000000e+001  1.337224e+000 -4.855557e-001
    endloop
  endfacet
  facet normal  4.813081e-001 -8.336500e-001  2.708693e-001
    outer loop
      vertex  3.900000e+001 -2.000000e+000 -2.143739e-015
      vertex  4.000000e+001 -1.422650e+000  8.557227e-016
      vertex  3.900000e+001 -1.618034e+000  1.175570e+000
    endloop
  endfacet
  facet normal  4.813081e-001 -8.336501e-001  2.708693e-001
    outer loop
      vertex  3.900000e+001 -1.618034e+000  1.175570e+000
      vertex  4.000000e+001 -1.422650e+000  8.557227e-016
      vertex  4.000000e+001 -1.150948e+000  8.362125e-001
    endloop
  endfacet
  facet normal  4.813081e-001 -5.152241e-001  7.091451e-001
    outer loop
      vertex  3.900000e+001 -1.618034e+000  1.175570e+000
      vertex  4.000000e+001 -1.150948e+000  8.362125e-001
      vertex  3.900000e+001 -6.180340e-001  1.902113e+000
    endloop
  endfacet
  facet normal  4.813081e-001 -5.152241e-001  7.091451e-001
    outer loop
      vertex  3.900000e+001 -6.180340e-001  1.902113e+000
      vertex  4.000000e+001 -1.150948e+000  8.362125e-001
      vertex  4.000000e+001 -4.396229e-001  1.353020e+000
    endloop
  endfacet
  facet normal  4.813081e-001  0.000000e+000  8.765514e-001
    outer loop
      vertex  3.900000e+001 -6.180340e-001  1.902113e+000
      vertex  4.000000e+001 -4.396229e-001  1.353020e+000
      vertex  3.900000e+001  6.180340e-001  1.902113e+000
    endloop
  endfacet
  facet normal  4.813081e-001  0.000000e+000  8.765514e-001
    outer loop
      vertex  3.900000e+001  6.180340e-001  1.902113e+000
      vertex  4.000000e+001 -4.396229e-001  1.353020e+000
      vertex  4.000000e+001  4.396229e-001  1.353020e+000
    endloop
  endfacet
  facet normal  4.813081e-001  5.152241e-001  7.091450e-001
    outer loop
      vertex  3.900000e+001  6.180340e-001  1.902113e+000
      vertex  4.000000e+001  4.396229e-001  1.353020e+000
      vertex  3.900000e+001  1.618034e+000  1.175570e+000
    endloop
  endfacet
  facet normal  4.813081e-001  5.152241e-001  7.091450e-001
    outer loop
      vertex  3.900000e+001  1.618034e+000  1.175570e+000
      vertex  4.000000e+001  4.396229e-001  1.353020e+000
      vertex  4.000000e+001  1.150948e+000  8.362125e-001
    endloop
  endfacet
  facet normal  4.813081e-001  8.336500e-001  2.708693e-001
    outer loop
      vertex  3.900000e+001  1.618034e+000  1.175570e+000
      vertex  4.000000e+001  1.150948e+000  8.362125e-001
      vertex  3.900000e+001  2.000000e+000  1.224606e-016
    endloop
  endfacet
  facet normal  4.813081e-001  8.336501e-001  2.708693e-001
    outer loop
      vertex  3.900000e+001  2.000000e+000  1.224606e-016
      vertex  4.000000e+001  1.150948e+000  8.362125e-001
      vertex  4.000000e+001  1.422650e+000 -6.815041e-016
    endloop
  endfacet
  facet normal  9.999999e-001  -0.000000e+000  0.000000e+000
    outer loop
      vertex  4.000000e+001  4.396229e-001  1.353020e+000
      vertex  4.000000e+001 -4.396229e-001  1.353020e+000
      vertex  4.000000e+001  1.150948e+000  8.362125e-001
    endloop
  endfacet
  facet normal  1.000000e+000  0.000000e+000  0.000000e+000
    outer loop
      vertex  4.000000e+001  1.150948e+000  8.362125e-001
      vertex  4.000000e+001 -4.396229e-001  1.353020e+000
      vertex  4.000000e+001 -1.150948e+000  8.362125e-001
    endloop
  endfacet
  facet normal  1.000000e+000  -0.000000e+000  0.000000e+000
    outer loop
      vertex  4.000000e+001  1.150948e+000  8.362125e-001
      vertex  4.000000e+001 -1.150948e+000  8.362125e-001
      vertex  4.000000e+001  1.422650e+000 -6.815041e-016
    endloop
  endfacet
  facet normal  1.000000e+000  0.000000e+000  0.000000e+000
    outer loop
      vertex  4.000000e+001  1.422650e+000 -6.815041e-016
      vertex  4.000000e+001 -1.150948e+000  8.362125e-001
      vertex  4.000000e+001 -1.422650e+000  8.557227e-016
    endloop
  endfacet
  facet normal  1.000000e+000  0.000000e+000  0.000000e+000
    outer loop
      vertex  4.000000e+001  1.422650e+000 -6.815041e-016
      vertex  4.000000e+001 -1.422650e+000  8.557227e-016
      vertex  4.000000e+001  1.337224e+000 -4.855557e-001
    endloop
  endfacet
  facet normal  1.000000e+000  0.000000e+000  0.000000e+000
    outer loop
      vertex  4.000000e+001  1.337224e+000 -4.855557e-001
      vertex  4.000000e+001 -1.422650e+000  8.557227e-016
      vertex  4.000000e+001 -1.089639e+000 -9.146693e-001
    endloop
  endfacet
  facet normal  1.000000e+000  -0.000000e+000  0.000000e+000
    outer loop
      vertex  4.000000e+001  1.337224e+000 -4.855557e-001
      vertex  4.000000e+001 -1.089639e+000 -9.146693e-001
      vertex  4.000000e+001  7.120291e-001 -1.231644e+000
    endloop
  endfacet
  facet normal  1.000000e+000  0.000000e+000  0.000000e+000
    outer loop
      vertex  4.000000e+001  7.120291e-001 -1.231644e+000
      vertex  4.000000e+001 -1.089639e+000 -9.146693e-001
      vertex  4.000000e+001 -2.465066e-001 -1.401131e+000
    endloop
  endfacet
endsolid CATIA STL
